<svg width="139" height="255" viewBox="0 0 139 255" version="1.1" xmlns="http://www.w3.org/2000/svg" xmlns:xlink="http://www.w3.org/1999/xlink">
<title>yulya</title>
<desc>Created using Figma</desc>
<g id="Canvas" transform="translate(9 -216)">
<g id="yulya">
<g id="Vector 2">
<use xlink:href="#path0_stroke" transform="translate(-4 357.5)" fill="#1B87E5"/>
</g>
<g id="Vector">
<use xlink:href="#path1_stroke" transform="translate(86.5537 312.5)" fill="#1B87E5"/>
</g>
<g id="Vector 3">
<use xlink:href="#path2_stroke" transform="translate(11.5537 275.5)" fill="#1B87E5"/>
</g>
<g id="Ellipse">
<mask id="mask0_outline_ins">
<use xlink:href="#path3_fill" fill="white" transform="translate(36.5537 216)"/>
</mask>
<g mask="url(#mask0_outline_ins)">
<use xlink:href="#path4_stroke_2x" transform="translate(36.5537 216)" fill="#1B87E5"/>
</g>
</g>
</g>
</g>
<defs>
<path id="path0_stroke" d="M 18.554 104L 21.7359 107.182L 21.922 106.996L 22.085 106.79L 18.554 104ZM 2.05398 91.5L -1.46731 88.6981L -1.60445 88.8705L -1.7241 89.0554L 2.05398 91.5ZM 56.8358 55.542L 60.3668 58.3316L 56.8358 55.542ZM 39.707 42.6492L 35.3711 41.4448L 39.707 42.6492ZM 65.8176 18.9825L 54.4803 50.6324L 62.9531 53.6675L 74.2904 22.0175L 65.8176 18.9825ZM 53.3047 52.7525L 15.0229 101.21L 22.085 106.79L 60.3668 58.3316L 53.3047 52.7525ZM 18.554 104C 15.372 100.818 15.3732 100.817 15.3745 100.816C 15.3748 100.815 15.376 100.814 15.3767 100.813C 15.3761 100.814 15.382 100.808 15.3807 100.809C 15.38 100.81 15.3883 100.802 15.3868 100.803C 15.3871 100.803 15.3913 100.799 15.3908 100.799C 15.3828 100.807 15.3825 100.808 15.3676 100.822C 15.3233 100.864 15.2847 100.9 15.2034 100.972C 15.0096 101.145 14.8 101.325 14.4635 101.58C 13.7202 102.15 12.9627 102.674 11.8847 103.123C 9.92564 103.975 8.20183 104.057 6.48256 102.583L 0.625398 109.417C 5.90605 113.943 11.6822 113.025 15.4732 111.377C 17.2702 110.576 18.9502 109.475 19.9257 108.733C 20.4486 108.331 20.9187 107.933 21.1897 107.692C 21.3408 107.557 21.4809 107.427 21.5573 107.355C 21.6027 107.312 21.6482 107.268 21.6709 107.246C 21.6857 107.232 21.7022 107.215 21.7095 107.208C 21.715 107.203 21.7216 107.196 21.7243 107.194C 21.7265 107.191 21.7294 107.189 21.7305 107.187C 21.7315 107.186 21.7328 107.185 21.7333 107.185C 21.7346 107.183 21.7359 107.182 18.554 104ZM 6.48256 102.583C 4.51636 100.898 4.30096 99.0622 4.61246 97.271C 4.77136 96.2432 5.05407 95.5373 5.39819 94.7894C 5.546 94.4608 5.64819 94.2703 5.75762 94.0756C 5.80038 93.9987 5.81749 93.9702 5.84351 93.9273C 5.85065 93.9154 5.85579 93.9074 5.85161 93.914C 5.85242 93.9128 5.84517 93.9242 5.84549 93.9237C 5.8471 93.9212 5.83893 93.934 5.83972 93.9327C 5.84083 93.931 5.83557 93.9392 5.83613 93.9383C 5.83549 93.9393 5.83447 93.9409 5.83415 93.9414C 5.83312 93.943 5.83206 93.9446 2.05398 91.5C -1.7241 89.0554 -1.7252 89.0571 -1.72632 89.0588C -1.72673 89.0595 -1.72787 89.0612 -1.72867 89.0625C -1.72956 89.0638 -1.73198 89.0676 -1.73376 89.0704C -1.73588 89.0737 -1.74124 89.082 -1.74546 89.0887C -1.75101 89.0974 -1.76377 89.1176 -1.77478 89.1351C -1.79098 89.161 -1.82423 89.2147 -1.85567 89.2666C -1.9068 89.3511 -2.00101 89.5111 -2.09497 89.6783C -2.25897 89.9719 -2.53178 90.4923 -2.79021 91.0544C -3.25858 92.0877 -3.91335 93.8818 -4.25445 95.729C -4.94292 99.6878 -4.40832 105.102 0.625398 109.417L 6.48256 102.583ZM 5.57526 94.3019L 41.0561 49.711L 34.0136 44.1073L -1.46731 88.6981L 5.57526 94.3019ZM 44.0428 43.8536L 55.8898 1.2044L 47.2181 -1.2044L 35.3711 41.4448L 44.0428 43.8536ZM 54.4803 50.6324C 54.1784 51.5192 53.8969 52.0267 53.3047 52.7525L 60.3668 58.3316C 61.3881 57.0149 62.3772 55.2311 62.9531 53.6675L 54.4803 50.6324ZM 41.0561 49.711C 42.3215 48.0845 43.4695 45.833 44.0428 43.8536L 35.3711 41.4448C 35.0826 42.5681 34.7532 43.214 34.0136 44.1073L 41.0561 49.711Z"/>
<path id="path1_stroke" d="M 30.5 17L 32.7816 13.1213L 32.7365 13.0948L 32.6909 13.0693L 30.5 17ZM 22 34.5L 19.777 38.4126L 20.1909 38.6478L 20.6449 38.7911L 22 34.5ZM 0 22L -4.5 22L -4.5 24.6188L -2.22304 25.9126L 0 22ZM -0.704004 4.75941L 28.3091 20.9307L 32.6909 13.0693L 3.67772 -3.10192L -0.704004 4.75941ZM 24.223 30.5874L 2.22304 18.0874L -2.22304 25.9126L 19.777 38.4126L 24.223 30.5874ZM 4.5 22L 4.5 1.70222L -4.5 1.70222L -4.5 22L 4.5 22ZM 30.5 17C 28.2184 20.8787 28.2168 20.8778 28.2152 20.8768C 28.2147 20.8765 28.2132 20.8756 28.2122 20.875C 28.213 20.8755 28.205 20.8708 28.2067 20.8718C 28.2079 20.8725 28.1954 20.8651 28.1978 20.8665C 28.1983 20.8668 28.1873 20.8602 28.1885 20.8609C 28.1819 20.8569 28.1902 20.8618 28.2017 20.8691C 28.2431 20.8951 28.2706 20.9124 28.3413 20.9605C 28.521 21.0813 28.6914 21.2006 28.9607 21.4181C 29.5807 21.9101 30.1145 22.3765 30.6752 23.1606C 31.6651 24.4868 32.1251 25.8766 31.1993 27.79L 39.3007 31.71C 42.1249 25.8734 40.2099 20.8882 37.8873 17.7769C 36.7918 16.3422 35.4349 15.0743 34.5784 14.3866C 34.1094 14.0142 33.645 13.6824 33.3746 13.4995C 33.2202 13.3957 33.0686 13.2981 32.9874 13.247C 32.9375 13.2157 32.8853 13.1836 32.86 13.1682C 32.8428 13.1578 32.8231 13.1459 32.8145 13.1408C 32.8079 13.1369 32.7997 13.132 32.7964 13.13C 32.7937 13.1284 32.79 13.1262 32.7886 13.1254C 32.7874 13.1247 32.7856 13.1237 32.785 13.1233C 32.7833 13.1223 32.7816 13.1213 30.5 17ZM 31.1993 27.79C 30.2465 29.7591 28.7119 30.4031 26.8736 30.5445C 25.8524 30.641 25.0947 30.5483 24.2916 30.4104C 23.9376 30.3523 23.7239 30.3028 23.5088 30.2486C 23.4229 30.2273 23.3887 30.2178 23.3404 30.204C 23.3264 30.2 23.3155 30.1966 23.3233 30.199C 23.3222 30.1987 23.3332 30.202 23.3329 30.2019C 23.3302 30.2011 23.3437 30.2053 23.3424 30.2049C 23.3405 30.2043 23.3492 30.207 23.3483 30.2067C 23.3494 30.2071 23.3511 30.2076 23.3516 30.2078C 23.3533 30.2083 23.3551 30.2089 22 34.5C 20.6449 38.7911 20.6467 38.7917 20.6486 38.7923C 20.6493 38.7925 20.6512 38.7931 20.6525 38.7935C 20.654 38.794 20.6581 38.7953 20.6611 38.7962C 20.6647 38.7973 20.6737 38.8001 20.6809 38.8024C 20.6905 38.8053 20.7123 38.812 20.7315 38.8177C 20.7598 38.8263 20.8183 38.8435 20.8748 38.8596C 20.9675 38.886 21.1411 38.9333 21.3222 38.9789C 21.6413 39.0585 22.1991 39.1828 22.7943 39.2849C 23.8897 39.4673 25.7414 39.6403 27.5639 39.518C 31.4131 39.2219 36.5035 37.4909 39.3007 31.71L 31.1993 27.79ZM 3.67772 -3.10192C 0.0116788 -5.14529 -4.5 -2.49483 -4.5 1.70222L 4.5 1.70222C 4.5 4.37307 1.62893 6.05973 -0.704004 4.75941L 3.67772 -3.10192Z"/>
<path id="path2_stroke" d="M 33.7054 0.303214L 30.4777 -2.83232L 33.7054 0.303214ZM 0 73.5L -4.5 73.5L -4.5 73.7987L -4.46053 74.0947L 0 73.5ZM 17.5 73.5L 21.9126 74.3825L 22 73.9456L 22 73.5L 17.5 73.5ZM 34.2745 25.3187L 31.0099 22.2216L 34.2745 25.3187ZM 36 82.5L 31.5 82.5L 31.5 84.3063L 32.7489 85.6113L 36 82.5ZM 80.3184 128.81L 77.0672 131.921L 80.3184 128.81ZM 93.5 180L 97.9035 179.073L 97.884 178.98L 97.8606 178.888L 93.5 180ZM 113.5 180L 118 180L 118 179.473L 117.878 178.959L 113.5 180ZM 99.0541 119.228L 94.6761 120.268L 99.0541 119.228ZM 74.5 89.5L 70 89.5L 70 91.125L 71.0382 92.3751L 74.5 89.5ZM 61.5 0L 62.0582 -4.46525L 61.7802 -4.5L 61.5 -4.5L 61.5 0ZM 18.5981 41.8425L 21.8627 44.9397L 18.5981 41.8425ZM 80.5649 129.255L 84.9255 128.143L 80.5649 129.255ZM 98.8505 118.82L 95.3887 121.695L 98.8505 118.82ZM 30.4777 -2.83232L -0.683272 29.2451L 5.77224 35.5162L 36.9332 3.43875L 30.4777 -2.83232ZM -4.5 38.6517L -4.5 73.5L 4.5 73.5L 4.5 38.6517L -4.5 38.6517ZM 0 73.5C -4.46053 74.0947 -4.46024 74.0969 -4.45994 74.0991C -4.45984 74.0999 -4.45954 74.1021 -4.45933 74.1037C -4.4591 74.1053 -4.45846 74.11 -4.45801 74.1133C -4.45748 74.1172 -4.45608 74.1273 -4.455 74.1349C -4.45366 74.1444 -4.4503 74.1676 -4.44747 74.1867C -4.44351 74.2131 -4.4344 74.2715 -4.42571 74.324C -4.41213 74.4051 -4.38287 74.5671 -4.35091 74.725C -4.29621 74.99 -4.18039 75.4787 -4.03678 75.9649C -3.77463 76.8279 -3.17782 78.3317 -2.36419 79.6577C -0.528214 82.5566 2.9046 85.5 8.5 85.5L 8.5 76.5C 6.5954 76.5 5.77821 75.6934 5.23919 74.8423C 4.86532 74.2933 4.74338 73.9221 4.58366 73.3788C 4.51633 73.162 4.49543 73.0646 4.46615 72.9196C 4.45611 72.8723 4.45656 72.8733 4.45183 72.8444C 4.45137 72.8421 4.45338 72.8543 4.45366 72.8563C 4.45295 72.8515 4.45684 72.8783 4.45651 72.876C 4.45594 72.8719 4.45865 72.8914 4.45838 72.8894C 4.45805 72.887 4.45958 72.8982 4.45942 72.897C 4.4596 72.8983 4.45987 72.9004 4.45996 72.9011C 4.46024 72.9031 4.46053 72.9053 0 73.5ZM 8.5 85.5C 14.0506 85.5 17.5548 82.608 19.499 79.8306C 20.3811 78.5359 21.0576 77.074 21.3734 76.221C 21.5468 75.7421 21.6922 75.2634 21.7638 75.001C 21.8056 74.8456 21.8449 74.6868 21.8636 74.6068C 21.8756 74.5551 21.8883 74.4981 21.8939 74.4721C 21.8979 74.4535 21.9027 74.4309 21.9046 74.4216C 21.9062 74.4141 21.9082 74.4043 21.909 74.4006C 21.9096 74.3973 21.9105 74.3928 21.9109 74.3912C 21.9112 74.3897 21.9116 74.3875 21.9118 74.3868C 21.9122 74.3846 21.9126 74.3825 17.5 73.5C 13.0874 72.6175 13.0878 72.6154 13.0882 72.6134C 13.0883 72.6128 13.0887 72.6108 13.089 72.6095C 13.0888 72.6107 13.091 72.5998 13.0905 72.6022C 13.0901 72.6041 13.0939 72.5855 13.0931 72.5893C 13.0927 72.5914 13.098 72.5664 13.097 72.5709C 13.0975 72.5685 13.0999 72.5584 13.099 72.5617C 13.0922 72.5915 13.0918 72.5939 13.078 72.6435C 13.0383 72.7913 13.0078 72.8986 12.9235 73.1227C 12.7237 73.676 12.5564 74.0891 12.126 74.6694C 11.4452 75.642 10.4494 76.5 8.5 76.5L 8.5 85.5ZM 22 73.5L 22 44.5955L 13 44.5955L 13 73.5L 22 73.5ZM 21.8627 44.9397L 37.5391 28.4159L 31.0099 22.2216L 15.3336 38.7453L 21.8627 44.9397ZM 31.5 26.007L 31.5 82.5L 40.5 82.5L 40.5 26.007L 31.5 26.007ZM 32.7489 85.6113L 77.0672 131.921L 83.5695 125.699L 39.2511 79.3887L 32.7489 85.6113ZM 76.2043 130.366L 89.1394 181.112L 97.8606 178.888L 84.9255 128.143L 76.2043 130.366ZM 93.5 180C 89.0965 180.927 89.0969 180.929 89.0974 180.931C 89.0975 180.932 89.098 180.934 89.0983 180.935C 89.0986 180.937 89.0995 180.941 89.1002 180.944C 89.101 180.948 89.1031 180.958 89.1048 180.966C 89.107 180.975 89.1121 180.999 89.1165 181.018C 89.1231 181.047 89.1371 181.108 89.151 181.166C 89.1737 181.259 89.2184 181.435 89.2682 181.614C 89.3558 181.928 89.5241 182.474 89.7306 183.04C 90.1138 184.073 90.8859 185.761 91.9111 187.291C 94.113 190.509 98.1042 194 104.5 194L 104.5 185C 101.896 185 100.387 183.741 99.3389 182.209C 98.7391 181.364 98.4487 180.677 98.1757 179.929C 98.054 179.604 97.9958 179.408 97.9389 179.202C 97.9163 179.122 97.9094 179.094 97.8983 179.048C 97.8953 179.036 97.894 179.029 97.8955 179.036C 97.8951 179.034 97.8984 179.049 97.8982 179.048C 97.8975 179.045 97.9008 179.06 97.9005 179.059C 97.9001 179.057 97.9021 179.067 97.9019 179.066C 97.9022 179.067 97.9025 179.069 97.9027 179.069C 97.9031 179.071 97.9035 179.073 93.5 180ZM 104.5 194C 111.073 194 114.727 190.297 116.442 186.676C 117.184 185.052 117.634 183.245 117.804 182.186C 117.894 181.602 117.95 181.032 117.972 180.712C 117.984 180.527 117.992 180.344 117.996 180.249C 117.997 180.189 117.999 180.126 117.999 180.096C 118 180.075 118 180.051 118 180.041C 118 180.033 118 180.022 118 180.019C 118 180.015 118 180.01 118 180.009C 118 180.007 118 180.005 118 180.004C 118 180.002 118 180 113.5 180C 109 180 109 179.998 109 179.996C 109 179.995 109 179.993 109 179.992C 109 179.993 109 179.983 109 179.985C 109 179.987 109 179.97 109 179.973C 109 179.974 109 179.956 109 179.958C 109 179.952 109 179.955 109 179.965C 108.999 180.008 108.998 180.03 108.993 180.104C 108.98 180.304 108.965 180.476 108.914 180.783C 108.804 181.505 108.691 182.073 108.308 182.824C 107.773 183.953 106.927 185 104.5 185L 104.5 194ZM 117.878 178.959L 103.432 118.187L 94.6761 120.268L 109.122 181.041L 117.878 178.959ZM 102.312 115.945L 77.9618 86.6249L 71.0382 92.3751L 95.3887 121.695L 102.312 115.945ZM 79 89.5L 79 15.5L 70 15.5L 70 89.5L 79 89.5ZM 74.5 15.5C 79 15.5 79 15.498 79 15.496C 79 15.4953 79 15.4932 79 15.4918C 79 15.4904 79 15.4862 79 15.4832C 79 15.4799 78.9999 15.471 78.9999 15.4645C 78.9998 15.4567 78.9996 15.4369 78.9994 15.4212C 78.9991 15.4007 78.9981 15.3532 78.997 15.312C 78.9952 15.2515 78.9901 15.1259 78.9831 15.0059C 78.9712 14.8107 78.9402 14.4435 78.8929 14.0668C 78.8068 13.408 78.5953 12.2657 78.2477 11.0819C 77.591 8.92675 76.0194 5.54205 73.3448 2.48966L 66.6552 8.51034C 68.4806 10.458 69.159 12.0732 69.6273 13.6681C 69.8422 14.3593 69.9119 14.7795 69.9664 15.2145C 69.9895 15.3846 69.9937 15.4472 69.9993 15.5449C 70.0011 15.5714 70.0012 15.5884 70.0008 15.5732C 70.0008 15.5765 70.0003 15.5485 70.0003 15.5498C 70.0004 15.5558 70.0001 15.5253 70.0001 15.5282C 70.0001 15.5324 70 15.5129 70 15.515C 70 15.5173 70 15.5065 70 15.5077C 70 15.5065 70 15.5045 70 15.5039C 70 15.502 70 15.5 74.5 15.5ZM 73.3448 2.48966C 70.6701 -0.423917 67.8254 -2.30034 66.0098 -3.18185C 64.985 -3.66502 63.9763 -4.01596 63.4115 -4.1763C 63.0744 -4.26929 62.73 -4.34792 62.5562 -4.38276C 62.4429 -4.40488 62.3168 -4.42696 62.2598 -4.4362C 62.2183 -4.44278 62.1675 -4.45039 62.1468 -4.45336C 62.13 -4.45573 62.1077 -4.45879 62.0994 -4.45991C 62.092 -4.4609 62.0817 -4.46225 62.078 -4.46273C 62.0746 -4.46317 62.0696 -4.46381 62.0679 -4.46402C 62.0662 -4.46423 62.0638 -4.46454 62.063 -4.46465C 62.0606 -4.46495 62.0582 -4.46525 61.5 0C 60.9418 4.46525 60.9395 4.46495 60.9371 4.46466C 60.9364 4.46456 60.934 4.46427 60.9325 4.46407C 60.934 4.46426 60.9205 4.46253 60.9235 4.46291C 60.9262 4.46327 60.901 4.45995 60.9065 4.46068C 60.9109 4.46128 60.8674 4.45526 60.8765 4.45654C 60.8818 4.45731 60.8212 4.44817 60.8323 4.44987C 60.8285 4.44935 60.8003 4.44395 60.8052 4.44526C 60.8677 4.4573 60.8709 4.45679 60.9792 4.4888C 61.305 4.57846 61.5775 4.66502 62.1152 4.93185C 63.4246 5.55034 64.8299 6.42392 66.6552 8.51034L 73.3448 2.48966ZM 61.5 -4.5L 34.4227 -4.5L 34.4227 4.5L 61.5 4.5L 61.5 -4.5ZM 36.9332 3.43875C 36.2742 4.11719 35.3686 4.5 34.4227 4.5L 34.4227 -4.5C 32.9364 -4.5 31.5133 -3.89844 30.4777 -2.83232L 36.9332 3.43875ZM -0.683272 29.2451C -3.13086 31.7647 -4.5 35.1391 -4.5 38.6517L 4.5 38.6517C 4.5 37.4809 4.95638 36.3561 5.77224 35.5162L -0.683272 29.2451ZM 22 44.5955C 22 44.7236 21.9509 44.8468 21.8627 44.9397L 15.3336 38.7453C 13.8353 40.3246 13 42.4186 13 44.5955L 22 44.5955ZM 37.5391 28.4159C 35.3623 30.7104 31.5 29.1698 31.5 26.007L 40.5 26.007C 40.5 21.0369 34.4306 18.616 31.0099 22.2216L 37.5391 28.4159ZM 77.0672 131.921C 76.6505 131.486 76.3532 130.95 76.2043 130.366L 84.9255 128.143C 84.7046 127.427 84.0603 126.265 83.5695 125.699L 77.0672 131.921ZM 103.432 118.187C 103.248 117.542 102.717 116.479 102.312 115.945L 95.3887 121.695C 95.0445 121.281 94.8007 120.792 94.6761 120.268L 103.432 118.187Z"/>
<path id="path3_fill" d="M 56 28C 56 43.464 43.464 56 28 56C 12.536 56 0 43.464 0 28C 0 12.536 12.536 0 28 0C 43.464 0 56 12.536 56 28Z"/>
<path id="path4_stroke_2x" d="M 47 28C 47 38.4934 38.4934 47 28 47L 28 65C 48.4345 65 65 48.4345 65 28L 47 28ZM 28 47C 17.5066 47 9 38.4934 9 28L -9 28C -9 48.4345 7.56546 65 28 65L 28 47ZM 9 28C 9 17.5066 17.5066 9 28 9L 28 -9C 7.56546 -9 -9 7.56546 -9 28L 9 28ZM 28 9C 38.4934 9 47 17.5066 47 28L 65 28C 65 7.56546 48.4345 -9 28 -9L 28 9Z"/>
</defs>
</svg>
