<svg width="234" height="187" viewBox="0 0 234 187" version="1.1" xmlns="http://www.w3.org/2000/svg" xmlns:xlink="http://www.w3.org/1999/xlink">
<title>Bath</title>
<desc>Created using Figma</desc>
<g id="Canvas" transform="translate(639 777)">
<clipPath id="clip-0" clip-rule="evenodd">
<path d="M -639 -777L -405 -777L -405 -590L -639 -590L -639 -777Z" fill="#FFFFFF"/>
</clipPath>
<g id="Bath" clip-path="url(#clip-0)">
<g id="Rectangle">
<mask id="mask0_outline_ins">
<use xlink:href="#path0_fill" fill="white" transform="translate(-639 -677)"/>
</mask>
<g mask="url(#mask0_outline_ins)">
<use xlink:href="#path1_stroke_2x" transform="translate(-639 -677)" fill="#1B87E5"/>
</g>
</g>
<g id="Rectangle 2">
<mask id="mask1_outline_ins">
<use xlink:href="#path2_fill" fill="white" transform="translate(-614 -662)"/>
</mask>
<g mask="url(#mask1_outline_ins)">
<use xlink:href="#path3_stroke_2x" transform="translate(-614 -662)" fill="#1B87E5"/>
</g>
</g>
<g id="Vector 3">
<use xlink:href="#path4_stroke" transform="translate(-584.5 -597.5)" fill="#1B87E5"/>
</g>
<g id="Vector 3">
<use xlink:href="#path4_stroke" transform="translate(-472 -597.5)" fill="#1B87E5"/>
</g>
<g id="Vector 3">
<use xlink:href="#path5_stroke" transform="matrix(0.707107 0.707107 -0.707107 0.707107 -509.023 -759.773)" fill="#1B87E5"/>
</g>
<g id="Vector 4">
<use xlink:href="#path6_stroke" transform="translate(-493 -771)" fill="#1B87E5"/>
</g>
<g id="Group">
<g id="Union">
<use xlink:href="#path7_fill" transform="translate(-586 -727)" fill="#1B87E5"/>
</g>
</g>
</g>
</g>
<defs>
<path id="path0_fill" d="M 0 12C 0 5.37258 5.37258 0 12 0L 222 0C 228.627 0 234 5.37258 234 12L 234 12C 234 18.6274 228.627 24 222 24L 12 24C 5.37258 24 0 18.6274 0 12L 0 12Z"/>
<path id="path1_stroke_2x" d="M 12 9L 222 9L 222 -9L 12 -9L 12 9ZM 222 15L 12 15L 12 33L 222 33L 222 15ZM 12 -9C 0.40202 -9 -9 0.40202 -9 12L 9 12C 9 10.3431 10.3431 9 12 9L 12 -9ZM 222 9C 223.657 9 225 10.3431 225 12L 243 12C 243 0.402021 233.598 -9 222 -9L 222 9ZM 225 12C 225 13.6569 223.657 15 222 15L 222 33C 233.598 33 243 23.598 243 12L 225 12ZM 12 15C 10.3431 15 9 13.6569 9 12L -9 12C -9 23.598 0.40202 33 12 33L 12 15Z"/>
<path id="path2_fill" d="M 0 0L 184 0L 184 22C 184 41.33 168.33 57 149 57L 35 57C 15.67 57 0 41.33 0 22L 0 0Z"/>
<path id="path3_stroke_2x" d="M 0 0L 0 -9L -9 -9L -9 0L 0 0ZM 184 0L 193 0L 193 -9L 184 -9L 184 0ZM 0 9L 184 9L 184 -9L 0 -9L 0 9ZM 175 0L 175 22L 193 22L 193 0L 175 0ZM 149 48L 35 48L 35 66L 149 66L 149 48ZM 9 22L 9 0L -9 0L -9 22L 9 22ZM 175 22C 175 36.3594 163.359 48 149 48L 149 66C 173.301 66 193 46.3005 193 22L 175 22ZM 35 48C 20.6406 48 9 36.3594 9 22L -9 22C -9 46.3005 10.6995 66 35 66L 35 48Z"/>
<path id="path4_stroke" d="M 0 -4.5C -2.48528 -4.5 -4.5 -2.48528 -4.5 0C -4.5 2.48528 -2.48528 4.5 0 4.5L 0 -4.5ZM 13.5 4.5C 15.9853 4.5 18 2.48528 18 0C 18 -2.48528 15.9853 -4.5 13.5 -4.5L 13.5 4.5ZM 0 4.5L 13.5 4.5L 13.5 -4.5L 0 -4.5L 0 4.5Z"/>
<path id="path5_stroke" d="M 0 -4.5C -2.48528 -4.5 -4.5 -2.48528 -4.5 0C -4.5 2.48528 -2.48528 4.5 0 4.5L 0 -4.5ZM 35.5 4.5C 37.9853 4.5 40 2.48528 40 0C 40 -2.48528 37.9853 -4.5 35.5 -4.5L 35.5 4.5ZM 0 4.5L 35.5 4.5L 35.5 -4.5L 0 -4.5L 0 4.5Z"/>
<path id="path6_stroke" d="M 19.1804 0.324195L 22.4972 3.36532L 22.4972 3.36531L 19.1804 0.324195ZM 62.5 94.5L 62.5 1L 53.5 1L 53.5 94.5L 62.5 94.5ZM 57 -4.5L 19.9174 -4.5L 19.9174 4.5L 57 4.5L 57 -4.5ZM 15.8635 -2.71693L -3.31686 18.2025L 3.31686 24.2848L 22.4972 3.36532L 15.8635 -2.71693ZM 62.5 1C 62.5 -2.03757 60.0376 -4.5 57 -4.5L 57 4.5C 55.067 4.5 53.5 2.933 53.5 1L 62.5 1ZM 19.9174 -4.5C 18.376 -4.5 16.9052 -3.85312 15.8635 -2.71692L 22.4972 3.36531C 21.8343 4.08835 20.8984 4.5 19.9174 4.5L 19.9174 -4.5Z"/>
<path id="path7_fill" fill-rule="evenodd" d="M 85 29C 85 31.0162 84.7017 32.9628 84.1467 34.7979C 85.42 34.0371 86.9089 33.6 88.5 33.6C 90.3779 33.6 92.1135 34.2089 93.5202 35.2402C 93.9149 27.8615 100.023 22 107.5 22C 115.232 22 121.5 28.268 121.5 36C 121.5 43.732 115.232 50 107.5 50C 103.082 50 99.1422 47.9537 96.5764 44.7573C 95.5775 47.795 92.9126 50.0766 89.6626 50.5211C 93.8801 55.6955 100.304 59 107.5 59C 120.203 59 130.5 48.7026 130.5 36C 130.5 23.2974 120.203 13 107.5 13C 101.613 13 96.2423 15.2119 92.1741 18.8499C 88.0597 7.8396 77.4454 0 65 0C 55.4953 0 47.0585 4.57257 41.7695 11.6379C 39.2508 5.40088 33.1393 1 26 1C 16.6111 1 9 8.61115 9 18C 9 20.9227 9.73755 23.6732 11.0367 26.0753C 4.58936 28.4907 0 34.7094 0 42C 0 51.3889 7.61115 59 17 59C 22.7053 59 27.7541 56.1896 30.8376 51.8776C 33.9245 55.038 38.2332 57 43 57C 46.1162 57 49.0366 56.1616 51.5479 54.6979C 55.5684 56.8069 60.1449 58 65 58C 72.8077 58 79.8948 54.9146 85.1083 49.8964C 82.1387 48.6027 80.0517 45.6619 80.0009 42.228C 76.3362 46.3807 70.974 49 65 49C 62.5814 49 60.2631 48.5707 58.1171 47.7841C 55.201 46.7153 52.603 44.9868 50.504 42.7793C 49.3845 45.8009 46.4922 47.962 43.0901 47.9995L 43.0773 47.9996C 43.0516 47.9999 43.0258 48 43 48C 38.5817 48 35 44.4183 35 40C 35 38.1691 35.6151 36.4818 36.6498 35.1335C 38.1121 33.2283 40.4127 32 43 32C 43.7906 32 44.5544 32.1147 45.2757 32.3283C 45.0944 31.2458 45 30.134 45 29C 45 26.9964 45.2946 25.0616 45.8429 23.2366C 48.3173 15.0004 55.9579 9 65 9C 76.0457 9 85 17.9543 85 29ZM 26 26C 30.4183 26 34 22.4183 34 18C 34 13.5817 30.4183 10 26 10C 21.5817 10 18 13.5817 18 18C 18 22.4183 21.5817 26 26 26ZM 17 50C 21.4183 50 25 46.4183 25 42C 25 37.5817 21.4183 34 17 34C 12.5817 34 9 37.5817 9 42C 9 46.4183 12.5817 50 17 50Z"/>
</defs>
</svg>
