<svg width="230" height="157" viewBox="0 0 230 157" version="1.1" xmlns="http://www.w3.org/2000/svg" xmlns:xlink="http://www.w3.org/1999/xlink">
<title>Car</title>
<desc>Created using Figma</desc>
<g id="Canvas" transform="translate(6 398)">
<g id="Car">
<g id="Vector 5">
<use xlink:href="#path0_stroke" transform="translate(91.5 -392)" fill="#1B87E5"/>
</g>
<g id="Rectangle 4">
<mask id="mask0_outline_ins">
<use xlink:href="#path1_fill" fill="white" transform="translate(6 -398)"/>
</mask>
<g mask="url(#mask0_outline_ins)">
<use xlink:href="#path2_stroke_2x" transform="translate(6 -398)" fill="#1B87E5"/>
</g>
</g>
<g id="Vector 3">
<use xlink:href="#path3_stroke" transform="translate(48 -320.5)" fill="#1B87E5"/>
</g>
<g id="Vector 3">
<use xlink:href="#path3_stroke" transform="translate(109 -320.5)" fill="#1B87E5"/>
</g>
<g id="Subtract">
<use xlink:href="#path4_fill" transform="translate(-6 -343)" fill="#1B87E5"/>
</g>
<g id="Ellipse 3">
<mask id="mask1_outline_ins">
<use xlink:href="#path5_fill" fill="white" transform="translate(143 -297)"/>
</mask>
<g mask="url(#mask1_outline_ins)">
<use xlink:href="#path6_stroke_2x" transform="translate(143 -297)" fill="#1B87E5"/>
</g>
</g>
<g id="Ellipse 3">
<mask id="mask2_outline_ins">
<use xlink:href="#path5_fill" fill="white" transform="translate(22 -297)"/>
</mask>
<g mask="url(#mask2_outline_ins)">
<use xlink:href="#path6_stroke_2x" transform="translate(22 -297)" fill="#1B87E5"/>
</g>
</g>
</g>
</g>
<defs>
<path id="path0_stroke" d="M 4.5 0C 4.5 -2.48528 2.48528 -4.5 0 -4.5C -2.48528 -4.5 -4.5 -2.48528 -4.5 0L 4.5 0ZM -4.5 35.5C -4.5 37.9853 -2.48528 40 0 40C 2.48528 40 4.5 37.9853 4.5 35.5L -4.5 35.5ZM -4.5 0L -4.5 35.5L 4.5 35.5L 4.5 0L -4.5 0Z"/>
<path id="path1_fill" d="M 24.4394 17.1539C 25.9385 7.31315 34.3758 0 44.3301 0L 126.681 0C 136.973 0 146.098 6.55813 149.721 16.1909C 155.828 32.4241 165.194 55.0359 170 55.1C 176.5 60.1 180 66 180 66C 180 66 174 64 169 63.5C 106 63.5 0 64 0 64C 0 64 17.9615 55.7576 18.9565 50.4242C 20.7764 40.6698 22.8542 27.5608 24.4394 17.1539Z"/>
<path id="path2_stroke_2x" d="M 180 66L 177.154 74.5381L 200.059 82.173L 187.74 61.4082L 180 66ZM 0 64L -3.75368 55.8202L 0.0424524 72.9999L 0 64ZM 18.9565 50.4242L 10.1092 48.7736L 18.9565 50.4242ZM 170 55.1L 175.487 47.9664L 173.114 46.1407L 170.12 46.1008L 170 55.1ZM 169 63.5L 169.896 54.5447L 169.449 54.5L 169 54.5L 169 63.5ZM 149.721 16.1909L 141.298 19.3599L 149.721 16.1909ZM 44.3301 9L 126.681 9L 126.681 -9L 44.3301 -9L 44.3301 9ZM 0 64C 3.75368 72.1798 3.75465 72.1794 3.75568 72.1789C 3.75612 72.1787 3.75722 72.1782 3.7581 72.1778C 3.75925 72.1773 3.76187 72.1761 3.76417 72.175C 3.76756 72.1735 3.77448 72.1703 3.78124 72.1672C 3.79235 72.162 3.81271 72.1526 3.83473 72.1424C 3.87385 72.1243 3.93996 72.0936 4.01637 72.0578C 4.1591 71.991 4.38673 71.8837 4.6565 71.7548C 5.17487 71.5068 5.96353 71.1234 6.87093 70.6666C 8.64046 69.7748 11.183 68.4351 13.6842 66.9602C 16.1673 65.4899 19.1082 63.5501 21.3429 61.7041C 23.0995 60.2375 26.9042 56.897 27.8039 52.0749L 10.1092 48.7736C 10.5113 46.6181 11.6977 46.308 9.8067 47.8868C 8.3938 49.0863 6.65766 50.2071 4.5261 51.4641C 2.4125 52.7164 0.402474 53.7706 -1.22687 54.591C -2.0189 54.9902 -2.64126 55.2924 -3.10904 55.5161C -3.33235 55.6229 -3.49159 55.6979 -3.61245 55.7544C -3.66784 55.7804 -3.70271 55.7966 -3.73162 55.8099C -3.74362 55.8155 -3.74903 55.818 -3.7552 55.8208C -3.75707 55.8217 -3.75859 55.8224 -3.75763 55.822C -3.75775 55.822 -3.7564 55.8214 -3.75646 55.8214C -3.75613 55.8213 -3.75543 55.821 -3.75527 55.8209C -3.75451 55.8205 -3.75368 55.8202 0 64ZM 27.8039 52.0749C 29.6454 42.1997 31.7474 28.9429 33.3368 18.5092L 15.5421 15.7986C 13.9609 26.1787 11.9074 39.1399 10.1092 48.7736L 27.8039 52.0749ZM 141.298 19.3599C 144.382 27.5573 148.403 37.6395 152.24 45.6156C 154.19 49.6546 156.347 53.608 158.263 56.3989C 159.307 57.8942 160.767 59.6399 161.974 60.761C 163.192 61.8587 165.943 64.0467 169.88 64.0992L 170.12 46.1008C 171.58 46.1203 172.643 46.5576 173.187 46.8396C 173.729 47.1201 174.007 47.3746 174.025 47.3901C 174.274 47.5814 173.667 47.0407 173.062 46.1535C 171.68 44.1794 170.213 41.4533 168.456 37.8021C 164.882 30.398 161.168 21.0577 158.145 13.022L 141.298 19.3599ZM 164.513 62.2336C 167.168 64.2337 168.923 66.189 170.422 68.0625C 171.113 68.9174 171.544 69.5229 171.912 70.0643C 172.07 70.2964 172.151 70.4223 172.234 70.5534C 172.264 70.6004 172.269 70.6086 172.285 70.6341C 172.287 70.6377 172.283 70.6311 172.282 70.629C 172.284 70.6324 172.272 70.6128 172.273 70.6145C 172.275 70.6176 172.266 70.6026 172.267 70.6042C 172.268 70.6061 172.263 70.5973 172.263 70.5983C 172.263 70.5972 172.262 70.5956 172.261 70.5951C 172.26 70.5935 172.26 70.5918 180 66C 187.74 61.4082 187.739 61.4065 187.738 61.4048C 187.738 61.4042 187.737 61.4024 187.736 61.4012C 187.736 61.3999 187.733 61.3963 187.732 61.3937C 187.73 61.3907 187.725 61.3829 187.722 61.3769C 187.717 61.3696 187.707 61.3516 187.698 61.3369C 187.685 61.3164 187.658 61.2717 187.633 61.2309C 187.595 61.1676 187.518 61.0442 187.44 60.92C 187.306 60.7089 187.063 60.3349 186.792 59.9357C 186.3 59.2146 185.449 58.0326 184.453 56.7875C 182.577 54.461 179.332 50.9663 175.487 47.9664L 164.513 62.2336ZM 180 66C 182.846 57.4619 182.845 57.4616 182.845 57.4613C 182.844 57.4612 182.843 57.461 182.843 57.4608C 182.842 57.4606 182.84 57.46 182.839 57.4595C 182.837 57.459 182.833 57.4576 182.83 57.4565C 182.825 57.4549 182.815 57.4514 182.805 57.4482C 182.789 57.4431 182.76 57.4333 182.729 57.4232C 182.675 57.4057 182.582 57.3754 182.477 57.3418C 182.284 57.2802 181.971 57.1812 181.609 57.0709C 180.922 56.8615 179.855 56.5495 178.678 56.2372C 176.399 55.6354 172.948 54.8672 169.896 54.5447L 168.104 72.4553C 170.052 72.6328 172.101 73.1146 174.072 73.6378C 175.02 73.888 175.766 74.1072 176.36 74.2885C 176.639 74.3735 176.833 74.4347 176.988 74.4843C 177.057 74.5064 177.097 74.5196 177.134 74.5316C 177.148 74.5363 177.153 74.5378 177.16 74.5403C 177.162 74.5409 177.162 74.5409 177.161 74.5406C 177.162 74.5408 177.158 74.5397 177.159 74.5397C 177.159 74.5399 177.156 74.5389 177.157 74.539C 177.156 74.5389 177.156 74.5387 177.155 74.5386C 177.155 74.5384 177.154 74.5381 180 66ZM 169 54.5C 137.487 54.5 95.2203 54.625 60.8423 54.7501C 43.6527 54.8126 28.431 54.8751 17.5082 54.922C 12.0466 54.9454 7.65882 54.9649 4.63701 54.9786C 3.12596 54.9854 1.95608 54.9908 1.16418 54.9945C 0.768167 54.9963 0.466504 54.9977 0.26395 54.9987C 0.16264 54.9991 0.0860384 54.9995 0.0348153 54.9997C 0.0091871 54.9999 -0.0101301 54.9999 -0.0230151 55C -0.0294659 55 -0.0343253 55.0001 -0.0375595 55.0001C -0.0391808 55.0001 -0.040404 55.0001 -0.0412157 55.0001C -0.0420357 55.0001 -0.0424524 55.0001 0 64C 0.0424524 72.9999 0.0428444 72.9999 0.0436396 72.9999C 0.0444431 72.9999 0.0456416 72.9999 0.0472464 72.9999C 0.0504641 72.9999 0.0552738 72.9998 0.0616914 72.9998C 0.0745432 72.9997 0.0937601 72.9997 0.119321 72.9995C 0.170477 72.9993 0.246875 72.9989 0.348049 72.9985C 0.550464 72.9975 0.851706 72.9961 1.24744 72.9943C 2.03904 72.9906 3.20802 72.9853 4.71846 72.9784C 7.73962 72.9648 12.1253 72.9452 17.5855 72.9218C 28.5065 72.8749 43.7223 72.8124 60.9077 72.7499C 95.2797 72.625 137.513 72.5 169 72.5L 169 54.5ZM 44.3301 -9C 29.8878 -9 17.7047 1.60181 15.5421 15.7986L 33.3368 18.5092C 34.1723 13.0245 38.8638 9 44.3301 9L 44.3301 -9ZM 126.681 9C 133.079 9 138.941 13.0963 141.298 19.3599L 158.145 13.022C 153.254 0.0200117 140.867 -9 126.681 -9L 126.681 9Z"/>
<path id="path3_stroke" d="M 0 -4.5C -2.48528 -4.5 -4.5 -2.48528 -4.5 0C -4.5 2.48528 -2.48528 4.5 0 4.5L 0 -4.5ZM 17.5 4.5C 19.9853 4.5 22 2.48528 22 0C 22 -2.48528 19.9853 -4.5 17.5 -4.5L 17.5 4.5ZM 0 4.5L 17.5 4.5L 17.5 -4.5L 0 -4.5L 0 4.5Z"/>
<path id="path4_fill" fill-rule="evenodd" d="M 220.042 65.719L 217.057 23.3208C 216.736 18.7702 213.377 15.0133 208.89 14.1882L 185.343 9.85767C 182.107 9.25317 179.229 8.99069 175.937 9L 15 9C 11.6863 9 9 11.6863 9 15L 9 64C 9 67.3137 11.6863 70 15 70L 28.2836 70C 28.0967 71.3064 28 72.6419 28 74C 28 75.7066 28.1527 77.3776 28.4451 79L 15 79C 6.71573 79 0 72.2843 0 64L 0 15C 0 6.71573 6.71573 0 15 0L 175.937 0C 179.638 0 183.331 0.336761 186.971 1.00613L 210.518 5.33664C 219.042 6.90436 225.426 14.0424 226.034 22.6885L 229.02 65.0868C 229.55 72.6074 223.592 79 216.052 79L 204.555 79C 204.847 77.3776 205 75.7066 205 74C 205 72.6419 204.903 71.3064 204.716 70L 216.052 70C 218.372 70 220.205 68.0331 220.042 65.719ZM 83.5549 79L 149.445 79C 149.153 77.3776 149 75.7066 149 74C 149 72.6419 149.097 71.3064 149.284 70L 83.7164 70C 83.9033 71.3064 84 72.6419 84 74C 84 75.7066 83.8473 77.3776 83.5549 79Z"/>
<path id="path5_fill" d="M 56 28C 56 43.464 43.464 56 28 56C 12.536 56 0 43.464 0 28C 0 12.536 12.536 0 28 0C 43.464 0 56 12.536 56 28Z"/>
<path id="path6_stroke_2x" d="M 47 28C 47 38.4934 38.4934 47 28 47L 28 65C 48.4345 65 65 48.4345 65 28L 47 28ZM 28 47C 17.5066 47 9 38.4934 9 28L -9 28C -9 48.4345 7.56546 65 28 65L 28 47ZM 9 28C 9 17.5066 17.5066 9 28 9L 28 -9C 7.56546 -9 -9 7.56546 -9 28L 9 28ZM 28 9C 38.4934 9 47 17.5066 47 28L 65 28C 65 7.56546 48.4345 -9 28 -9L 28 9Z"/>
</defs>
</svg>
