<svg width="215" height="220" viewBox="0 0 215 220" version="1.1" xmlns="http://www.w3.org/2000/svg" xmlns:xlink="http://www.w3.org/1999/xlink">
<title>Clean</title>
<desc>Created using Figma</desc>
<g id="Canvas" transform="translate(588 98)">
<g id="Clean">
<g id="Vector 7">
<use xlink:href="#path0_stroke" transform="translate(-445.5 5)" fill="#1B87E5"/>
</g>
<g id="Rectangle 11">
<use xlink:href="#path1_fill" transform="translate(-574 -98)" fill="#1B87E5"/>
</g>
<g id="Rectangle 11">
<use xlink:href="#path2_fill" transform="translate(-499 39)" fill="#1B87E5"/>
</g>
<g id="Rectangle 11">
<use xlink:href="#path3_fill" transform="matrix(6.12323e-17 1 -1 6.12323e-17 -553 89)" fill="#1B87E5"/>
</g>
<g id="Rectangle 11">
<use xlink:href="#path3_fill" transform="matrix(6.12323e-17 1 -1 6.12323e-17 -530 89)" fill="#1B87E5"/>
</g>
<g id="Rectangle 11">
<use xlink:href="#path4_fill" transform="matrix(6.12323e-17 1 -1 6.12323e-17 -541 -95)" fill="#1B87E5"/>
</g>
<g id="Rectangle 12">
<mask id="mask0_outline_ins">
<use xlink:href="#path5_fill" fill="white" transform="translate(-588 64)"/>
</mask>
<g mask="url(#mask0_outline_ins)">
<use xlink:href="#path6_stroke_2x" transform="translate(-588 64)" fill="#1B87E5"/>
</g>
</g>
<g id="Rectangle 12">
<mask id="mask1_outline_ins">
<use xlink:href="#path7_fill" fill="white" transform="matrix(-1 1.22465e-16 -1.22465e-16 -1 -411 122)"/>
</mask>
<g mask="url(#mask1_outline_ins)">
<use xlink:href="#path8_stroke_2x" transform="matrix(-1 1.22465e-16 -1.22465e-16 -1 -411 122)" fill="#1B87E5"/>
</g>
</g>
</g>
</g>
<defs>
<path id="path0_stroke" d="M -1.74915 9.35386C -4.039 10.3199 -5.11217 12.9593 -4.14614 15.2492C -3.18011 17.539 -0.540697 18.6122 1.74915 17.6461L -1.74915 9.35386ZM 49.8775 5.26838L 52.7435 1.79905L 49.8775 5.26838ZM 68 49L 68 53.5C 69.4435 53.5 70.7993 52.8075 71.6456 51.6381C 72.4918 50.4687 72.7257 48.9643 72.2745 47.5932L 68 49ZM 51.8543 36.3641C 51.2269 33.9593 48.7689 32.5184 46.3641 33.1457C 43.9593 33.7731 42.5184 36.2311 43.1457 38.6359L 51.8543 36.3641ZM 25.8146 57.5663C 23.6421 58.7733 22.8593 61.5129 24.0663 63.6854C 25.2733 65.8579 28.0129 66.6407 30.1854 65.4337L 25.8146 57.5663ZM 49.1741 4.68732L 46.3082 8.15665L 49.1741 4.68732ZM 57.0771 15.8113L 52.8027 17.2181L 57.0771 15.8113ZM 1.74915 17.6461L 29.9345 5.75544L 26.4362 -2.53684L -1.74915 9.35386L 1.74915 17.6461ZM 46.3082 8.15665L 47.0115 8.7377L 52.7435 1.79905L 52.0401 1.21799L 46.3082 8.15665ZM 52.8027 17.2181L 63.7255 50.4068L 72.2745 47.5932L 61.3516 14.4045L 52.8027 17.2181ZM 68 44.5L 50.5 44.5L 50.5 53.5L 68 53.5L 68 44.5ZM 54.8543 47.8641L 51.8543 36.3641L 43.1457 38.6359L 46.1457 50.1359L 54.8543 47.8641ZM 48.3146 45.0663L 25.8146 57.5663L 30.1854 65.4337L 52.6854 52.9337L 48.3146 45.0663ZM 29.9345 5.75544C 32.0303 4.84698 33.8561 4.47761 36.1402 4.5L 36.1402 -4.5C 32.9594 -4.47761 29.3756 -3.7526 26.4362 -2.53684L 29.9345 5.75544ZM 36.1402 4.5C 40.1247 4.43313 43.2789 5.56744 46.3082 8.15665L 52.0401 1.21799C 47.7339 -2.25259 41.6705 -4.43313 36.1402 -4.5L 36.1402 4.5ZM 47.0115 8.7377C 49.9002 11.0664 51.685 13.68 52.8027 17.2181L 61.3516 14.4045C 59.7552 9.69613 56.548 4.99948 52.7435 1.79905L 47.0115 8.7377Z"/>
<path id="path1_fill" d="M 0 4.5C 0 2.01472 2.01472 0 4.5 0L 53.5 0C 55.9853 0 58 2.01472 58 4.5L 58 4.5C 58 6.98528 55.9853 9 53.5 9L 4.5 9C 2.01472 9 0 6.98528 0 4.5L 0 4.5Z"/>
<path id="path2_fill" d="M 0 4.5C 0 2.01472 2.01472 0 4.5 0L 76.5 0C 78.9853 0 81 2.01472 81 4.5L 81 4.5C 81 6.98528 78.9853 9 76.5 9L 4.5 9C 2.01472 9 0 6.98528 0 4.5L 0 4.5Z"/>
<path id="path3_fill" d="M 0 4.5C 0 2.01472 2.01472 0 4.5 0L 28.5 0C 30.9853 0 33 2.01472 33 4.5L 33 4.5C 33 6.98528 30.9853 9 28.5 9L 4.5 9C 2.01472 9 0 6.98528 0 4.5L 0 4.5Z"/>
<path id="path4_fill" d="M 0 4.5C 0 2.01472 2.01472 0 4.5 0L 161.5 0C 163.985 0 166 2.01472 166 4.5L 166 4.5C 166 6.98528 163.985 9 161.5 9L 4.5 9C 2.01472 9 0 6.98528 0 4.5L 0 4.5Z"/>
<path id="path5_fill" d="M 14.4184 2.24885C 14.7608 0.924859 15.9553 0 17.3228 0L 68.638 0C 70.0237 0 71.2291 0.949062 71.5542 2.29608L 84.1059 54.2961C 84.5615 56.1835 83.1314 58 81.1897 58L 3.87457 58C 1.91282 58 0.478937 56.1481 0.970125 54.2489L 14.4184 2.24885Z"/>
<path id="path6_stroke_2x" d="M 84.1059 54.2961L 74.3851 56.6425L 74.3851 56.6425L 84.1059 54.2961ZM 71.5542 2.29608L 61.8334 4.64248L 71.5542 2.29608ZM 0.970125 54.2489L -8.71134 51.745L 0.970125 54.2489ZM 17.3228 10L 68.638 10L 68.638 -10L 17.3228 -10L 17.3228 10ZM 61.8334 4.64248L 74.3851 56.6425L 93.8268 51.9497L 81.275 -0.0503269L 61.8334 4.64248ZM 81.1897 48L 3.87457 48L 3.87457 68L 81.1897 68L 81.1897 48ZM 10.6516 56.7527L 24.0999 4.75268L 4.73693 -0.254977L -8.71134 51.745L 10.6516 56.7527ZM 17.3228 -10C 11.3968 -10 6.22072 -5.99228 4.73693 -0.254977L 24.0999 4.75268C 23.3009 7.842 20.5138 10 17.3228 10L 17.3228 -10ZM 68.638 10C 65.4047 10 62.5921 7.78552 61.8334 4.64248L 81.275 -0.0503269C 79.8661 -5.8874 74.6427 -10 68.638 -10L 68.638 10ZM 74.3851 56.6425C 73.3221 52.2384 76.6592 48 81.1897 48L 81.1897 68C 89.6036 68 95.801 60.1286 93.8268 51.9497L 74.3851 56.6425ZM 3.87457 48C 8.45198 48 11.7977 52.3211 10.6516 56.7527L -8.71134 51.745C -10.8398 59.9752 -4.62634 68 3.87457 68L 3.87457 48Z"/>
<path id="path7_fill" d="M 13.4883 2.61912C 13.68 1.12174 14.9544 -1.18424e-16 16.464 -1.13029e-16L 79.7438 1.13099e-16C 81.245 1.18463e-16 82.5151 1.10958 82.7167 2.59715L 96.5389 104.597C 96.7829 106.398 95.383 108 93.566 108L 3.40846 108C 1.60042 108 0.203189 106.413 0.432738 104.619L 13.4883 2.61912Z"/>
<path id="path8_stroke_2x" d="M 96.5389 104.597L 106.448 103.254L 96.5389 104.597ZM 82.7167 2.59715L 72.8072 3.93999L 82.7167 2.59715ZM 0.432738 104.619L -9.48634 103.35L 0.432738 104.619ZM 16.464 10L 79.7438 10L 79.7438 -10L 16.464 -10L 16.464 10ZM 72.8072 3.93999L 86.6294 105.94L 106.448 103.254L 92.6261 1.2543L 72.8072 3.93999ZM 93.566 98L 3.40846 98L 3.40846 118L 93.566 118L 93.566 98ZM 10.3518 105.889L 23.4074 3.88872L 3.56922 1.34952L -9.48634 103.35L 10.3518 105.889ZM 16.464 -10C 9.92242 -10 4.39974 -5.13914 3.56922 1.34952L 23.4074 3.88872C 22.9602 7.38262 19.9864 10 16.464 10L 16.464 -10ZM 79.7438 10C 76.2411 10 73.2776 7.41099 72.8072 3.93999L 92.6261 1.2543C 91.7526 -5.19184 86.2489 -10 79.7438 -10L 79.7438 10ZM 86.6294 105.94C 86.0601 101.739 89.3265 98 93.566 98L 93.566 118C 101.439 118 107.506 111.056 106.448 103.254L 86.6294 105.94ZM 3.40846 98C 7.62723 98 10.8874 101.704 10.3518 105.889L -9.48634 103.35C -10.4811 111.121 -4.42639 118 3.40846 118L 3.40846 98Z"/>
</defs>
</svg>
