<svg width="238" height="236" viewBox="0 0 238 236" version="1.1" xmlns="http://www.w3.org/2000/svg" xmlns:xlink="http://www.w3.org/1999/xlink">
<title>clock + phone</title>
<desc>Created using Figma</desc>
<g id="Canvas" transform="translate(614 -613)">
<g id="clock + phone">
<g id="Ellipse 4">
<mask id="mask0_outline_ins">
<use xlink:href="#path0_fill" fill="white" transform="translate(-597 613)"/>
</mask>
<g mask="url(#mask0_outline_ins)">
<use xlink:href="#path1_stroke_2x" transform="translate(-597 613)" fill="#1B87E5"/>
</g>
</g>
<g id="Rectangle 13">
<use xlink:href="#path2_fill" transform="translate(-401 721)" fill="#1B87E5"/>
</g>
<g id="Rectangle 13">
<use xlink:href="#path2_fill" transform="translate(-580 721)" fill="#1B87E5"/>
</g>
<g id="Ellipse 5">
<mask id="mask1_outline_ins">
<use xlink:href="#path3_fill" fill="white" transform="translate(-498 713)"/>
</mask>
<g mask="url(#mask1_outline_ins)">
<use xlink:href="#path4_stroke_2x" transform="translate(-498 713)" fill="#1B87E5"/>
</g>
</g>
<g id="Rectangle 14">
<use xlink:href="#path5_fill" transform="matrix(0.832245 -0.554409 0.554409 0.832245 -483.01 717.717)" fill="#1B87E5"/>
</g>
<g id="Rectangle 14">
<use xlink:href="#path6_fill" transform="matrix(0.904381 0.426727 -0.426727 0.904381 -536.827 695.733)" fill="#1B87E5"/>
</g>
<g id="Rectangle 13">
<use xlink:href="#path2_fill" transform="translate(-490 807)" fill="#1B87E5"/>
</g>
<g id="ic_phone_black_24px">
<g id="Vector">
<use xlink:href="#path7_fill" transform="translate(-614 687)" fill="#FFFFFF"/>
</g>
<g id="Vector">
<use xlink:href="#path8_fill" transform="translate(-609 699)" fill="#FFFFFF"/>
<use xlink:href="#path9_stroke" transform="translate(-609 699)" fill="#1B87E5"/>
</g>
</g>
<g id="Rectangle 13">
<use xlink:href="#path2_fill" transform="translate(-490 632)" fill="#1B87E5"/>
</g>
</g>
</g>
<defs>
<path id="path0_fill" d="M 221 110.5C 221 171.527 171.527 221 110.5 221C 49.4725 221 0 171.527 0 110.5C 0 49.4725 49.4725 0 110.5 0C 171.527 0 221 49.4725 221 110.5Z"/>
<path id="path1_stroke_2x" d="M 212 110.5C 212 166.557 166.557 212 110.5 212L 110.5 230C 176.498 230 230 176.498 230 110.5L 212 110.5ZM 110.5 212C 54.4431 212 9 166.557 9 110.5L -9 110.5C -9 176.498 44.502 230 110.5 230L 110.5 212ZM 9 110.5C 9 54.4431 54.4431 9 110.5 9L 110.5 -9C 44.502 -9 -9 44.502 -9 110.5L 9 110.5ZM 110.5 9C 166.557 9 212 54.4431 212 110.5L 230 110.5C 230 44.502 176.498 -9 110.5 -9L 110.5 9Z"/>
<path id="path2_fill" d="M 0 2C 0 0.895431 0.895431 0 2 0L 6 0C 7.10457 0 8 0.895431 8 2L 8 6C 8 7.10457 7.10457 8 6 8L 2 8C 0.895431 8 0 7.10457 0 6L 0 2Z"/>
<path id="path3_fill" d="M 24 12C 24 18.6274 18.6274 24 12 24C 5.37258 24 0 18.6274 0 12C 0 5.37258 5.37258 0 12 0C 18.6274 0 24 5.37258 24 12Z"/>
<path id="path4_stroke_2x" d="M 18 12C 18 15.3137 15.3137 18 12 18L 12 30C 21.9411 30 30 21.9411 30 12L 18 12ZM 12 18C 8.68629 18 6 15.3137 6 12L -6 12C -6 21.9411 2.05887 30 12 30L 12 18ZM 6 12C 6 8.68629 8.68629 6 12 6L 12 -6C 2.05887 -6 -6 2.05887 -6 12L 6 12ZM 12 6C 15.3137 6 18 8.68629 18 12L 30 12C 30 2.05887 21.9411 -6 12 -6L 12 6Z"/>
<path id="path5_fill" d="M 0 2C 0 0.895431 0.895431 0 2 0L 72 0C 73.1046 0 74 0.895431 74 2L 74 7C 74 8.10457 73.1046 9 72 9L 2 9C 0.895431 9 0 8.10457 0 7L 0 2Z"/>
<path id="path6_fill" d="M 0 2C 0 0.895431 0.895431 0 2 0L 50 0C 51.1046 0 52 0.895431 52 2L 52 7C 52 8.10457 51.1046 9 50 9L 2 9C 0.895431 9 0 8.10457 0 7L 0 2Z"/>
<path id="path7_fill" d="M 32.58 70.11C 45.54 95.58 66.42 116.37 91.89 129.42L 111.69 109.62C 114.12 107.19 117.72 106.38 120.87 107.46C 130.95 110.79 141.84 112.59 153 112.59C 157.95 112.59 162 116.64 162 121.59L 162 153C 162 157.95 157.95 162 153 162C 68.49 162 0 93.51 0 9C 0 4.05 4.05 0 9 0L 40.5 0C 45.45 0 49.5 4.05 49.5 9C 49.5 20.25 51.3 31.05 54.63 41.13C 55.62 44.28 54.9 47.79 52.38 50.31L 32.58 70.11Z"/>
<path id="path8_fill" d="M 28.7589 61.8872C 40.1989 84.37 58.63 102.722 81.1128 114.241L 98.5906 96.7633C 100.736 94.6183 103.913 93.9033 106.694 94.8567C 115.592 97.7961 125.204 99.385 135.056 99.385C 139.425 99.385 143 102.96 143 107.329L 143 135.056C 143 139.425 139.425 143 135.056 143C 60.4572 143 0 82.5428 0 7.94444C 0 3.575 3.575 0 7.94444 0L 35.75 0C 40.1194 0 43.6944 3.575 43.6944 7.94444C 43.6944 17.875 45.2833 27.4083 48.2228 36.3061C 49.0967 39.0867 48.4611 42.185 46.2367 44.4094L 28.7589 61.8872Z"/>
<path id="path9_stroke" d="M 28.7589 61.8872L 25.5769 58.7052L 23.2664 61.0158L 24.7482 63.928L 28.7589 61.8872ZM 81.1128 114.241L 79.0608 118.246L 81.9774 119.74L 84.2948 117.423L 81.1128 114.241ZM 98.5906 96.7633L 101.773 99.9453L 101.773 99.9453L 98.5906 96.7633ZM 106.694 94.8567L 105.234 99.1134L 105.258 99.1216L 105.282 99.1295L 106.694 94.8567ZM 48.2228 36.3061L 52.5157 34.9569L 52.5059 34.9256L 52.4956 34.8945L 48.2228 36.3061ZM 24.7482 63.928C 36.5604 87.018 55.9848 106.362 79.0608 118.246L 83.1648 110.236C 61.2752 99.0812 43.8373 81.722 32.7695 59.8465L 24.7482 63.928ZM 84.2948 117.423L 101.773 99.9453L 95.4086 93.5814L 77.9308 111.059L 84.2948 117.423ZM 101.773 99.9453C 102.706 99.0114 104.085 98.7192 105.234 99.1134L 108.153 90.5999C 103.742 89.0875 98.7647 90.2253 95.4086 93.5814L 101.773 99.9453ZM 105.282 99.1295C 114.516 102.166 124.836 103.87 135.056 103.885L 135.056 94.885C 125.573 94.9001 116.668 93.4266 108.105 90.5838L 105.282 99.1295ZM 135.056 103.885C 136.94 103.885 138.5 105.445 138.5 107.329L 147.5 107.329C 147.5 100.475 141.91 94.885 135.056 94.885L 135.056 103.885ZM 138.5 107.329L 138.5 135.056L 147.5 135.056L 147.5 107.329L 138.5 107.329ZM 138.5 135.056C 138.5 136.94 136.94 138.5 135.056 138.5L 135.056 147.5C 141.91 147.5 147.5 141.91 147.5 135.056L 138.5 135.056ZM 135.056 138.5C 62.9425 138.5 4.5 80.0575 4.5 7.94444L -4.5 7.94444C -4.5 85.0281 57.9719 147.5 135.056 147.5L 135.056 138.5ZM 4.5 7.94444C 4.5 6.06028 6.06028 4.5 7.94444 4.5L 7.94444 -4.5C 1.08972 -4.5 -4.5 1.08972 -4.5 7.94444L 4.5 7.94444ZM 7.94444 4.5L 35.75 4.5L 35.75 -4.5L 7.94444 -4.5L 7.94444 4.5ZM 35.75 4.5C 37.6342 4.5 39.1944 6.06028 39.1944 7.94444L 48.1944 7.94444C 48.1944 1.08972 42.6047 -4.5 35.75 -4.5L 35.75 4.5ZM 39.1944 7.94444C 39.2098 18.2462 40.9146 28.4872 43.9499 37.7177L 52.4956 34.8945C 49.6521 26.3295 48.1791 17.5038 48.1944 7.94444L 39.1944 7.94444ZM 43.9298 37.6553C 44.3234 38.9076 44.0418 40.2404 43.0547 41.2275L 49.4186 47.5914C 52.8804 44.1296 53.87 39.2657 52.5157 34.9569L 43.9298 37.6553ZM 43.0547 41.2275L 25.5769 58.7052L 31.9409 65.0692L 49.4186 47.5914L 43.0547 41.2275Z"/>
</defs>
</svg>
