<svg width="227" height="220" viewBox="0 0 227 220" version="1.1" xmlns="http://www.w3.org/2000/svg" xmlns:xlink="http://www.w3.org/1999/xlink">
<title>Clock 24</title>
<desc>Created using Figma</desc>
<g id="Canvas" transform="translate(-390 111)">
<g id="Clock 24">
<g id="Subtract">
<use xlink:href="#path0_fill" transform="translate(390 -111)" fill="#1B87E5"/>
</g>
<g id="Rectangle 13">
<use xlink:href="#path1_fill" transform="translate(407 -3)" fill="#1B87E5"/>
</g>
<g id="Ellipse 5">
<mask id="mask0_outline_ins">
<use xlink:href="#path2_fill" fill="white" transform="translate(489 -11)"/>
</mask>
<g mask="url(#mask0_outline_ins)">
<use xlink:href="#path3_stroke_2x" transform="translate(489 -11)" fill="#1B87E5"/>
</g>
</g>
<g id="Rectangle 14">
<use xlink:href="#path4_fill" transform="matrix(0.832245 -0.554409 0.554409 0.832245 503.99 -6.28275)" fill="#1B87E5"/>
</g>
<g id="Rectangle 14">
<use xlink:href="#path5_fill" transform="matrix(0.904381 0.426727 -0.426727 0.904381 450.173 -28.2675)" fill="#1B87E5"/>
</g>
<g id="Rectangle 13">
<use xlink:href="#path1_fill" transform="translate(497 -92)" fill="#1B87E5"/>
</g>
<g id="24">
<use xlink:href="#path6_fill" transform="translate(491 3)" fill="#1B87E5"/>
</g>
<g id="Ellipse 6">
<use xlink:href="#path7_fill" transform="translate(469 97.6)" fill="#1B87E5"/>
</g>
<g id="Ellipse 6">
<use xlink:href="#path8_fill" transform="translate(602 -4)" fill="#1B87E5"/>
</g>
</g>
</g>
<defs>
<path id="path0_fill" fill-rule="evenodd" d="M 211.989 112C 211.996 111.501 212 111.001 212 110.5C 212 54.4431 166.557 9 110.5 9C 54.4431 9 9 54.4431 9 110.5C 9 157.389 40.7943 196.852 84 208.506L 84 217.802C 35.7708 205.931 0 162.393 0 110.5C 0 49.4725 49.4725 0 110.5 0C 171.527 0 221 49.4725 221 110.5C 221 111.001 220.997 111.501 220.99 112L 211.989 112Z"/>
<path id="path1_fill" d="M 0 2C 0 0.895431 0.895431 0 2 0L 6 0C 7.10457 0 8 0.895431 8 2L 8 6C 8 7.10457 7.10457 8 6 8L 2 8C 0.895431 8 0 7.10457 0 6L 0 2Z"/>
<path id="path2_fill" d="M 24 12C 24 18.6274 18.6274 24 12 24C 5.37258 24 0 18.6274 0 12C 0 5.37258 5.37258 0 12 0C 18.6274 0 24 5.37258 24 12Z"/>
<path id="path3_stroke_2x" d="M 18 12C 18 15.3137 15.3137 18 12 18L 12 30C 21.9411 30 30 21.9411 30 12L 18 12ZM 12 18C 8.68629 18 6 15.3137 6 12L -6 12C -6 21.9411 2.05887 30 12 30L 12 18ZM 6 12C 6 8.68629 8.68629 6 12 6L 12 -6C 2.05887 -6 -6 2.05887 -6 12L 6 12ZM 12 6C 15.3137 6 18 8.68629 18 12L 30 12C 30 2.05887 21.9411 -6 12 -6L 12 6Z"/>
<path id="path4_fill" d="M 0 2C 0 0.895431 0.895431 0 2 0L 72 0C 73.1046 0 74 0.895431 74 2L 74 7C 74 8.10457 73.1046 9 72 9L 2 9C 0.895431 9 0 8.10457 0 7L 0 2Z"/>
<path id="path5_fill" d="M 0 2C 0 0.895431 0.895431 0 2 0L 50 0C 51.1046 0 52 0.895431 52 2L 52 7C 52 8.10457 51.1046 9 50 9L 2 9C 0.895431 9 0 8.10457 0 7L 0 2Z"/>
<path id="path6_fill" d="M 59.8389 106L 6.73535 106L 6.73535 98.5967L 34.79 67.4248C 38.9463 62.7119 41.8037 58.8896 43.3623 55.958C 44.958 52.9893 45.7559 49.9277 45.7559 46.7734C 45.7559 42.543 44.4756 39.0732 41.915 36.3643C 39.3545 33.6553 35.9404 32.3008 31.6729 32.3008C 26.5518 32.3008 22.5625 33.7666 19.7051 36.6982C 16.8848 39.5928 15.4746 43.6377 15.4746 48.833L 5.17676 48.833C 5.17676 41.374 7.57031 35.3438 12.3574 30.7422C 17.1816 26.1406 23.6201 23.8398 31.6729 23.8398C 39.2061 23.8398 45.1621 25.8252 49.541 29.7959C 53.9199 33.7295 56.1094 38.9805 56.1094 45.5488C 56.1094 53.5273 51.0254 63.0273 40.8574 74.0488L 19.1484 97.5947L 59.8389 97.5947L 59.8389 106ZM 114.223 78.7803L 125.467 78.7803L 125.467 87.1855L 114.223 87.1855L 114.223 106L 103.869 106L 103.869 87.1855L 66.9639 87.1855L 66.9639 81.1182L 103.257 24.9531L 114.223 24.9531L 114.223 78.7803ZM 78.6533 78.7803L 103.869 78.7803L 103.869 39.0361L 102.645 41.2627L 78.6533 78.7803Z"/>
<path id="path7_fill" d="M 9.1 4.55C 9.1 7.0629 7.0629 9.1 4.55 9.1C 2.0371 9.1 0 7.0629 0 4.55C 0 2.0371 2.0371 0 4.55 0C 7.0629 0 9.1 2.0371 9.1 4.55Z"/>
<path id="path8_fill" d="M 9 4.5C 9 6.98528 6.98528 9 4.5 9C 2.01472 9 0 6.98528 0 4.5C 0 2.01472 2.01472 0 4.5 0C 6.98528 0 9 2.01472 9 4.5Z"/>
</defs>
</svg>
