<svg width="195" height="226" viewBox="0 0 195 226" version="1.1" xmlns="http://www.w3.org/2000/svg" xmlns:xlink="http://www.w3.org/1999/xlink">
<title>grows</title>
<desc>Created using Figma</desc>
<g id="Canvas" transform="translate(309 -237)">
<g id="grows">
<g id="Ellipse 7">
<mask id="mask0_outline_ins">
<use xlink:href="#path0_fill" fill="white" transform="matrix(0.707107 0.707107 -0.707107 0.707107 -256.759 364.346)"/>
</mask>
<g mask="url(#mask0_outline_ins)">
<use xlink:href="#path1_stroke_2x" transform="matrix(0.707107 0.707107 -0.707107 0.707107 -256.759 364.346)" fill="#1B87E5"/>
</g>
</g>
<g id="Ellipse 7">
<mask id="mask1_outline_ins">
<use xlink:href="#path0_fill" fill="white" transform="matrix(-0.707107 0.707107 -0.707107 -0.707107 -138.993 356.87)"/>
</mask>
<g mask="url(#mask1_outline_ins)">
<use xlink:href="#path1_stroke_2x" transform="matrix(-0.707107 0.707107 -0.707107 -0.707107 -138.993 356.87)" fill="#1B87E5"/>
</g>
</g>
<g id="Vector">
<use xlink:href="#path2_fill" transform="translate(-277.5 237)" fill="#1B87E5"/>
</g>
<g id="Intersect">
<use xlink:href="#path3_fill" transform="matrix(0.17931 0.983793 -0.983793 0.17931 -164.582 250.91)" fill="#1B87E5"/>
</g>
<g id="Intersect">
<use xlink:href="#path3_fill" transform="matrix(0.999737 -0.0229448 0.0229448 0.999737 -260.037 254.276)" fill="#1B87E5"/>
</g>
<g id="Rectangle 19">
<use xlink:href="#path4_fill" transform="translate(-215 318)" fill="#1B87E5"/>
</g>
<g id="Rectangle 19">
<use xlink:href="#path5_fill" transform="matrix(6.12323e-17 1 -1 6.12323e-17 -114 454)" fill="#1B87E5"/>
</g>
<g id="Rectangle 19">
<use xlink:href="#path6_fill" transform="matrix(-0.708826 0.705383 -0.705383 -0.708826 -204.295 437.659)" fill="#1B87E5"/>
</g>
<g id="Rectangle 19">
<use xlink:href="#path7_fill" transform="matrix(-0.707986 -0.706227 0.706227 -0.707986 -209.652 406.341)" fill="#1B87E5"/>
</g>
</g>
</g>
<defs>
<path id="path0_fill" d="M 61.0052 19C 61.0052 29.4934 50.4839 38 37.5052 38C 24.5266 38 0.425544 23.9314 0.00524494 19C -0.415054 14.0686 24.5266 0 37.5052 0C 50.4839 0 61.0052 8.50659 61.0052 19Z"/>
<path id="path1_stroke_2x" d="M 52.0052 19C 52.0052 22.8303 47.3946 29 37.5052 29L 37.5052 47C 53.5733 47 70.0052 36.1565 70.0052 19L 52.0052 19ZM 37.5052 29C 33.3537 29 25.7397 26.412 18.3026 22.4196C 14.7596 20.5255 11.9842 18.7487 9.83109 17.015C 8.83082 16.2248 8.44037 15.8753 8.07644 15.42C 7.58163 14.835 8.77438 15.9084 8.97273 18.2357L -8.96224 19.7643C -8.65881 23.3245 -6.62097 25.9162 -5.66661 27.0445C -4.58136 28.3025 -2.91857 29.8612 -1.39748 31.0834C 1.49215 33.3746 5.63192 36.0395 9.78905 38.279C 17.7522 42.5537 28.6781 47 37.5052 47L 37.5052 29ZM 8.97273 18.2357C 9.22524 21.1985 7.67366 22.7992 8.06435 22.2976C 8.31989 21.9323 8.58259 21.6995 9.53041 20.9416C 11.6057 19.2402 14.3567 17.4951 17.9427 15.6042C 25.471 11.6173 33.3172 9 37.5052 9L 37.5052 -9C 28.7146 -9 17.6006 -4.58301 9.51852 -0.302793C 5.29936 1.93988 1.08257 4.63661 -1.80606 6.96001C -3.3402 8.21446 -5.0585 9.8899 -6.1372 11.2379C -7.08076 12.4495 -9.31983 15.5687 -8.96224 19.7643L 8.97273 18.2357ZM 37.5052 9C 47.3946 9 52.0052 15.1697 52.0052 19L 70.0052 19C 70.0052 1.84347 53.5733 -9 37.5052 -9L 37.5052 9Z"/>
<path id="path2_fill" d="M 118.033 7.17023C 111.957 1.918 103.153 0.0315823 95.065 0.0315823C 85.7225 0.0315823 76.6791 3.91292 70.257 10.6922C 69.1027 11.9127 68.0204 13.2229 67.0045 14.6459C 59.1403 3.71046 46 -1.9004 33.0036 0.581102C 22.219 2.62589 12.7403 7.81809 6.81924 17.9726C -1.53496 32.3092 -2.21868 46.1368 4.79851 59.0736C 8.54932 65.9947 14.4157 73.7393 20.6772 80.6921C 32.1455 93.4294 45.7204 105.519 63.4004 118.725C 64.5298 119.572 65.7395 120 67.0017 120C 68.9449 120 70.257 118.973 70.9075 118.47C 86.8602 106.569 99.3915 95.5985 110.348 83.9285C 116.465 77.4153 123.408 69.4097 128.485 59.4113C 130.66 55.1395 134.141 48.3899 133.994 41.8217C 133.667 27.6875 128.3 16.029 118.033 7.17023ZM 120.175 54.8012C 115.654 63.6918 109.277 71.0293 103.63 77.0393C 93.4982 87.833 81.9136 98.0482 66.9851 109.31C 50.739 97.0302 38.1634 85.7535 27.5338 73.9417C 21.7955 67.5702 16.3637 60.4474 12.9839 54.2147C 7.63307 44.3523 8.22822 34.4552 14.8606 23.0831C 19.3229 15.4246 26.6563 11.7681 34.6894 10.2439C 36.2285 9.94893 37.7869 9.80433 39.3233 9.80433C 48.8456 9.80433 57.2801 15.2995 62.044 24.8409L 62.8523 26.4345C 63.6827 28.0628 65.3934 28.9883 67.082 29.0317C 68.8508 28.997 70.448 27.9413 71.2259 26.2812C 72.8978 22.718 74.722 19.953 76.9476 17.5988C 81.6147 12.6792 88.2166 9.8535 95.065 9.8535C 100.969 9.8535 107.641 10.9446 112.04 14.7449C 120.222 21.8048 124.325 30.7417 124.588 42.0444C 124.679 46.3104 121.916 51.3768 120.175 54.8012Z"/>
<path id="path3_fill" fill-rule="evenodd" d="M 23.7994 0.505131C 23.7994 0.227329 23.5772 5.73509e-09 23.2994 5.26863e-15C 23.2994 1.75621e-15 23.2994 0 23.2994 0L 23.2994 2.01227e-35C 11.3896 1.52528e-17 1.54905 8.67117 0.00894563 19.9149C -0.0706993 20.4964 0.391966 21 0.978853 21L 8.0869 21C 8.58196 21 8.99859 20.6364 9.10304 20.1525C 10.4533 13.8971 16.1614 9 23.2994 9L 23.2994 9L 23.2994 9C 23.5729 9 23.7994 8.78149 23.7994 8.50794L 23.7994 0.505131Z"/>
<path id="path4_fill" d="M 0 4.5C 0 2.01472 2.01472 0 4.5 0L 4.5 0C 6.98528 0 9 2.01472 9 4.5L 9 140.5C 9 142.985 6.98528 145 4.5 145L 4.5 145C 2.01472 145 0 142.985 0 140.5L 0 4.5Z"/>
<path id="path5_fill" d="M 0 4.5C 0 2.01472 2.01472 0 4.5 0L 4.5 0C 6.98528 0 9 2.01472 9 4.5L 9 190.5C 9 192.985 6.98528 195 4.5 195L 4.5 195C 2.01472 195 0 192.985 0 190.5L 0 4.5Z"/>
<path id="path6_fill" d="M 0 4.5C 0 2.01472 2.01472 0 4.5 0L 4.5 0C 6.98528 0 9 2.01472 9 4.5L 9 50.666C 9 53.1513 6.98528 55.166 4.5 55.166L 4.5 55.166C 2.01472 55.166 0 53.1513 0 50.666L 0 4.5Z"/>
<path id="path7_fill" d="M 0 4.5C 0 2.01472 2.01472 0 4.5 0L 4.5 0C 6.98528 0 9 2.01472 9 4.5L 9 48.3702C 9 50.8555 6.98528 52.8702 4.5 52.8702L 4.5 52.8702C 2.01472 52.8702 0 50.8555 0 48.3702L 0 4.5Z"/>
</defs>
</svg>
