<svg width="251" height="212" viewBox="0 0 251 212" version="1.1" xmlns="http://www.w3.org/2000/svg" xmlns:xlink="http://www.w3.org/1999/xlink">
<title>hands</title>
<desc>Created using Figma</desc>
<g id="Canvas" transform="translate(-387 -1219)">
<g id="hands">
<g id="Vector 17">
<use xlink:href="#path0_stroke" transform="translate(392 1277.5)" fill="#1B87E5"/>
</g>
<g id="Vector 17">
<use xlink:href="#path0_stroke" transform="matrix(-1 0 0 1 633.5 1277.5)" fill="#1B87E5"/>
</g>
<g id="Vector">
<use xlink:href="#path1_fill" transform="translate(447 1219)" fill="#1B87E5"/>
</g>
</g>
</g>
<defs>
<path id="path0_stroke" d="M 3.80351 67.557L 0.729827 70.8437L 3.80351 67.557ZM 45.2174 75.2533L 42.258 78.6432L 45.2174 75.2533ZM 56.2201 58.4122L 53.1471 61.6996L 56.2201 58.4122ZM 105.208 82.1248L 101.996 85.276L 105.208 82.1248ZM 49.8795 110.647L 52.9532 107.36L 49.8795 110.647ZM 7.24069 1.31824L 3.96379 4.40238L 7.24069 1.31824ZM 18.1081 51.5864L 15.1486 54.9764L 18.1081 51.5864ZM 68.9462 70.3084L 72.0192 67.021L 68.9462 70.3084ZM 63.7929 39.9054L 60.5805 43.0566L 63.7929 39.9054ZM 50 153.5L 50 129L 41 129L 41 153.5L 50 153.5ZM 105 128L 105 153.5L 114 153.5L 114 128L 105 128ZM 46.5 132.5L 54 132.5L 54 123.5L 46.5 123.5L 46.5 132.5ZM 54 132.5L 109.5 132.5L 109.5 123.5L 54 123.5L 54 132.5ZM 58.5 128L 58.5 120.142L 49.5 120.142L 49.5 128L 58.5 128ZM 52.9532 107.36L 6.87719 64.2703L 0.729827 70.8437L 46.8058 113.933L 52.9532 107.36ZM 4.5 58.7924L 4.5 4.18973L -4.5 4.18973L -4.5 58.7924L 4.5 58.7924ZM 3.96379 4.40238L 7.4615 8.11869L 14.0153 1.95041L 10.5176 -1.7659L 3.96379 4.40238ZM 9.5 13.2589L 9.5 42.5466L 18.5 42.5466L 18.5 13.2589L 9.5 13.2589ZM 15.1486 54.9764L 42.258 78.6432L 48.1769 71.8634L 21.0676 48.1965L 15.1486 54.9764ZM 45.8751 80L 66.8976 80L 66.8976 71L 45.8751 71L 45.8751 80ZM 72.0192 67.021L 59.293 55.1249L 53.1471 61.6996L 65.8732 73.5958L 72.0192 67.021ZM 56 47.5388L 56 44.9282L 47 44.9282L 47 47.5388L 56 47.5388ZM 60.5805 43.0566L 101.996 85.276L 108.421 78.9735L 67.0053 36.7541L 60.5805 43.0566ZM 105 92.6289L 105 128L 114 128L 114 92.6289L 105 92.6289ZM 50 129C 50 130.933 48.433 132.5 46.5 132.5L 46.5 123.5C 43.4624 123.5 41 125.962 41 129L 50 129ZM 58.5 120.142C 58.5 115.297 56.4917 110.669 52.9532 107.36L 46.8058 113.933C 48.5245 115.541 49.5 117.788 49.5 120.142L 58.5 120.142ZM 6.87719 64.2703C 5.36072 62.8521 4.5 60.8687 4.5 58.7924L -4.5 58.7924C -4.5 63.3602 -2.60642 67.7237 0.729827 70.8437L 6.87719 64.2703ZM 4.5 4.18973C 4.5 4.36109 4.36109 4.5 4.18973 4.5L 4.18973 -4.5C -0.609474 -4.5 -4.5 -0.609475 -4.5 4.18973L 4.5 4.18973ZM 4.18973 4.5C 4.10418 4.5 4.02243 4.46468 3.96379 4.40238L 10.5176 -1.7659C 8.87545 -3.51069 6.58575 -4.5 4.18973 -4.5L 4.18973 4.5ZM 7.4615 8.11869C 9.03599 9.67494 9.57994 11.0466 9.5 13.2589L 18.5 13.2589C 18.4201 9.35765 16.6309 4.84611 14.0153 1.95041L 7.4615 8.11869ZM 9.5 42.5466C 9.5 47.3111 11.5595 51.843 15.1486 54.9764L 21.0676 48.1965C 19.4361 46.7723 18.5 44.7123 18.5 42.5466L 9.5 42.5466ZM 42.258 78.6432C 43.0926 79.276 44.8302 79.9278 45.8751 80L 45.8751 71C 46.7215 71 47.5393 71.3067 48.1769 71.8634L 42.258 78.6432ZM 66.8976 80C 73.7019 80 76.9899 71.6676 72.0192 67.021L 65.8732 73.5958C 64.8791 72.6665 65.5367 71 66.8976 71L 66.8976 80ZM 59.293 55.1249C 57.1924 53.1612 56 50.4144 56 47.5388L 47 47.5388C 47 52.9066 49.2258 58.034 53.1471 61.6996L 59.293 55.1249ZM 56 44.9282C 55.9402 44.0845 55.9896 43.9386 56.5496 43.3047L 49.4004 37.8376C 48.0471 39.7058 47.0598 42.6221 47 44.9282L 56 44.9282ZM 56.5496 43.3047C 57.5377 42.0125 59.4413 41.8954 60.5805 43.0566L 67.0053 36.7541C 62.0301 31.6823 53.7161 32.194 49.4004 37.8376L 56.5496 43.3047ZM 101.996 85.276C 103.921 87.239 105 89.8791 105 92.6289L 114 92.6289C 114 87.5221 111.997 82.6191 108.421 78.9735L 101.996 85.276Z"/>
<path id="path1_fill" d="M 115.154 7.76172C 109.124 2.7721 101.38 0.0300033 93.3523 0.0300033C 84.0807 0.0300033 75.1058 3.71727 68.7324 10.1576C 67.5868 11.3171 66.5127 12.5618 65.5045 13.9136C 57.6998 3.52494 44.6591 -1.80538 31.7612 0.552047C 21.0583 2.49459 12.6437 8.37718 6.76758 18.024C -1.52333 31.6438 -2.20187 44.78 4.76216 57.07C 8.48455 63.6449 13.314 70.0523 19.5281 76.6575C 30.9096 88.7579 44.3816 100.243 61.9277 112.788C 63.0485 113.593 64.249 114 65.5017 114C 67.4302 114 68.7324 113.025 69.3779 112.547C 85.2098 101.24 97.6461 90.8186 108.519 79.7321C 114.591 73.5445 121.48 65.9392 126.519 56.4408C 128.678 52.3826 131.139 46.9204 130.994 40.6806C 130.67 27.2531 125.343 16.1776 115.154 7.76172ZM 118.272 52.0611C 113.786 60.5072 107.456 67.4778 101.852 73.1873C 91.7975 83.4413 80.3006 93.1458 65.4852 103.845C 49.3622 92.1787 36.8819 81.4658 26.3328 70.2446C 20.638 64.1917 16.2398 58.3751 12.8855 52.454C 7.57524 43.0847 8.16588 33.6825 14.7481 22.879C 19.1765 15.6033 25.462 11.1797 33.4342 9.73174C 34.9616 9.45149 36.5083 9.31411 38.0329 9.31411C 47.4831 9.31411 55.8537 14.5345 60.5816 23.5988L 61.3837 25.1127C 62.2079 26.6596 63.9056 27.5389 65.5814 27.5801C 67.3368 27.5471 68.9219 26.5442 69.6939 24.9671C 71.3532 21.5821 73.1635 18.9554 75.3722 16.7189C 80.0039 12.0452 86.5559 9.36082 93.3523 9.36082C 99.212 9.36082 104.841 11.3473 109.206 14.9577C 117.327 21.6645 121.398 30.1546 121.659 40.8921C 121.75 44.9448 120 48.808 118.272 52.0611Z"/>
</defs>
</svg>
