<svg width="277" height="254" viewBox="0 0 277 254" version="1.1" xmlns="http://www.w3.org/2000/svg" xmlns:xlink="http://www.w3.org/1999/xlink">
<title>house</title>
<desc>Created using Figma</desc>
<g id="Canvas" transform="translate(326 -1204)">
<g id="house">
<g id="Vector 14">
<use xlink:href="#path0_stroke" transform="translate(-300 1296)" fill="#1B87E5"/>
</g>
<g id="Ellipse 10">
<use xlink:href="#path1_fill" transform="translate(-199 1392)" fill="#1B87E5"/>
</g>
<g id="Vector 13">
<use xlink:href="#path2_stroke" transform="translate(-325 1208)" fill="#1B87E5"/>
</g>
<g id="Vector">
<use xlink:href="#path3_fill" transform="translate(-165 1358)" fill="#FFFFFF"/>
</g>
<g id="Vector">
<use xlink:href="#path4_fill" transform="translate(-152 1369)" fill="#FFFFFF"/>
<mask id="mask0_outline_ins">
<use xlink:href="#path4_fill" fill="white" transform="translate(-152 1369)"/>
</mask>
<g mask="url(#mask0_outline_ins)">
<use xlink:href="#path5_stroke_2x" transform="translate(-152 1369)" fill="#1B87E5"/>
</g>
</g>
</g>
</g>
<defs>
<path id="path0_stroke" d="M -4.5 2L -4.5 130L 4.5 130L 4.5 2L -4.5 2ZM 2 136.5L 58 136.5L 58 127.5L 2 127.5L 2 136.5ZM 64.5 130L 64.5 48L 55.5 48L 55.5 130L 64.5 130ZM 62 50.5L 122 50.5L 122 41.5L 62 41.5L 62 50.5ZM 119.5 48L 119.5 130L 128.5 130L 128.5 48L 119.5 48ZM 126 136.5L 182 136.5L 182 127.5L 126 127.5L 126 136.5ZM 188.5 130L 188.5 2L 179.5 2L 179.5 130L 188.5 130ZM 182 -4.5L 2 -4.5L 2 4.5L 182 4.5L 182 -4.5ZM 4.5 2C 4.5 3.38071 3.38071 4.5 2 4.5L 2 -4.5C -1.58985 -4.5 -4.5 -1.58985 -4.5 2L 4.5 2ZM -4.5 130C -4.5 133.59 -1.58985 136.5 2 136.5L 2 127.5C 3.38071 127.5 4.5 128.619 4.5 130L -4.5 130ZM 58 136.5C 61.5899 136.5 64.5 133.59 64.5 130L 55.5 130C 55.5 128.619 56.6193 127.5 58 127.5L 58 136.5ZM 64.5 48C 64.5 49.3807 63.3807 50.5 62 50.5L 62 41.5C 58.4101 41.5 55.5 44.4101 55.5 48L 64.5 48ZM 122 50.5C 120.619 50.5 119.5 49.3807 119.5 48L 128.5 48C 128.5 44.4101 125.59 41.5 122 41.5L 122 50.5ZM 119.5 130C 119.5 133.59 122.41 136.5 126 136.5L 126 127.5C 127.381 127.5 128.5 128.619 128.5 130L 119.5 130ZM 182 136.5C 185.59 136.5 188.5 133.59 188.5 130L 179.5 130C 179.5 128.619 180.619 127.5 182 127.5L 182 136.5ZM 188.5 2C 188.5 -1.58985 185.59 -4.5 182 -4.5L 182 4.5C 180.619 4.5 179.5 3.38071 179.5 2L 188.5 2Z"/>
<path id="path1_fill" d="M 12 6C 12 9.31371 9.31371 12 6 12C 2.68629 12 0 9.31371 0 6C 0 2.68629 2.68629 0 6 0C 9.31371 0 12 2.68629 12 6Z"/>
<path id="path2_stroke" d="M 118.202 0.904207L 120.907 -2.6921L 118.202 0.904207ZM 4.78418 84.4016L 2.07927 80.8053L 4.78418 84.4016ZM 115.798 0.904207L 113.093 -2.6921L 115.798 0.904207ZM 5.98637 92.5L 228.014 92.5L 228.014 83.5L 5.98637 83.5L 5.98637 92.5ZM 231.921 80.8053L 120.907 -2.6921L 115.497 4.50052L 226.511 87.9979L 231.921 80.8053ZM 113.093 -2.6921L 2.07927 80.8053L 7.4891 87.9979L 118.503 4.50052L 113.093 -2.6921ZM 5.98637 83.5C 8.38717 83.5 9.40777 86.5548 7.4891 87.9979L 2.07927 80.8053C -2.90928 84.5574 -0.255717 92.5 5.98637 92.5L 5.98637 83.5ZM 228.014 92.5C 234.256 92.5 236.909 84.5574 231.921 80.8053L 226.511 87.9979C 224.592 86.5548 225.613 83.5 228.014 83.5L 228.014 92.5ZM 120.907 -2.6921C 118.593 -4.43254 115.407 -4.43254 113.093 -2.6921L 118.503 4.50052C 117.613 5.16992 116.387 5.16992 115.497 4.50052L 120.907 -2.6921Z"/>
<path id="path3_fill" d="M 101.968 6.80853C 96.6287 2.43167 89.7712 0.0263187 82.6631 0.0263187C 74.4531 0.0263187 66.5059 3.26076 60.8623 8.91019C 59.8479 9.92728 58.8967 11.0191 58.004 12.2049C 51.093 3.09205 39.5454 -1.58367 28.1244 0.484252C 18.647 2.18824 11.196 7.34841 5.99267 15.8105C -1.3489 27.7577 -1.94975 39.2807 4.21688 50.0614C 7.51304 55.8289 11.7895 61.4494 17.2921 67.2434C 27.3703 77.8578 39.2997 87.9323 54.8367 98.9371C 55.8292 99.6433 56.8923 100 58.0015 100C 59.7092 100 60.8622 99.1444 61.4339 98.725C 75.4529 88.8072 86.4653 79.6654 96.0935 69.9404C 101.47 64.5127 107.57 57.8414 112.032 49.5094C 113.944 45.9496 116.123 41.1582 115.995 35.6847C 115.707 23.9062 110.991 14.1909 101.968 6.80853Z"/>
<path id="path4_fill" d="M 79.1133 5.31065C 74.9705 1.8967 69.6501 0.0205286 64.1352 0.0205286C 57.7654 0.0205286 51.5994 2.5434 47.2207 6.94995C 46.4337 7.74328 45.6957 8.59489 45.0031 9.51981C 39.6411 2.4118 30.6818 -1.23526 21.8207 0.377716C 14.4675 1.70683 8.68654 5.73176 4.64948 12.3322C -1.04656 21.651 -1.51274 30.6389 3.27171 39.0479C 5.82908 43.5465 9.14706 47.9305 13.4163 52.4499C 21.2356 60.7291 30.4912 68.5872 42.5457 77.1709C 43.3158 77.7218 44.1405 78 45.0012 78C 46.3261 78 47.2207 77.3326 47.6642 77.0055C 58.5411 69.2696 67.0851 62.139 74.5553 54.5535C 78.7264 50.3199 83.4599 45.1163 86.9213 38.6174C 88.4047 35.8407 90.0958 32.1034 89.9958 27.8341C 89.7731 18.6469 86.1135 11.0689 79.1133 5.31065Z"/>
<path id="path5_stroke_2x" d="M 79.1133 5.31065L 73.3896 12.2562L 73.3958 12.2613L 79.1133 5.31065ZM 47.2207 6.94995L 40.8366 0.60622L 40.8314 0.611418L 47.2207 6.94995ZM 45.0031 9.51981L 37.8181 14.9398L 45.0293 24.4992L 52.2069 14.9147L 45.0031 9.51981ZM 21.8207 0.377716L 23.4215 9.23421L 23.4324 9.23222L 21.8207 0.377716ZM 4.64948 12.3322L -3.02826 7.63621L -3.02961 7.63841L 4.64948 12.3322ZM 3.27171 39.0479L 11.0958 34.6001L 11.0942 34.5971L 3.27171 39.0479ZM 13.4163 52.4499L 19.9593 46.2702L 19.9587 46.2696L 13.4163 52.4499ZM 42.5457 77.1709L 47.7818 69.8509L 47.774 69.8453L 47.7661 69.8397L 42.5457 77.1709ZM 47.6642 77.0055L 42.448 69.6713L 42.3847 69.7163L 42.3223 69.7623L 47.6642 77.0055ZM 74.5553 54.5535L 68.1442 48.2371L 68.1428 48.2385L 74.5553 54.5535ZM 86.9213 38.6174L 78.9831 34.3763L 78.9777 34.3865L 86.9213 38.6174ZM 89.9958 27.8341L 98.9933 27.6233L 98.9931 27.616L 89.9958 27.8341ZM 84.8369 -1.63485C 79.3966 -5.93977 71.1683 -8.85048 64.1352 -8.97947L 64.1352 9.02053C 68.1318 8.89154 70.5445 9.73317 73.3896 12.2562L 84.8369 -1.63485ZM 64.1352 -8.97947C 55.4416 -8.97947 46.9555 -5.55169 40.8366 0.606222L 53.6048 13.2937C 56.2432 10.6385 60.0891 9.02053 64.1352 9.02053L 64.1352 -8.97947ZM 40.8314 0.611418C 39.8345 1.62358 38.6886 2.94692 37.7992 4.12497L 52.2069 14.9147C 52.7029 14.2429 53.0329 13.863 53.61 13.2885L 40.8314 0.611418ZM 52.188 4.0998C 44.8333 -5.64985 32.5048 -10.715 20.2089 -8.47679L 23.4324 9.23222C 28.8588 8.24447 34.4489 10.4734 37.8181 14.9398L 52.188 4.0998ZM 20.2198 -8.47877C 10.2399 -6.67486 2.29412 -1.06569 -3.02826 7.63621L 12.3272 17.0282C 15.079 12.5292 18.6951 10.0885 23.4215 9.2342L 20.2198 -8.47877ZM -3.02961 7.63841C -10.1651 19.3122 -11.1951 31.8209 -4.55074 43.4986L 11.0942 34.5971C 8.16958 29.457 8.072 23.9898 12.3286 17.026L -3.02961 7.63841ZM -4.55242 43.4957C -1.68728 48.4967 2.27743 53.745 6.87381 58.6302L 19.9587 46.2696C 16.0167 42.116 13.3454 38.5963 11.0958 34.6001L -4.55242 43.4957ZM 6.87317 58.6295C 15.0422 67.2592 24.9635 75.6897 37.3253 84.5022L 47.7661 69.8397C 36.0188 61.4847 27.4289 54.199 19.9593 46.2702L 6.87317 58.6295ZM 37.3096 84.491C 39.2146 85.733 42.6829 86.8812 45.0012 87L 45.0012 69C 46.2041 69 47.1828 69.4224 47.7818 69.8509L 37.3096 84.491ZM 45.0012 87C 49.1612 86.5418 52.5824 84.5612 53.0062 84.2487L 42.3223 69.7623C 41.9968 70.0024 43.1733 69 45.0012 69L 45.0012 87ZM 52.8805 84.3397C 64.0367 76.3969 73.182 68.7593 80.9678 60.8685L 68.1428 48.2385C 60.9883 55.5187 53.0455 62.1423 42.448 69.6713L 52.8805 84.3397ZM 80.9664 60.87C 85.262 56.5074 90.8173 50.2998 94.8648 42.8482L 78.9777 34.3865C 76.1025 39.9328 72.1907 44.1324 68.1442 48.2371L 80.9664 60.87ZM 94.8594 42.8584C 96.478 39.8185 98.9151 33.898 98.9933 27.6233L 80.9982 28.0449C 81.0416 29.8937 80.3009 31.9099 78.9832 34.3763L 94.8594 42.8584ZM 98.9931 27.616C 98.7081 15.8584 93.8838 5.80696 84.8307 -1.63996L 73.3958 12.2613C 78.3431 16.3308 80.838 21.4354 80.9984 28.0522L 98.9931 27.616Z"/>
</defs>
</svg>
