<svg width="258" height="190" viewBox="0 0 258 190" version="1.1" xmlns="http://www.w3.org/2000/svg" xmlns:xlink="http://www.w3.org/1999/xlink">
<title>meal</title>
<desc>Created using Figma</desc>
<g id="Canvas" transform="translate(615 -236)">
<g id="meal">
<g id="Vector 11">
<use xlink:href="#path0_stroke" transform="translate(-551.135 327.991)" fill="#1B87E5"/>
</g>
<g id="Rectangle 11">
<use xlink:href="#path1_fill" transform="matrix(0.918119 0.396304 -0.396304 0.918119 -612.433 322.293)" fill="#1B87E5"/>
</g>
<g id="Rectangle">
<mask id="mask0_outline_ins">
<use xlink:href="#path2_fill" fill="white" transform="translate(-613.635 366)"/>
</mask>
<g mask="url(#mask0_outline_ins)">
<use xlink:href="#path3_stroke_2x" transform="translate(-613.635 366)" fill="#1B87E5"/>
</g>
</g>
<g id="Rectangle 2">
<mask id="mask1_outline_ins">
<use xlink:href="#path4_fill" fill="white" transform="translate(-589.635 383)"/>
</mask>
<g mask="url(#mask1_outline_ins)">
<use xlink:href="#path5_stroke_2x" transform="translate(-589.635 383)" fill="#1B87E5"/>
</g>
</g>
<g id="Vector 10">
<use xlink:href="#path6_stroke" transform="translate(-524.155 267)" fill="#1B87E5"/>
</g>
<g id="Vector 10">
<use xlink:href="#path6_stroke" transform="translate(-456.635 267)" fill="#1B87E5"/>
</g>
<g id="Vector 10">
<use xlink:href="#path7_stroke" transform="translate(-490.135 241)" fill="#1B87E5"/>
</g>
</g>
</g>
<defs>
<path id="path0_stroke" d="M 46.5 9.50862L 46.7373 14.0024L 46.7373 14.0024L 46.5 9.50862ZM 57 4.00862L 56.9589 -0.491195L 57 4.00862ZM 66.5 8.00862L 66.4592 12.5084L 66.4592 12.5084L 66.5 8.00862ZM 79 0.00861716L 78.8238 4.50517L 79 0.00861716ZM 91 9.50862L 95.4317 8.72729L 95.4316 8.72728L 91 9.50862ZM 91 13.5086L 94.8266 11.1407L 94.8266 11.1407L 91 13.5086ZM 98 12.0086L 97.1637 16.4302L 97.1637 16.4302L 98 12.0086ZM 117 8.00862L 117.253 3.51571L 117 8.00862ZM 128.5 18.5087L 127.004 22.7526L 127.004 22.7526L 128.5 18.5087ZM 138.5 18.0087L 140.492 13.9735L 140.492 13.9735L 138.5 18.0087ZM 144.5 22.5087L 143.034 26.7633L 143.034 26.7633L 144.5 22.5087ZM 156.346 28.1348C 157.796 30.1529 160.608 30.6132 162.626 29.1628C 164.644 27.7124 165.105 24.9006 163.654 22.8825L 156.346 28.1348ZM -1.74025 1.85879C -4.03217 2.8199 -5.111 5.457 -4.14988 7.74892C -3.18877 10.0408 -0.551662 11.1197 1.74025 10.1585L -1.74025 1.85879ZM 21.5 16.5086C 26.752 16.5086 29.6361 12.381 30.8768 10.9105C 32.4851 9.00443 33.182 8.50862 34.5 8.50862L 34.5 -0.491383C 28.818 -0.491383 25.7649 3.01281 23.9982 5.1067C 21.8639 7.6362 21.748 7.50862 21.5 7.50862L 21.5 16.5086ZM 34.5 8.50862C 35.2334 8.50862 35.7514 8.77839 37.6432 10.3352C 39.2471 11.6551 42.2157 14.2411 46.7373 14.0024L 46.2627 5.01488C 45.6364 5.04795 45.1825 4.88391 43.3621 3.38585C 41.8297 2.12475 38.9216 -0.491383 34.5 -0.491383L 34.5 8.50862ZM 46.7373 14.0024C 50.8798 13.7836 53.4731 11.1996 54.7798 10.008C 56.3532 8.57325 56.6477 8.51202 57.0411 8.50843L 56.9589 -0.491195C 52.7236 -0.452521 50.0793 2.11422 48.7155 3.35787C 47.0851 4.84469 46.7428 4.98953 46.2627 5.01488L 46.7373 14.0024ZM 57.0411 8.50843C 57.3895 8.50525 57.645 8.55502 59.0952 9.61461C 60.3536 10.5341 62.8163 12.4754 66.4592 12.5084L 66.5408 3.5088C 66.1584 3.50534 65.8838 3.4283 64.4048 2.34769C 63.1176 1.40722 60.6358 -0.524769 56.9589 -0.491195L 57.0411 8.50843ZM 66.4592 12.5084C 69.3199 12.5344 71.1878 10.7843 72.1169 9.77414C 73.0395 8.75359 73.8158 7.62841 74.5321 6.76859C 75.8169 5.21299 76.851 4.42785 78.8238 4.50517L 79.1762 -4.48793C 73.149 -4.72413 69.6831 -1.4934 67.5929 1.03731C 66.6217 2.22064 65.9918 3.15623 65.4925 3.68169C 64.9997 4.21757 65.4301 3.49874 66.5408 3.5088L 66.4592 12.5084ZM 78.8238 4.50517C 83.2346 4.67802 85.9866 6.99045 86.5684 10.29L 95.4316 8.72728C 93.9378 0.254231 86.7103 -4.19268 79.1762 -4.48793L 78.8238 4.50517ZM 86.5683 10.2899C 86.5116 9.96792 86.6313 9.52741 86.3922 10.6501C 86.1949 11.5763 85.8115 13.6756 87.1734 15.8765L 94.8266 11.1407C 95.0413 11.4876 95.1634 11.9055 95.1847 12.2938C 95.2009 12.5904 95.1466 12.751 95.1948 12.5247C 95.2058 12.4728 95.3712 11.7824 95.449 11.2634C 95.5477 10.6059 95.6089 9.73235 95.4317 8.72729L 86.5683 10.2899ZM 87.1734 15.8765C 87.6877 16.7078 88.4744 17.583 89.6389 18.1505C 90.5924 18.5394 92.1421 18.7385 92.9373 18.6627C 94.5081 18.4481 95.8471 17.6092 96.3448 17.3092C 97.0279 16.8965 97.4482 16.6056 97.8032 16.4607C 98.0924 16.3304 97.7778 16.5464 97.1637 16.4302L 98.8363 7.587C 96.8486 7.21109 95.1562 7.78189 94.1052 8.25555C 93.1201 8.71466 92.2379 9.27703 91.6982 9.60143C 90.9732 10.0385 91.1692 9.82068 91.7188 9.74558C 92.1497 9.6867 92.8428 9.69999 93.5821 10.0603C 94.3021 10.4113 94.68 10.9038 94.8266 11.1407L 87.1734 15.8765ZM 97.1637 16.4302C 96.6982 16.3422 96.5221 16.1159 96.687 16.2726C 96.953 16.5051 97.2039 16.8598 97.6879 17.4783C 98.1727 18.0976 98.9714 19.0482 99.8432 19.7898C 100.802 20.5301 102.801 21.3973 104.5 21.5087L 104.5 12.5087C 104.767 12.5087 105.024 12.566 105.238 12.6538C 105.177 12.6096 105.583 12.8669 105.528 12.8122C 105.349 12.698 105.218 12.4968 104.775 11.9315C 104.332 11.3654 103.659 10.5028 102.887 9.74869C 102.014 8.91881 100.685 7.93671 98.8363 7.587L 97.1637 16.4302ZM 104.5 21.5087C 107.33 21.5087 109.321 19.6894 110.273 18.7393C 111.34 17.6608 112.355 16.3624 113.263 15.2937C 115.372 12.8058 116.269 12.4746 116.747 12.5015L 117.253 3.51571C 111.779 3.20806 108.176 7.3769 106.399 9.47272C 105.363 10.6959 104.588 11.7102 103.913 12.3714C 103.122 13.1611 103.42 12.5087 104.5 12.5087L 104.5 21.5087ZM 116.747 12.5015C 117.978 12.5035 118.18 12.6195 118.831 13.1804C 119.479 13.626 119.762 14.1117 120.348 15.1406C 120.937 16.156 121.543 17.4643 122.335 18.7375C 123.15 20.0287 124.557 21.8899 127.004 22.7526L 129.996 14.2648C 130.443 14.4223 130.413 14.6745 129.946 13.9351C 129.457 13.1775 128.938 12.0332 128.152 10.6561C 127.363 9.29251 126.021 7.44579 124.388 6.10076C 122.758 4.87113 120.022 3.73854 117.253 3.51571L 116.747 12.5015ZM 127.004 22.7526C 130.283 23.909 133.484 22.8062 134.775 22.4451C 136.685 21.9105 136.67 22.1237 136.508 22.0438L 140.492 13.9735C 137.135 12.3165 133.8 13.3721 132.349 13.778C 130.279 14.3575 130.077 14.2933 129.996 14.2648L 127.004 22.7526ZM 136.508 22.0438C 137.065 22.2384 137.359 22.6556 138.272 23.567C 139.187 24.4788 140.871 25.9144 143.034 26.7633L 145.966 18.254C 145.505 18.1991 145.433 17.9989 144.627 17.1938C 143.818 16.3882 142.423 15.0074 140.492 13.9735L 136.508 22.0438ZM 143.034 26.7633C 144.558 27.2373 146.471 27.3268 147.64 27.1171C 148.883 26.8103 150.104 26.206 150.741 25.8246C 151.991 25.0686 152.01 24.7893 152.5 25.0086L 152.5 16.0086C 149.234 16.2279 147.029 17.5603 146.105 18.1101C 145.656 18.3817 145.797 18.2608 145.8 18.3073C 145.877 18.2567 146.218 18.3917 145.966 18.254L 143.034 26.7633ZM 152.5 25.0086C 153.448 25.0086 153.927 25.1125 154.137 25.1789C 154.412 25.2319 154.175 25.1034 154.347 25.2835C 154.536 25.4264 154.597 25.5385 154.94 26.0473C 155.295 26.5687 155.742 27.2896 156.346 28.1348L 163.654 22.8825C 163.231 22.2984 162.852 21.6797 162.389 20.9956C 161.915 20.2989 161.166 19.3396 160.363 18.5898C 158.279 16.7169 155.694 16.0086 152.5 16.0086L 152.5 25.0086ZM 1.74025 10.1585C 5.26761 8.67935 7.13349 8.55116 8.05742 8.66828C 9.03031 8.65747 9.10963 8.8554 9.97443 9.74735C 10.8638 10.6161 11.9196 12.0962 13.5406 13.5515C 15.4593 15.2214 17.9863 16.5086 21.5 16.5086L 21.5 7.50862C 20.48 7.50862 19.9901 7.23333 19.4493 6.76268C 18.6109 6.07738 17.7647 4.8387 16.35 3.39499C 14.9107 1.97445 12.2839 0.266158 9.18923 -0.260274C 6.04558 -0.658775 2.48239 0.0880201 -1.74025 1.85879L 1.74025 10.1585Z"/>
<path id="path1_fill" d="M 0 4.5C 0 2.01472 2.01472 0 4.5 0L 69.5761 0C 72.0614 0 74.0761 2.01472 74.0761 4.5L 74.0761 4.5C 74.0761 6.98528 72.0614 9 69.5761 9L 4.5 9C 2.01472 9 0 6.98528 0 4.5L 0 4.5Z"/>
<path id="path2_fill" d="M 0 5.36508C 0 2.40203 2.40203 0 5.36508 0L 250.635 0C 253.598 0 256 2.40203 256 5.36508L 256 5.36508C 256 16.7614 246.761 26 235.365 26L 20.6349 26C 9.23857 26 0 16.7614 0 5.36508L 0 5.36508Z"/>
<path id="path3_stroke_2x" d="M 5.36508 9L 250.635 9L 250.635 -9L 5.36508 -9L 5.36508 9ZM 235.365 17L 20.6349 17L 20.6349 35L 235.365 35L 235.365 17ZM 5.36508 -9C -2.56853 -9 -9 -2.56853 -9 5.36508L 9 5.36508C 9 7.37259 7.37259 9 5.36508 9L 5.36508 -9ZM 250.635 9C 248.627 9 247 7.37259 247 5.36508L 265 5.36508C 265 -2.56853 258.569 -9 250.635 -9L 250.635 9ZM 247 5.36508C 247 11.7909 241.791 17 235.365 17L 235.365 35C 251.732 35 265 21.732 265 5.36508L 247 5.36508ZM 20.6349 17C 14.2091 17 9 11.7909 9 5.36508L -9 5.36508C -9 21.732 4.26801 35 20.6349 35L 20.6349 17Z"/>
<path id="path4_fill" d="M 0 0L 208 0L 206.329 10.2663C 203.257 29.1383 186.956 43 167.835 43L 40.1645 43C 21.0442 43 4.74345 29.1383 1.67127 10.2663L 0 0Z"/>
<path id="path5_stroke_2x" d="M 0 0L 0 -9L -10.5836 -9L -8.88307 1.44608L 0 0ZM 208 0L 216.883 1.44608L 218.584 -9L 208 -9L 208 0ZM 1.67127 10.2663L -7.2118 11.7124L 1.67127 10.2663ZM 0 9L 208 9L 208 -9L 0 -9L 0 9ZM 199.117 -1.44608L 197.446 8.82027L 215.212 11.7124L 216.883 1.44608L 199.117 -1.44608ZM 167.835 34L 40.1645 34L 40.1645 52L 167.835 52L 167.835 34ZM 10.5543 8.82027L 8.88307 -1.44608L -8.88307 1.44608L -7.2118 11.7124L 10.5543 8.82027ZM 197.446 8.82027C 195.082 23.3372 182.543 34 167.835 34L 167.835 52C 191.368 52 211.431 34.9395 215.212 11.7124L 197.446 8.82027ZM 40.1645 34C 25.4566 34 12.9175 23.3372 10.5543 8.82027L -7.2118 11.7124C -3.43065 34.9395 16.6318 52 40.1645 52L 40.1645 34Z"/>
<path id="path6_stroke" d="M 11.6354 3.6618C 13.6578 2.21726 14.1262 -0.593215 12.6816 -2.61557C 11.2371 -4.63793 8.42662 -5.10634 6.40426 -3.6618L 11.6354 3.6618ZM 0.0198465 13.5L 4.50903 13.8118L 4.51985 13.6561L 4.51985 13.5L 0.0198465 13.5ZM -1.88674 39.9239C -4.13793 40.9768 -5.10927 43.6554 -4.0563 45.9066C -3.00332 48.1578 -0.324762 49.1291 1.92643 48.0761L -1.88674 39.9239ZM 6.40426 -3.6618C 3.37771 -1.49998 -4.48015 2.79921 -4.48015 13.5L 4.51985 13.5C 4.51985 8.20079 7.66196 6.49998 11.6354 3.6618L 6.40426 -3.6618ZM -4.46934 13.1882C -4.88206 19.1305 -1.00558 23.2644 1.21057 25.7566C 3.94717 28.8342 5.01985 30.2713 5.01985 32L 14.0198 32C 14.0198 26.2287 10.0805 22.1877 7.93616 19.7761C 5.27133 16.7793 4.39781 15.4131 4.50903 13.8118L -4.46934 13.1882ZM 5.01985 32C 5.01985 35.2751 3.04769 37.6158 -1.88674 39.9239L 1.92643 48.0761C 7.82017 45.3194 14.0198 40.6791 14.0198 32L 5.01985 32Z"/>
<path id="path7_stroke" d="M 2.81113 -3.51391C 0.870449 -5.06645 -1.96137 -4.75181 -3.51391 -2.81113C -5.06645 -0.870449 -4.75181 1.96137 -2.81113 3.51391L 2.81113 -3.51391ZM -2.31523 59.1413C -4.44634 60.4199 -5.13738 63.1841 -3.85872 65.3152C -2.58005 67.4463 0.18412 68.1374 2.31523 66.8587L -2.31523 59.1413ZM -2.81113 3.51391C 2.27637 7.58391 5 10.8632 5 14.5L 14 14.5C 14 6.13682 7.72363 0.41609 2.81113 -3.51391L -2.81113 3.51391ZM 5 14.5C 5 16.286 4.10901 17.4131 1.54945 20.0028C -0.699803 22.2785 -4.5 25.9304 -4.5 32L 4.5 32C 4.5 30.0696 5.4498 28.8596 7.95055 26.3294C 10.141 24.1132 14 20.4903 14 14.5L 5 14.5ZM -4.5 32C -4.5 37.94 -0.858648 41.8832 1.41309 44.3941C 4.13211 47.3993 5 48.5662 5 50L 14 50C 14 44.4338 10.1179 40.6007 8.08691 38.3559C 5.60865 35.6168 4.5 34.06 4.5 32L -4.5 32ZM 5 50C 5 53.3909 2.50354 56.25 -2.31523 59.1413L 2.31523 66.8587C 7.49646 63.75 14 58.5632 14 50L 5 50Z"/>
</defs>
</svg>
