<svg width="212" height="224" viewBox="0 0 212 224" version="1.1" xmlns="http://www.w3.org/2000/svg" xmlns:xlink="http://www.w3.org/1999/xlink">
<title>Medal</title>
<desc>Created using Figma</desc>
<g id="Canvas" transform="translate(896 799)">
<clipPath id="clip-0" clip-rule="evenodd">
<path d="M -896 -799L -684 -799L -684 -575L -896 -575L -896 -799Z" fill="#FFFFFF"/>
</clipPath>
<g id="Medal" clip-path="url(#clip-0)">
<g id="Vector 2">
<use xlink:href="#path0_stroke" transform="matrix(0.5 -0.866025 0.866025 0.5 -780.061 -609.89)" fill="#1B87E5"/>
</g>
<g id="Vector 2">
<use xlink:href="#path1_stroke" transform="translate(-888 -660)" fill="#1B87E5"/>
</g>
<g id="Ellipse">
<mask id="mask0_outline_ins">
<use xlink:href="#path2_fill" fill="white" transform="translate(-880 -799)"/>
</mask>
<g mask="url(#mask0_outline_ins)">
<use xlink:href="#path3_stroke_2x" transform="translate(-880 -799)" fill="#1B87E5"/>
</g>
</g>
<g id="Star">
<use xlink:href="#path4_stroke" transform="translate(-846 -762)" fill="#1B87E5"/>
</g>
</g>
</g>
<defs>
<path id="path0_stroke" d="M 0 39.9346L -3.81913 37.5546L -8.05507 44.352L -0.0462677 44.4344L 0 39.9346ZM 32.4182 40.268L 36.3645 38.1055L 35.0986 35.7953L 32.4645 35.7682L 32.4182 40.268ZM 48.3091 69.2679L 44.3627 71.4304L 48.2913 78.5999L 52.2472 71.4454L 48.3091 69.2679ZM 21.067 -2.37997L -3.81913 37.5546L 3.81913 42.3146L 28.7053 2.37997L 21.067 -2.37997ZM -0.0462677 44.4344L 32.3719 44.7677L 32.4645 35.7682L 0.0462677 35.4349L -0.0462677 44.4344ZM 28.4718 42.4304L 44.3627 71.4304L 52.2555 67.1055L 36.3645 38.1055L 28.4718 42.4304ZM 52.2472 71.4454L 76.4022 27.7591L 68.526 23.4042L 44.371 67.0905L 52.2472 71.4454Z"/>
<path id="path1_stroke" d="M 0 42.6667L -3.85799 40.3502L -7.90212 47.0857L -0.0462677 47.1664L 0 42.6667ZM 32.4182 43L 36.3645 40.8375L 35.0986 38.5273L 32.4645 38.5002L 32.4182 43ZM 48.3091 72L 44.3627 74.1625L 48.1526 81.0788L 52.1786 74.2972L 48.3091 72ZM 21.7602 -2.31644L -3.85799 40.3502L 3.85799 44.9831L 29.4762 2.31644L 21.7602 -2.31644ZM -0.0462677 47.1664L 32.3719 47.4998L 32.4645 38.5002L 0.0462677 38.1669L -0.0462677 47.1664ZM 28.4718 45.1625L 44.3627 74.1625L 52.2555 69.8375L 36.3645 40.8375L 28.4718 45.1625ZM 52.1786 74.2972L 74.8695 36.0749L 67.1305 31.4806L 44.4396 69.7028L 52.1786 74.2972Z"/>
<path id="path2_fill" d="M 178 89.5C 178 138.929 138.153 179 89 179C 39.8467 179 0 138.929 0 89.5C 0 40.0705 39.8467 0 89 0C 138.153 0 178 40.0705 178 89.5Z"/>
<path id="path3_stroke_2x" d="M 169 89.5C 169 134.007 133.135 170 89 170L 89 188C 143.171 188 187 143.852 187 89.5L 169 89.5ZM 89 170C 44.8647 170 9 134.007 9 89.5L -9 89.5C -9 143.852 34.8286 188 89 188L 89 170ZM 9 89.5C 9 44.9935 44.8647 9 89 9L 89 -9C 34.8286 -9 -9 35.1476 -9 89.5L 9 89.5ZM 89 9C 133.135 9 169 44.9935 169 89.5L 187 89.5C 187 35.1476 143.171 -9 89 -9L 89 9Z"/>
<path id="path4_stroke" d="M 54.5 0L 58.6506 -1.73844C 57.95 -3.41127 56.3136 -4.5 54.5 -4.5C 52.6864 -4.5 51.05 -3.41127 50.3494 -1.73844L 54.5 0ZM 68.9795 34.5707L 64.8289 36.3091C 65.4777 37.8582 66.935 38.917 68.6088 39.0554L 68.9795 34.5707ZM 106.333 37.6586L 109.269 41.0689C 110.643 39.8856 111.173 37.9929 110.612 36.268C 110.052 34.5431 108.511 33.3233 106.703 33.1739L 106.333 37.6586ZM 77.9283 62.1123L 74.9923 58.702C 73.7196 59.7978 73.1629 61.511 73.5486 63.1456L 77.9283 62.1123ZM 86.5343 98.5914L 84.1982 102.438C 85.7483 103.379 87.7121 103.298 89.1793 102.232C 90.6466 101.166 91.3305 99.3233 90.9141 97.5582L 86.5343 98.5914ZM 54.5 79.134L 56.8361 75.2879C 55.4007 74.416 53.5993 74.416 52.1639 75.2879L 54.5 79.134ZM 22.4657 98.5914L 18.0859 97.5582C 17.6695 99.3233 18.3534 101.166 19.8207 102.232C 21.2879 103.298 23.2517 103.379 24.8018 102.438L 22.4657 98.5914ZM 31.0717 62.1123L 35.4514 63.1456C 35.8371 61.511 35.2804 59.7978 34.0077 58.702L 31.0717 62.1123ZM 2.66742 37.6586L 2.29668 33.1739C 0.489217 33.3233 -1.05189 34.5431 -1.61233 36.268C -2.17278 37.9929 -1.643 39.8856 -0.268557 41.0689L 2.66742 37.6586ZM 40.0205 34.5707L 40.3912 39.0554C 42.065 38.917 43.5223 37.8582 44.1711 36.3091L 40.0205 34.5707ZM 50.3494 1.73844L 64.8289 36.3091L 73.1301 32.8322L 58.6506 -1.73844L 50.3494 1.73844ZM 68.6088 39.0554L 105.962 42.1433L 106.703 33.1739L 69.3502 30.086L 68.6088 39.0554ZM 103.397 34.2483L 74.9923 58.702L 80.8643 65.5226L 109.269 41.0689L 103.397 34.2483ZM 73.5486 63.1456L 82.1545 99.6247L 90.9141 97.5582L 82.3081 61.0791L 73.5486 63.1456ZM 88.8704 94.7453L 56.8361 75.2879L 52.1639 82.9801L 84.1982 102.438L 88.8704 94.7453ZM 52.1639 75.2879L 20.1296 94.7453L 24.8018 102.438L 56.8361 82.9801L 52.1639 75.2879ZM 26.8455 99.6247L 35.4514 63.1456L 26.6919 61.0791L 18.0859 97.5582L 26.8455 99.6247ZM 34.0077 58.702L 5.6034 34.2483L -0.268557 41.0689L 28.1357 65.5226L 34.0077 58.702ZM 3.03816 42.1433L 40.3912 39.0554L 39.6498 30.086L 2.29668 33.1739L 3.03816 42.1433ZM 44.1711 36.3091L 58.6506 1.73844L 50.3494 -1.73844L 35.8699 32.8322L 44.1711 36.3091Z"/>
</defs>
</svg>
