<svg width="218" height="210" viewBox="0 0 218 210" version="1.1" xmlns="http://www.w3.org/2000/svg" xmlns:xlink="http://www.w3.org/1999/xlink">
<title>meds+clock</title>
<desc>Created using Figma</desc>
<g id="Canvas" transform="translate(613 -1202)">
<g id="meds+clock">
<g id="Group">
<g id="Ellipse 4">
<mask id="mask0_outline_ins">
<use xlink:href="#path0_fill" fill="white" transform="translate(-493 1202)"/>
</mask>
<g mask="url(#mask0_outline_ins)">
<use xlink:href="#path1_stroke_2x" transform="translate(-493 1202)" fill="#1B87E5"/>
</g>
</g>
<g id="Rectangle 14">
<use xlink:href="#path2_fill" transform="matrix(6.12323e-17 -1 1 6.12323e-17 -447.651 1256.42)" fill="#1B87E5"/>
</g>
<g id="Rectangle 14">
<use xlink:href="#path3_fill" transform="matrix(0.866025 0.5 -0.5 0.866025 -442.67 1249.89)" fill="#1B87E5"/>
</g>
</g>
<g id="Meds">
<g id="Rectangle 6">
<mask id="mask1_outline_ins">
<use xlink:href="#path4_fill" fill="white" transform="translate(-613 1286)"/>
</mask>
<g mask="url(#mask1_outline_ins)">
<use xlink:href="#path5_stroke_2x" transform="translate(-613 1286)" fill="#1B87E5"/>
</g>
</g>
<g id="Rectangle 5">
<mask id="mask2_outline_ins">
<use xlink:href="#path6_fill" fill="white" transform="translate(-606 1234)"/>
</mask>
<g mask="url(#mask2_outline_ins)">
<use xlink:href="#path7_stroke_2x" transform="translate(-606 1234)" fill="#1B87E5"/>
</g>
</g>
<g id="Rectangle 7">
<use xlink:href="#path8_fill" transform="translate(-528 1382)" fill="#FFFFFF"/>
<mask id="mask3_outline_ins">
<use xlink:href="#path8_fill" fill="white" transform="translate(-528 1382)"/>
</mask>
<g mask="url(#mask3_outline_ins)">
<use xlink:href="#path9_stroke_2x" transform="translate(-528 1382)" fill="#1B87E5"/>
</g>
</g>
<g id="Rectangle 8">
<use xlink:href="#path10_fill" transform="translate(-503 1382)" fill="#1B87E5"/>
</g>
<g id="Union">
<use xlink:href="#path11_fill" transform="translate(-575 1324)" fill="#1B87E5"/>
</g>
<g id="Rectangle 9">
<mask id="mask4_outline_ins">
<use xlink:href="#path12_fill" fill="white" transform="translate(-613 1308)"/>
</mask>
<g mask="url(#mask4_outline_ins)">
<use xlink:href="#path13_stroke_2x" transform="translate(-613 1308)" fill="#1B87E5"/>
</g>
</g>
<g id="Vector 6">
<use xlink:href="#path14_stroke" transform="translate(-607 1260)" fill="#1B87E5"/>
</g>
</g>
</g>
</g>
<defs>
<path id="path0_fill" d="M 98 49C 98 76.062 76.062 98 49 98C 21.938 98 0 76.062 0 49C 0 21.938 21.938 0 49 0C 76.062 0 98 21.938 98 49Z"/>
<path id="path1_stroke_2x" d="M 89 49C 89 71.0914 71.0914 89 49 89L 49 107C 81.0325 107 107 81.0325 107 49L 89 49ZM 49 89C 26.9086 89 9 71.0914 9 49L -9 49C -9 81.0325 16.9675 107 49 107L 49 89ZM 9 49C 9 26.9086 26.9086 9 49 9L 49 -9C 16.9675 -9 -9 16.9675 -9 49L 9 49ZM 49 9C 71.0914 9 89 26.9086 89 49L 107 49C 107 16.9675 81.0325 -9 49 -9L 49 9Z"/>
<path id="path2_fill" d="M 0 2C 0 0.895431 0.895431 0 2 0L 30.8145 0C 31.919 0 32.8145 0.895431 32.8145 2L 32.8145 5.99C 32.8145 7.09457 31.919 7.99 30.8145 7.99L 2 7.99C 0.895431 7.99 0 7.09457 0 5.99L 0 2Z"/>
<path id="path3_fill" d="M 0 2C 0 0.895431 0.895431 0 2 0L 21.0588 0C 22.1634 0 23.0588 0.895431 23.0588 2L 23.0588 5.99C 23.0588 7.09457 22.1634 7.99 21.0588 7.99L 2 7.99C 0.895431 7.99 0 7.09457 0 5.99L 0 2Z"/>
<path id="path4_fill" d="M 0 8C 0 3.58172 3.58172 0 8 0L 97 0C 101.418 0 105 3.58172 105 8L 105 113C 105 120.18 99.1797 126 92 126L 13 126C 5.8203 126 0 120.18 0 113L 0 8Z"/>
<path id="path5_stroke_2x" d="M 8 9L 97 9L 97 -9L 8 -9L 8 9ZM 96 8L 96 113L 114 113L 114 8L 96 8ZM 92 117L 13 117L 13 135L 92 135L 92 117ZM 9 113L 9 8L -9 8L -9 113L 9 113ZM 8 -9C -1.38884 -9 -9 -1.38884 -9 8L 9 8C 9 8.55229 8.55229 9 8 9L 8 -9ZM 97 9C 96.4477 9 96 8.55229 96 8L 114 8C 114 -1.38884 106.389 -9 97 -9L 97 9ZM 96 113C 96 115.209 94.2091 117 92 117L 92 135C 104.15 135 114 125.15 114 113L 96 113ZM 13 117C 10.7909 117 9 115.209 9 113L -9 113C -9 125.15 0.849735 135 13 135L 13 117Z"/>
<path id="path6_fill" d="M 0 9C 0 4.02944 4.02944 0 9 0L 81 0C 85.9706 0 90 4.02944 90 9L 90 21C 90 25.9706 85.9706 30 81 30L 9 30C 4.02944 30 0 25.9706 0 21L 0 9Z"/>
<path id="path7_stroke_2x" d="M 9 9L 81 9L 81 -9L 9 -9L 9 9ZM 81 9L 81 21L 99 21L 99 9L 81 9ZM 81 21L 9 21L 9 39L 81 39L 81 21ZM 9 21L 9 9L -9 9L -9 21L 9 21ZM 9 -9C -0.941126 -9 -9 -0.941126 -9 9L 9 9L 9 -9ZM 81 9L 99 9C 99 -0.941126 90.9411 -9 81 -9L 81 9ZM 81 21L 81 39C 90.9411 39 99 30.9411 99 21L 81 21ZM 9 21L -9 21C -9 30.9411 -0.941126 39 9 39L 9 21Z"/>
<path id="path8_fill" d="M 0 15C 0 6.71573 6.71573 0 15 0L 44 0C 52.2843 0 59 6.71573 59 15C 59 23.2843 52.2843 30 44 30L 15 30C 6.71573 30 0 23.2843 0 15Z"/>
<path id="path9_stroke_2x" d="M 15 9L 44 9L 44 -9L 15 -9L 15 9ZM 44 21L 15 21L 15 39L 44 39L 44 21ZM 15 -9C 1.74517 -9 -9 1.74517 -9 15L 9 15C 9 11.6863 11.6863 9 15 9L 15 -9ZM 44 9C 47.3137 9 50 11.6863 50 15L 68 15C 68 1.74517 57.2548 -9 44 -9L 44 9ZM 50 15C 50 18.3137 47.3137 21 44 21L 44 39C 57.2548 39 68 28.2548 68 15L 50 15ZM 15 21C 11.6863 21 9 18.3137 9 15L -9 15C -9 28.2548 1.74517 39 15 39L 15 21Z"/>
<path id="path10_fill" d="M 0 0L 9 0L 9 30L 0 30L 0 0Z"/>
<path id="path11_fill" fill-rule="evenodd" d="M 14.5 0C 11.4625 0 9 2.46243 9 5.5L 9 9L 5.5 9C 2.46246 9 0 11.4624 0 14.5C 0 17.5376 2.46246 20 5.5 20L 9 20L 9 23.5C 9 26.5376 11.4625 29 14.5 29C 17.5375 29 20 26.5376 20 23.5L 20 20L 23.5 20C 26.5375 20 29 17.5376 29 14.5C 29 11.4624 26.5375 9 23.5 9L 20 9L 20 5.5C 20 2.46243 17.5375 0 14.5 0Z"/>
<path id="path12_fill" d="M 0 0L 105 0L 105 62L 0 62L 0 0Z"/>
<path id="path13_stroke_2x" d="M 0 0L 0 -9L -9 -9L -9 0L 0 0ZM 105 0L 114 0L 114 -9L 105 -9L 105 0ZM 105 62L 105 71L 114 71L 114 62L 105 62ZM 0 62L -9 62L -9 71L 0 71L 0 62ZM 0 9L 105 9L 105 -9L 0 -9L 0 9ZM 96 0L 96 62L 114 62L 114 0L 96 0ZM 105 53L 0 53L 0 71L 105 71L 105 53ZM 9 62L 9 0L -9 0L -9 62L 9 62Z"/>
<path id="path14_stroke" d="M 0 31L -3.24563 27.883C -4.4949 29.1838 -4.84683 31.1048 -4.13984 32.764C -3.43286 34.4232 -1.80354 35.5 0 35.5L 0 31ZM 14.2656 16.1458L 17.5112 19.2629C 18.3161 18.4248 18.7656 17.3078 18.7656 16.1458L 14.2656 16.1458ZM 14.2656 0L 14.2656 -4.5C 11.7803 -4.5 9.7656 -2.48528 9.7656 9.99201e-16L 14.2656 0ZM 76.7391 0L 81.2391 0C 81.2391 -2.48528 79.2244 -4.5 76.7391 -4.5L 76.7391 0ZM 76.7391 16.1458L 72.2391 16.1458C 72.2391 17.4099 72.7708 18.6157 73.7041 19.4683L 76.7391 16.1458ZM 93 31L 93 35.5C 94.8571 35.5 96.5235 34.3591 97.1953 32.6277C 97.8671 30.8963 97.4062 28.9301 96.035 27.6776L 93 31ZM 3.24563 34.117L 17.5112 19.2629L 11.02 13.0288L -3.24563 27.883L 3.24563 34.117ZM 18.7656 16.1458L 18.7656 0L 9.7656 0L 9.7656 16.1458L 18.7656 16.1458ZM 14.2656 4.5L 76.7391 4.5L 76.7391 -4.5L 14.2656 -4.5L 14.2656 4.5ZM 72.2391 0L 72.2391 16.1458L 81.2391 16.1458L 81.2391 0L 72.2391 0ZM 73.7041 19.4683L 89.965 34.3224L 96.035 27.6776L 79.7741 12.8234L 73.7041 19.4683ZM 93 26.5L 0 26.5L 0 35.5L 93 35.5L 93 26.5Z"/>
</defs>
</svg>
