<svg width="237" height="233" viewBox="0 0 237 233" version="1.1" xmlns="http://www.w3.org/2000/svg" xmlns:xlink="http://www.w3.org/1999/xlink">
<title>people</title>
<desc>Created using Figma</desc>
<g id="Canvas" transform="translate(513 -1656)">
<g id="people">
<g id="Subtract">
<use xlink:href="#path0_fill" transform="translate(-480.714 1656)" fill="#1B87E5"/>
</g>
<g id="Rectangle 29">
<mask id="mask0_outline_ins">
<use xlink:href="#path1_fill" fill="white" transform="translate(-513 1781)"/>
</mask>
<g mask="url(#mask0_outline_ins)">
<use xlink:href="#path2_stroke_2x" transform="translate(-513 1781)" fill="#1D84DE"/>
</g>
</g>
<g id="Rectangle 29">
<mask id="mask1_outline_ins">
<use xlink:href="#path1_fill" fill="white" transform="translate(-362 1781)"/>
</mask>
<g mask="url(#mask1_outline_ins)">
<use xlink:href="#path2_stroke_2x" transform="translate(-362 1781)" fill="#1D84DE"/>
</g>
</g>
<g id="Rectangle 29">
<use xlink:href="#path3_fill" transform="translate(-458 1791.46)" fill="#FFFFFF"/>
<mask id="mask2_outline_ins">
<use xlink:href="#path3_fill" fill="white" transform="translate(-458 1791.46)"/>
</mask>
<g mask="url(#mask2_outline_ins)">
<use xlink:href="#path4_stroke_2x" transform="translate(-458 1791.46)" fill="#1D84DE"/>
</g>
</g>
<g id="Rectangle 28">
<use xlink:href="#path5_fill" transform="translate(-436 1826)" fill="#1D84DE"/>
</g>
<g id="Rectangle 28">
<use xlink:href="#path5_fill" transform="translate(-362 1826)" fill="#1D84DE"/>
</g>
<g id="Rectangle 28">
<use xlink:href="#path6_fill" transform="translate(-300.992 1804.66)" fill="#1D84DE"/>
</g>
<g id="Rectangle 28">
<use xlink:href="#path6_fill" transform="translate(-495.992 1804.66)" fill="#1D84DE"/>
</g>
<g id="Rectangle 28">
<use xlink:href="#path7_fill" transform="translate(-399 1802)" fill="#1D84DE"/>
</g>
<g id="Rectangle 27">
<use xlink:href="#path8_fill" transform="translate(-486 1741)" fill="#1D84DE"/>
</g>
<g id="Rectangle 27">
<use xlink:href="#path9_fill" transform="translate(-315.667 1741)" fill="#1D84DE"/>
</g>
<g id="Rectangle 27">
<use xlink:href="#path9_fill" transform="translate(-334 1741)" fill="#1D84DE"/>
</g>
<g id="Group">
<g id="Vector 18">
<use xlink:href="#path10_stroke" transform="translate(-344 1706)" fill="#1D84DE"/>
</g>
<g id="Vector 19">
<use xlink:href="#path11_stroke" transform="translate(-343.358 1725.91)" fill="#1D84DE"/>
</g>
</g>
<g id="Vector 18">
<use xlink:href="#path12_stroke" transform="translate(-496 1708.23)" fill="#1D84DE"/>
</g>
<g id="Vector 21">
<use xlink:href="#path13_stroke" transform="translate(-493 1725.5)" fill="#1D84DE"/>
</g>
<g id="Group">
<g id="Vector 18">
<use xlink:href="#path14_stroke" transform="translate(-427.339 1699.5)" fill="#1D84DE"/>
</g>
<g id="Rectangle 27">
<use xlink:href="#path15_fill" transform="translate(-391 1748)" fill="#1D84DE"/>
</g>
<g id="Rectangle 27">
<use xlink:href="#path15_fill" transform="translate(-413 1748)" fill="#1D84DE"/>
</g>
<g id="Vector 19">
<use xlink:href="#path16_stroke" transform="translate(-426.5 1725.5)" fill="#1D84DE"/>
</g>
</g>
<g id="Vector 20">
<use xlink:href="#path17_stroke" transform="translate(-420 1799.5)" fill="#1D84DE"/>
</g>
<g id="Vector 22">
<use xlink:href="#path18_stroke" transform="translate(-501.5 1759)" fill="#1D84DE"/>
</g>
<g id="Vector 22">
<use xlink:href="#path18_stroke" transform="matrix(-1 0 0 1 -440.5 1759)" fill="#1D84DE"/>
</g>
</g>
</g>
<defs>
<path id="path0_fill" fill-rule="evenodd" d="M 155.462 197C 136.494 213.8 111.545 224 84.2143 224C 56.8832 224 31.9343 213.8 12.9664 197L 0 197C 21.2108 219.183 51.099 233 84.2143 233C 117.33 233 147.218 219.183 168.429 197L 155.462 197ZM 12.9664 36C 31.9343 19.1996 56.8832 9 84.2143 9C 111.545 9 136.494 19.1996 155.462 36L 168.429 36C 147.218 13.8168 117.33 0 84.2143 0C 51.099 0 21.2108 13.8168 0 36L 12.9664 36Z"/>
<path id="path1_fill" d="M 20.315 0.367702C 29.0086 -1.65646 33.7422 5.34478 42.6614 5.16244C 50.8063 4.99592 57.6752 -1.13604 65.685 0.367702C 78.6115 3.69596 83.3808 18.2457 85.089 26.8345C 85.9004 30.9143 84.4789 35.0436 81.1393 37.5236C 74.857 42.1889 62.3685 49 43 49C 23.536 49 11.02 42.1216 4.76819 37.4548C 1.48805 35.0062 0.0691637 30.9601 0.825625 26.9373C 2.43812 18.3624 7.10079 3.70928 20.315 0.367702Z"/>
<path id="path2_stroke_2x" d="M 20.315 0.367702L 18.2741 -8.39784L 18.1911 -8.37852L 18.1085 -8.35764L 20.315 0.367702ZM 65.685 0.367702L 67.9291 -8.34803L 67.6396 -8.42259L 67.3457 -8.47777L 65.685 0.367702ZM 85.089 26.8345L 93.9161 25.0789L 85.089 26.8345ZM 42.6614 5.16244L 42.4775 -3.83568L 42.6614 5.16244ZM 81.1393 37.5236L 75.7736 30.2981L 81.1393 37.5236ZM 4.76819 37.4548L -0.615517 44.6669L 4.76819 37.4548ZM 63.4409 9.08344C 66.8474 9.96051 69.5773 12.3583 71.8403 16.198C 74.3357 20.2831 75.4815 24.6325 76.2619 28.5901L 93.9161 25.0789C 92.9883 20.4477 90.8954 13.2279 87.3475 7.05877C 83.5671 0.644354 77.4492 -5.89685 67.9291 -8.34803L 63.4409 9.08344ZM 9.6706 28.6006C 10.4053 24.6566 11.501 20.322 13.985 16.2396C 16.2193 12.4262 18.9704 9.99103 22.5214 9.09304L 18.1085 -8.35764C 8.44539 -5.91405 2.25804 0.648123 -1.54569 7.14034C -5.09965 13.3636 -7.14154 20.6431 -8.01935 25.274L 9.6706 28.6006ZM 75.7736 30.2981C 70.755 34.0249 60.1055 40 43 40L 43 58C 64.6314 58 78.959 50.3529 86.505 44.7492L 75.7736 30.2981ZM 43 40C 25.8111 40 15.1403 33.9663 10.1519 30.2426L -0.615517 44.6669C 6.89966 50.2768 21.2609 58 43 58L 43 40ZM 22.3559 9.13324C 24.0942 8.3377 24.6562 8.94819 27.8094 10.3256C 30.9795 11.7031 36.2256 14.034 42.8454 14.1606L 42.4775 -3.83568C 40.178 -3.52674 38.5977 -4.60531 34.9978 -6.17679C 31.381 -7.74841 25.2294 -9.62647 18.2741 -8.39784L 22.3559 9.13324ZM 42.8454 14.1606C 48.5997 13.8836 53.774 11.883 57.3137 10.5917C 61.0404 9.22948 62.6691 8.95873 64.0244 9.21317L 67.3457 -8.47777C 60.6911 -9.72707 54.8805 -7.68371 51.1341 -6.31426C 47.2007 -4.87387 44.8681 -3.7253 42.4775 -3.83568L 42.8454 14.1606ZM 76.2619 28.5901C 76.3581 29.0741 76.3024 29.4556 76.2095 29.7121C 76.1224 29.9524 75.9857 30.1406 75.7736 30.2981L 86.505 44.7492C 92.8626 40.028 95.3493 32.285 93.9161 25.0789L 76.2619 28.5901ZM -8.01935 25.274C -9.3601 32.4039 -6.86208 40.0041 -0.615517 44.6669L 10.1519 30.2426C 9.94516 30.0882 9.81335 29.9061 9.72904 29.6771C 9.63918 29.433 9.58265 29.0683 9.6706 28.6006L -8.01935 25.274Z"/>
<path id="path3_fill" d="M 30 0.536821C 42.8383 -2.41833 49.8286 7.80304 63 7.53682C 75.028 7.29371 85.1716 -1.65854 97 0.536821C 117.639 5.79045 124.197 30.1955 126.184 42.0458C 126.878 46.1829 125.451 50.3282 122.187 52.9628C 113.908 59.6448 94.7791 71.5368 63.5 71.5368C 32.1044 71.5368 12.9501 59.556 4.72121 52.8884C 1.5142 50.2898 0.0908392 46.232 0.729102 42.154C 2.57741 30.3448 8.92127 5.8065 30 0.536821Z"/>
<path id="path4_stroke_2x" d="M 30 0.536821L 27.9812 -8.23383L 27.899 -8.21491L 27.8172 -8.19446L 30 0.536821ZM 97 0.536821L 99.2201 -8.18505L 98.9333 -8.25805L 98.6424 -8.31206L 97 0.536821ZM 0.729102 42.154L -8.16265 40.7624L 0.729102 42.154ZM 63 7.53682L 62.8181 -1.46134L 62.8181 -1.46134L 63 7.53682ZM 94.7799 9.2587C 101.807 11.0475 106.902 16.1499 110.675 23.1076C 114.644 30.2623 116.367 37.8981 117.308 43.5343L 135.06 40.5573C 134.013 34.3432 131.464 23.8513 126.498 14.5275C 121.336 5.00674 112.832 -4.72021 99.2201 -8.18505L 94.7799 9.2587ZM 9.62085 43.5457C 10.4939 37.9356 12.1314 30.3142 16.0778 23.1593C 19.8086 16.2292 24.9348 11.0801 32.1828 9.2681L 27.8172 -8.19446C 13.9864 -4.73678 5.4014 5.01814 0.22853 14.6269C -4.72883 24.0109 -7.18738 34.5633 -8.16265 40.7624L 9.62085 43.5457ZM 116.534 45.9593C 109.507 51.6311 92.3143 62.5368 63.5 62.5368L 63.5 80.5368C 97.2438 80.5368 118.308 67.6585 127.839 59.9664L 116.534 45.9593ZM 63.5 62.5368C 34.5792 62.5368 17.3655 51.5501 10.3871 45.8957L -0.944725 59.881C 8.53469 67.5619 29.6297 80.5368 63.5 80.5368L 63.5 62.5368ZM 32.0188 9.30747C 35.857 8.04167 38.0469 9.2373 42.8154 11.2946C 47.6005 13.3519 54.4571 16.4545 63.1819 16.535L 62.8181 -1.46134C 58.3715 -1.11468 55.1473 -2.98961 49.9348 -5.23764C 44.7058 -7.4857 36.9814 -9.92318 27.9812 -8.23383L 32.0188 9.30747ZM 63.1819 16.535C 70.8609 16.2237 77.8111 13.5075 83.1336 11.5867C 88.6384 9.59738 92.0634 8.77429 95.3576 9.3857L 98.6424 -8.31206C 90.1081 -9.89602 82.5471 -7.34065 77.0161 -5.34189C 71.3027 -3.27466 67.1671 -1.3932 62.8181 -1.46134L 63.1819 16.535ZM 117.308 43.5343C 117.504 44.7053 117.087 45.5135 116.534 45.9593L 127.839 59.9664C 133.816 55.143 136.251 47.6606 135.06 40.5573L 117.308 43.5343ZM -8.16265 40.7624C -9.26158 47.7837 -6.81794 55.1221 -0.944725 59.881L 10.3871 45.8957C 9.84634 45.4575 9.44326 44.6804 9.62085 43.5457L -8.16265 40.7624Z"/>
<path id="path5_fill" d="M 0 4.5C 0 2.01472 2.01472 0 4.5 0L 4.5 0C 6.98528 0 9 2.01472 9 4.5L 9 21.5C 9 23.9853 6.98528 26 4.5 26L 4.5 26C 2.01472 26 0 23.9853 0 21.5L 0 4.5Z"/>
<path id="path6_fill" d="M 0 4.5C 0 2.01472 2.01472 0 4.5 0L 4.5 0C 6.98528 0 9 2.01472 9 4.5L 9 13.309C 9 15.7943 6.98528 17.809 4.5 17.809L 4.5 17.809C 2.01472 17.809 0 15.7943 0 13.309L 0 4.5Z"/>
<path id="path7_fill" d="M 0 4.5C 0 2.01472 2.01472 0 4.5 0L 4.5 0C 6.98528 0 9 2.01472 9 4.5L 9 54.5C 9 56.9853 6.98528 59 4.5 59L 4.5 59C 2.01472 59 0 56.9853 0 54.5L 0 4.5Z"/>
<path id="path8_fill" d="M 0 3.5C 0 1.567 1.567 0 3.5 0L 8.5 0C 10.433 0 12 1.567 12 3.5L 12 3.5C 12 5.433 10.433 7 8.5 7L 3.5 7C 1.567 7 0 5.433 0 3.5L 0 3.5Z"/>
<path id="path9_fill" d="M 0 3.5C 0 1.567 1.567 0 3.5 0L 8.16667 0C 10.0997 0 11.6667 1.567 11.6667 3.5L 11.6667 3.5C 11.6667 5.433 10.0997 7 8.16667 7L 3.5 7C 1.567 7 0 5.433 0 3.5L 0 3.5Z"/>
<path id="path10_stroke" d="M 0.642154 29.0971L 5.081 28.3578C 5.07313 28.3105 5.0645 28.2634 5.05513 28.2164L 0.642154 29.0971ZM 0.642154 17.6114L -3.61796 16.1618L -3.61796 16.1618L 0.642154 17.6114ZM 14.7991 5.74286L 16.5616 9.88334C 18.5232 9.04834 19.6296 6.95144 19.2118 4.86086L 14.7991 5.74286ZM 13.6512 0L 16.5183 -3.46842C 15.0504 -4.68181 12.9776 -4.83976 11.3428 -3.8628C 9.70798 -2.88584 8.8652 -0.985545 9.23848 0.881995L 13.6512 0ZM 24.3645 5.74286L 21.6676 2.14058C 21.6286 2.16975 21.5901 2.19955 21.5521 2.22997L 24.3645 5.74286ZM 31.1664 1.35474L 32.6332 -2.89948L 32.6332 -2.89948L 31.1664 1.35474ZM 49.3027 33.2837L 44.8639 32.5444L 49.3027 33.2837ZM 46.9387 47.3473L 42.8715 45.4219L 46.9387 47.3473ZM 29.7212 67L 29.7212 71.5C 30.0893 71.5 30.4561 71.4548 30.8132 71.3655L 29.7212 67ZM 20.5383 67L 19.8214 71.4425C 20.0584 71.4808 20.2982 71.5 20.5383 71.5L 20.5383 67ZM 3.32049 49.7714L -0.988675 51.068C -0.969568 51.1315 -0.949059 51.1946 -0.927164 51.2572L 3.32049 49.7714ZM 1.40739 42.4971L -2.99208 43.443L 1.40739 42.4971ZM 1.40739 36.7543L 5.86825 37.3466C 5.89431 37.1502 5.90739 36.9524 5.90739 36.7543L 1.40739 36.7543ZM 49.3541 21.3414L 44.8696 21.7149L 49.3541 21.3414ZM 49.7746 30.4503L 45.3358 29.711L 49.7746 30.4503ZM 47.6962 45.7472L 51.7635 47.6726L 47.6962 45.7472ZM 44.8971 52.2918L 40.7337 50.5841L 44.8971 52.2918ZM 1.38021 33.5283L 5.81906 32.7889L 1.38021 33.5283ZM 0.642154 29.0971C 5.05513 28.2164 5.05525 28.2171 5.05537 28.2177C 5.05541 28.2178 5.05552 28.2184 5.05559 28.2187C 5.05554 28.2185 5.056 28.2208 5.05592 28.2204C 5.05591 28.2204 5.0562 28.2218 5.05619 28.2218C 5.05653 28.2235 5.0559 28.2203 5.05526 28.217C 5.05329 28.2069 5.05149 28.1976 5.04782 28.1781C 5.03907 28.1319 5.02874 28.0764 5.01336 27.9897C 4.97977 27.8011 4.9385 27.5587 4.8882 27.2255C 4.78201 26.5262 4.6666 25.6524 4.587 24.6004C 4.41316 22.3473 4.49384 20.2613 4.90227 19.0611L -3.61796 16.1618C -4.65438 19.2076 -4.57369 22.8644 -4.38633 25.2927C -4.28532 26.5814 -4.12983 27.7829 -4.01026 28.5737C -3.94767 28.9856 -3.88736 29.3419 -3.84757 29.5658C -3.82626 29.6854 -3.80696 29.7896 -3.79526 29.8515C -3.7887 29.8861 -3.78256 29.9179 -3.77916 29.9355C -3.7771 29.946 -3.77501 29.9567 -3.77397 29.962C -3.77327 29.9655 -3.77248 29.9695 -3.77213 29.9713C -3.77187 29.9726 -3.77154 29.9742 -3.77141 29.9749C -3.7713 29.9754 -3.77115 29.9762 -3.7711 29.9765C -3.77096 29.9772 -3.77082 29.9779 0.642154 29.0971ZM 4.90227 19.0611C 5.53028 17.2155 7.85572 14.9626 11.0461 12.8873C 12.5195 11.9247 13.8576 11.2011 14.9436 10.6529C 15.4656 10.3887 15.863 10.2006 16.1682 10.0601C 16.311 9.99431 16.4078 9.951 16.4849 9.91693C 16.5188 9.90195 16.5376 9.89376 16.5552 9.88609C 16.5618 9.88325 16.5633 9.88261 16.5667 9.88116C 16.5672 9.88093 16.5665 9.88123 16.5662 9.88136C 16.5666 9.88118 16.5642 9.88221 16.5644 9.88213C 16.564 9.88229 16.5633 9.88259 16.5631 9.88268C 16.5624 9.883 16.5616 9.88334 14.7991 5.74286C 13.0366 1.60237 13.0357 1.60275 13.0347 1.60315C 13.0344 1.60331 13.0334 1.60373 13.0326 1.60405C 13.0317 1.60444 13.0295 1.6054 13.0276 1.6062C 13.025 1.6073 13.0194 1.60969 13.0143 1.6119C 13.0063 1.61535 12.9908 1.62203 12.9748 1.62893C 12.9476 1.64075 12.8997 1.66167 12.8463 1.68525C 12.749 1.7283 12.5893 1.79986 12.404 1.88512C 12.0531 2.04679 11.5079 2.30557 10.8843 2.62031C 9.67912 3.22991 7.91387 4.19246 6.13868 5.34299C 2.8318 7.49403 -1.92121 11.1754 -3.61796 16.1618L 4.90227 19.0611ZM 19.2118 4.86086L 18.0639 -0.881995L 9.23848 0.881995L 10.3863 6.62485L 19.2118 4.86086ZM 13.6512 0C 10.7841 3.46842 10.7845 3.46874 10.7849 3.46909C 10.7851 3.46924 10.7856 3.46962 10.786 3.46993C 10.7865 3.47035 10.7876 3.47127 10.7886 3.47211C 10.7902 3.47339 10.7932 3.47591 10.7963 3.47846C 10.8015 3.48276 10.8108 3.49042 10.8212 3.49893C 10.84 3.51433 10.8711 3.5398 10.9078 3.56971C 10.9771 3.62622 11.0865 3.71489 11.2182 3.82051C 11.4731 4.0248 11.8593 4.33056 12.3113 4.67866C 13.1969 5.36013 14.4798 6.31139 15.7932 7.18928C 17.1052 8.06288 18.7465 9.03464 20.1181 9.63096C 20.8669 9.94459 21.9722 10.2801 22.8033 10.4019C 23.7403 10.5176 25.5587 10.5513 27.1769 9.25575L 21.5521 2.22997C 22.6921 1.31731 23.817 1.45872 23.9065 1.46977C 23.9228 1.45266 23.9941 1.50538 23.6488 1.35241C 22.8323 1.01553 21.9149 0.455851 20.7877 -0.297709C 19.6619 -1.04699 18.6251 -1.81862 17.8009 -2.45325C 17.3981 -2.7632 17.0818 -3.01379 16.8479 -3.20134C 16.7353 -3.29165 16.6537 -3.35776 16.5932 -3.40706C 16.565 -3.43006 16.5465 -3.44525 16.5318 -3.45729C 16.5255 -3.4625 16.5221 -3.46525 16.5189 -3.46792C 16.5177 -3.46887 16.5176 -3.46898 16.517 -3.46946C 16.5169 -3.46951 16.5172 -3.46929 16.5172 -3.46926C 16.5173 -3.46918 16.5176 -3.46897 16.5177 -3.46892C 16.5179 -3.46868 16.5183 -3.46842 13.6512 0ZM 27.0615 9.34513C 29.459 7.55018 30.2694 4.77433 30.6101 3.55211L 21.9406 1.13542C 21.799 1.64359 21.6806 1.96472 21.5756 2.1725C 21.4736 2.37405 21.475 2.28477 21.6676 2.14058L 27.0615 9.34513ZM 27.9628 5.01584C 28.4943 5.19508 29.0782 5.3947 29.6996 5.60896L 32.6332 -2.89948C 32.0008 -3.11755 31.3881 -3.327 30.8389 -3.51224L 27.9628 5.01584ZM 44.8696 21.7149L 45.4017 28.1036L 54.3706 27.3566L 53.8386 20.9679L 44.8696 21.7149ZM 45.3358 29.711L 44.8639 32.5444L 53.7416 34.023L 54.2135 31.1896L 45.3358 29.711ZM 44.7348 34.1052L 44.7348 36.7543L 53.7348 36.7543L 53.7348 34.1052L 44.7348 34.1052ZM 44.7348 36.7543L 44.7348 38.9013L 53.7348 38.9013L 53.7348 36.7543L 44.7348 36.7543ZM 43.6289 43.8218L 42.8715 45.4219L 51.006 49.2727L 51.7635 47.6726L 43.6289 43.8218ZM 40.7337 50.5841C 39.1096 54.5434 35.4062 60.9392 28.6291 62.6345L 30.8132 71.3655C 42.0257 68.5606 47.2259 58.472 49.0605 53.9996L 40.7337 50.5841ZM 29.7212 62.5C 25.5124 62.5 24.3645 62.5 20.5383 62.5L 20.5383 71.5C 24.3645 71.5 25.5124 71.5 29.7212 71.5L 29.7212 62.5ZM 21.2553 62.5575C 17.1173 61.8896 13.7355 58.7884 11.1789 55.103C 9.91695 53.2983 9.05896 51.6548 8.41682 50.2831C 8.10985 49.6308 7.9046 49.1425 7.74978 48.7565C 7.67841 48.5791 7.6344 48.4638 7.59835 48.3674C 7.58309 48.3267 7.57585 48.3068 7.56812 48.2854C 7.56557 48.2784 7.56305 48.2713 7.56435 48.2749C 7.56436 48.2749 7.56529 48.2776 7.5653 48.2776C 7.56499 48.2767 7.56664 48.2814 7.56648 48.281C 7.56672 48.2816 7.56713 48.2828 7.56725 48.2831C 7.56769 48.2844 7.56814 48.2857 3.32049 49.7714C -0.927164 51.2572 -0.92667 51.2586 -0.926155 51.2601C -0.925956 51.2606 -0.925419 51.2622 -0.925019 51.2633C -0.924537 51.2647 -0.923333 51.2681 -0.922365 51.2708C -0.921066 51.2745 -0.918138 51.2828 -0.915523 51.2902C -0.911584 51.3012 -0.903641 51.3234 -0.895689 51.3454C -0.882428 51.3821 -0.858139 51.4485 -0.831268 51.5204C -0.78306 51.6492 -0.700405 51.8648 -0.60213 52.1099C -0.417682 52.5688 -0.111775 53.292 0.268773 54.1053C 1.00167 55.6648 2.22418 57.9696 3.78399 60.2327C 6.87106 64.683 12.0982 70.1961 19.8214 71.4425L 21.2553 62.5575ZM 3.32049 49.7714C 7.62965 48.4748 7.62968 48.475 7.62971 48.4751C 7.62972 48.4751 7.62974 48.4752 7.62975 48.4752C 7.62976 48.4752 7.62976 48.4752 7.62974 48.4752C 7.62965 48.4748 7.62958 48.4746 7.6294 48.474C 7.62891 48.4724 7.62835 48.4705 7.6274 48.4674C 7.62529 48.4603 7.62247 48.4509 7.61836 48.4371C 7.60969 48.4081 7.59761 48.3676 7.58116 48.3121C 7.54737 48.198 7.50005 48.0374 7.43947 47.8292C 7.31643 47.4062 7.15016 46.8265 6.95983 46.1381C 6.57531 44.7482 6.12923 43.0562 5.80687 41.5513L -2.99208 43.443C -2.62452 45.1472 -2.11405 47.0924 -1.71451 48.5373C -1.5128 49.2664 -1.33016 49.9035 -1.2023 50.3431C -1.13742 50.566 -1.08379 50.7481 -1.048 50.8689C -1.02966 50.9308 -1.01478 50.9808 -1.00519 51.0129C -1.00018 51.0296 -0.996042 51.0435 -0.993487 51.052C -0.992103 51.0566 -0.990897 51.0606 -0.9902 51.0629C -0.989798 51.0643 -0.989416 51.0655 -0.989215 51.0662C -0.989087 51.0666 -0.988952 51.0671 -0.988889 51.0673C -0.988844 51.0674 -0.98879 51.0676 -0.988768 51.0677C -0.988719 51.0679 -0.988675 51.068 3.32049 49.7714ZM 5.80687 41.5513C 5.70242 41.0655 5.6693 40.1265 5.72485 39.0315C 5.74957 38.5301 5.78483 38.1283 5.81863 37.7925C 5.83425 37.636 5.84647 37.528 5.85701 37.4388C 5.86163 37.3996 5.86439 37.3773 5.86705 37.3562C 5.86805 37.3482 5.86833 37.346 5.86888 37.3418C 5.86899 37.3409 5.86895 37.3412 5.86889 37.3417C 5.86894 37.3413 5.86862 37.3437 5.86865 37.3435C 5.8687 37.3431 5.86844 37.3451 5.86847 37.3449C 5.86843 37.3451 5.86838 37.3456 5.86836 37.3457C 5.8683 37.3461 5.86825 37.3466 1.40739 36.7543C -3.05346 36.162 -3.05352 36.1625 -3.05359 36.163C -3.05361 36.1632 -3.05368 36.1637 -3.05373 36.164C -3.05378 36.1644 -3.05393 36.1655 -3.05404 36.1664C -3.05417 36.1674 -3.05451 36.1699 -3.05478 36.172C -3.05517 36.175 -3.056 36.1814 -3.05677 36.1873C -3.05798 36.1967 -3.06028 36.2146 -3.06262 36.2332C -3.06664 36.2652 -3.07354 36.3213 -3.08089 36.3834C -3.09429 36.497 -3.11521 36.6835 -3.13642 36.8941C -3.17627 37.2924 -3.2294 37.9153 -3.2636 38.5755C -3.32685 39.8511 -3.3031 41.8764 -2.99208 43.443L 5.80687 41.5513ZM 5.90739 36.7543L 5.90739 33.8569L -3.09261 33.8569L -3.09261 36.7543L 5.90739 36.7543ZM 5.81906 32.7889L 5.081 28.3578L -3.79669 29.8365L -3.05863 34.2676L 5.81906 32.7889ZM 30.6101 3.55211C 30.5202 3.87453 30.2008 4.47303 29.467 4.84062C 28.7635 5.19305 28.1733 5.08681 27.9628 5.01584L 30.8389 -3.51224C 29.1895 -4.06849 27.2404 -4.11014 25.4358 -3.20609C 23.601 -2.2869 22.4383 -0.649784 21.9406 1.13542L 30.6101 3.55211ZM 29.6996 5.60896C 34.4679 7.20884 38.214 9.80486 41.4953 13.6694L 48.3138 7.79509C 44.2309 3.11178 38.5314 -0.821639 32.6332 -2.89948L 29.6996 5.60896ZM 41.4953 13.6694C 43.6437 16.0783 44.6569 18.4942 44.8696 21.7149L 53.8386 20.9679C 53.3988 16.3539 51.2969 11.3424 48.3138 7.79509L 41.4953 13.6694ZM 45.4017 28.1036C 45.4628 28.7327 45.4481 29.0889 45.3358 29.711L 54.2135 31.1896C 54.4004 30.0144 54.4608 28.5432 54.3706 27.3566L 45.4017 28.1036ZM 44.8639 32.5444C 44.7919 32.9996 44.7386 33.6443 44.7348 34.1052L 53.7348 34.1052C 53.7309 34.0155 53.7231 34.1108 53.7416 34.023L 44.8639 32.5444ZM 44.7348 38.9013C 44.7622 40.7726 44.4544 42.1422 43.6289 43.8218L 51.7635 47.6726C 52.9641 45.0722 53.7073 41.7654 53.7348 38.9013L 44.7348 38.9013ZM 42.8715 45.4219C 42.0179 47.2379 41.3729 49.029 40.7337 50.5841L 49.0605 53.9996C 49.7757 52.2527 50.3326 50.6825 51.006 49.2727L 42.8715 45.4219ZM 5.90739 33.8569C 5.90356 33.5611 5.86387 33.0812 5.81906 32.7889L -3.05863 34.2676C -3.08124 34.1319 -3.09261 33.9945 -3.09261 33.8569L 5.90739 33.8569Z"/>
<path id="path11_stroke" d="M 20.7768 8.40532L 20.5199 3.91266L 20.7768 8.40532ZM 39.6253 1.70513L 36.3839 4.82656L 39.6253 1.70513ZM 3.51476 18.1243C 5.68721 15.4066 8.61007 11.562 10.1591 9.51151L 2.97804 4.0864C 1.43703 6.12622 -1.41056 9.87287 -3.51476 12.5042L 3.51476 18.1243ZM 19.2432 13.0004L 21.0336 12.898L 20.5199 3.91266L 18.7294 4.01504L 19.2432 13.0004ZM 34.9856 7.79789L 38.6234 5.06785L 33.2212 -2.13053L 29.5834 0.599503L 34.9856 7.79789ZM 36.3839 4.82656C 37.7498 6.24332 39.529 8.24635 41.076 10.7427C 42.6418 13.2413 43.6223 15.6917 43.7142 17.8068L 52.7057 17.4161C 52.5169 13.0689 50.6409 9.05719 48.7024 5.9637C 46.7451 2.86792 44.3724 0.148888 42.8667 -1.41631L 36.3839 4.82656ZM 10.1591 9.51151C 9.42376 10.4849 8.08064 10.7649 7.01768 10.1666L 11.4321 2.32359C 8.56964 0.712442 4.95817 1.46535 2.97804 4.0864L 10.1591 9.51151ZM 7.01768 10.1666C 10.5673 12.1122 15.1996 13.1859 19.2432 13.0004L 18.7294 4.01504C 15.9666 4.21866 13.8236 3.72194 11.4321 2.32359L 7.01768 10.1666ZM 21.0336 12.898C 25.854 12.574 31.0927 10.659 34.9856 7.79789L 29.5834 0.599503C 26.8005 2.74838 24.0325 3.76021 20.5199 3.91266L 21.0336 12.898ZM 38.6234 5.06785C 38.0951 5.46431 37.0986 5.56875 36.3839 4.82656L 42.8667 -1.41631C 40.1759 -4.21046 36.0279 -4.2369 33.2212 -2.13053L 38.6234 5.06785Z"/>
<path id="path12_stroke" d="M 0.654997 26.2994L 5.09324 25.5565C 5.0853 25.509 5.07659 25.4617 5.06712 25.4145L 0.654997 26.2994ZM 0.654997 14.6423L -3.6029 13.1861L -3.6029 13.1861L 0.654997 14.6423ZM 23.5 3.04227L 22.8926 7.50109C 23.2515 7.54998 23.615 7.55535 23.9752 7.51711L 23.5 3.04227ZM 49.2025 24.279L 44.7279 23.8016L 49.2025 24.279ZM 48.7262 41.6975L 53.0304 43.0105L 48.7262 41.6975ZM 47.5054 45.2467L 43.2929 43.6639L 47.5054 45.2467ZM 30.3156 65.768L 29.2287 61.4012L 30.3156 65.768ZM 20.9491 65.768L 22.5118 61.548C 22.2367 61.4461 21.9523 61.3714 21.6626 61.3249L 20.9491 65.768ZM 3.3869 47.2823L -0.920473 48.5848C -0.909467 48.6212 -0.897999 48.6574 -0.886074 48.6936L 3.3869 47.2823ZM 1.43554 39.8994L -2.96296 40.8498L 1.43554 39.8994ZM 1.43554 34.0708L 5.89601 34.666C 5.92233 34.4687 5.93554 34.2699 5.93554 34.0708L 1.43554 34.0708ZM 49.7291 19.9175L 45.2709 19.3059L 49.7291 19.9175ZM 49.4174 28.2865L 44.9633 28.9277L 49.4174 28.2865ZM 46.0408 49.3583L 50.2706 50.8942L 46.0408 49.3583ZM 1.40809 30.7983L -3.03015 31.5413L 1.40809 30.7983ZM 0.654997 26.2994C 5.06712 25.4145 5.06725 25.4151 5.06737 25.4157C 5.06741 25.4159 5.06752 25.4164 5.06759 25.4168C 5.06754 25.4166 5.06801 25.4189 5.06792 25.4184C 5.06792 25.4184 5.06819 25.4198 5.06819 25.4198C 5.06853 25.4215 5.06787 25.4182 5.06722 25.4149C 5.0652 25.4045 5.06334 25.395 5.05958 25.3752C 5.05063 25.3282 5.04005 25.2715 5.02433 25.1834C 4.99004 24.9918 4.94785 24.7452 4.89648 24.4066C 4.7881 23.6964 4.67018 22.8079 4.58887 21.739C 4.4115 19.4516 4.4929 17.3265 4.9129 16.0984L -3.6029 13.1861C -4.65665 16.2674 -4.57525 19.9709 -4.38419 22.4348C -4.28127 23.7415 -4.12287 24.9592 -4.00098 25.7614C -3.93721 26.179 -3.87578 26.5401 -3.83523 26.7671C -3.81353 26.8883 -3.79389 26.9938 -3.78197 27.0565C -3.77529 27.0916 -3.76906 27.1238 -3.76559 27.1416C -3.7635 27.1522 -3.76138 27.163 -3.76032 27.1684C -3.75961 27.1719 -3.75881 27.1759 -3.75846 27.1777C -3.75819 27.1791 -3.75786 27.1807 -3.75773 27.1814C -3.75762 27.1819 -3.75747 27.1827 -3.75741 27.183C -3.75727 27.1837 -3.75713 27.1844 0.654997 26.2994ZM 45.2709 19.3059C 45.0443 20.9597 44.856 22.6008 44.7279 23.8016L 53.6771 24.7564C 53.8014 23.5904 53.9738 22.0836 54.1874 20.5292L 45.2709 19.3059ZM 44.422 40.3846C 44.0712 41.539 43.6619 42.6825 43.2929 43.6639L 51.7178 46.8295C 52.1127 45.7782 52.6158 44.3655 53.0304 43.0105L 44.422 40.3846ZM 41.811 47.8225C 40.2789 52.042 36.4401 59.6062 29.2287 61.4012L 31.4026 70.1347C 43.4652 67.1322 48.6753 55.2878 50.2706 50.8942L 41.811 47.8225ZM 29.2287 61.4012C 26.7825 62.0101 26.0573 62.208 25.3484 62.2371C 24.9205 62.2547 24.31 62.2139 22.5118 61.548L 19.3864 69.9879C 21.6392 70.8221 23.5541 71.3184 25.7178 71.2295C 27.5372 71.124 29.3125 70.6544 31.4026 70.1347L 29.2287 61.4012ZM 21.6626 61.3249C 17.5064 60.6575 14.043 57.3584 11.3914 53.3247C 10.0927 51.3636 9.20244 49.5623 8.54326 48.0731C 8.22656 47.361 8.01219 46.8216 7.85275 46.4008C 7.77856 46.2056 7.73164 46.0756 7.69422 45.9696C 7.67804 45.9238 7.66974 45.8998 7.66156 45.8758C 7.65867 45.8673 7.65832 45.8663 7.65685 45.8619C 7.6567 45.8614 7.65731 45.8633 7.65739 45.8635C 7.65714 45.8628 7.65851 45.8669 7.65839 45.8665C 7.65859 45.8671 7.65896 45.8683 7.65907 45.8686C 7.65946 45.8697 7.65987 45.871 3.3869 47.2823C -0.886074 48.6936 -0.885622 48.6949 -0.885149 48.6964C -0.884963 48.6969 -0.884467 48.6984 -0.884094 48.6995C -0.883637 48.7009 -0.882513 48.7043 -0.881595 48.7071C -0.88034 48.7108 -0.877565 48.7191 -0.875039 48.7267C -0.871165 48.7382 -0.863496 48.7609 -0.855677 48.7838C -0.842448 48.8225 -0.818586 48.8916 -0.791798 48.9675C -0.74327 49.1048 -0.66099 49.332 -0.562152 49.5929C -0.375529 50.0845 -0.0685191 50.8527 0.316046 51.7218C 1.0594 53.3951 2.29122 55.8509 3.87078 58.2684C 6.97573 62.9918 12.2934 68.9356 20.2356 70.211L 21.6626 61.3249ZM 3.3869 47.2823C 7.69427 45.9797 7.6943 45.9799 7.69433 45.98C 7.69434 45.98 7.69436 45.9801 7.69437 45.9801C 7.69438 45.9801 7.69438 45.9801 7.69436 45.98C 7.69426 45.9797 7.69419 45.9795 7.694 45.9789C 7.69351 45.9772 7.69293 45.9753 7.69196 45.9721C 7.6898 45.9649 7.68692 45.9554 7.68272 45.9414C 7.67387 45.9119 7.66154 45.8707 7.64475 45.8143C 7.61027 45.6985 7.56197 45.5354 7.50016 45.324C 7.37463 44.8946 7.20494 44.3059 7.01074 43.6071C 6.61844 42.1961 6.16309 40.4775 5.83404 38.949L -2.96296 40.8498C -2.58829 42.5783 -2.06796 44.5512 -1.66051 46.0174C -1.45483 46.7571 -1.26863 47.4034 -1.13824 47.8495C -1.07209 48.0757 -1.01742 48.2604 -0.980924 48.3829C -0.962225 48.4457 -0.947061 48.4964 -0.937291 48.5289C -0.932187 48.5459 -0.92797 48.5599 -0.925367 48.5686C -0.923958 48.5732 -0.922732 48.5773 -0.922021 48.5797C -0.921613 48.581 -0.921225 48.5823 -0.92102 48.583C -0.920891 48.5834 -0.920754 48.5839 -0.920689 48.5841C -0.920644 48.5842 -0.92059 48.5844 -0.920567 48.5845C -0.920518 48.5846 -0.920473 48.5848 3.3869 47.2823ZM 5.83404 38.949C 5.72615 38.4497 5.69271 37.4918 5.7494 36.3797C 5.77467 35.8701 5.81072 35.4612 5.84523 35.12C 5.86119 34.9609 5.8737 34.8509 5.88446 34.7603C 5.88919 34.7204 5.89203 34.6976 5.89474 34.6761C 5.89577 34.6679 5.89607 34.6656 5.89663 34.6613C 5.89675 34.6604 5.89671 34.6607 5.89665 34.6612C 5.8967 34.6608 5.89639 34.6632 5.89641 34.663C 5.89647 34.6626 5.8962 34.6645 5.89623 34.6643C 5.8962 34.6646 5.89614 34.665 5.89612 34.6651C 5.89607 34.6656 5.89601 34.666 1.43554 34.0708C -3.02493 33.4757 -3.02499 33.4761 -3.02505 33.4766C -3.02508 33.4768 -3.02515 33.4773 -3.02519 33.4777C -3.02525 33.4781 -3.0254 33.4792 -3.02551 33.48C -3.02565 33.4811 -3.02598 33.4836 -3.02626 33.4857C -3.02666 33.4888 -3.0275 33.4952 -3.02828 33.5012C -3.02951 33.5107 -3.03185 33.5288 -3.03423 33.5476C -3.03832 33.58 -3.04534 33.6368 -3.05283 33.6997C -3.06647 33.8149 -3.08777 34.0037 -3.10938 34.2172C -3.14999 34.6212 -3.2041 35.2522 -3.23893 35.9215C -3.3034 37.215 -3.27942 39.2646 -2.96296 40.8498L 5.83404 38.949ZM 5.93554 34.0708L 5.93554 31.1285L -3.06446 31.1285L -3.06446 34.0708L 5.93554 34.0708ZM 5.84634 30.0554L 5.09324 25.5565L -3.78325 27.0424L -3.03015 31.5413L 5.84634 30.0554ZM 4.9129 16.0984C 7.82658 7.57835 10.9679 6.26103 12.7671 5.96211C 14.1581 5.68151 15.3801 5.88742 17.1585 6.26473C 18.9251 6.6322 20.9245 7.2194 22.8926 7.50109L 24.1074 -1.41656C 22.8255 -1.57755 21.1408 -2.0908 19.0102 -2.54271C 16.8914 -2.98477 14.0032 -3.31716 11.292 -2.91618C 4.88659 -1.85195 -0.144552 3.07343 -3.6029 13.1861L 4.9129 16.0984ZM 23.9752 7.51711C 28.2084 7.05477 31.0983 6.30914 33.126 5.69186L 30.5015 -2.91695C 28.6439 -2.34974 26.587 -1.79798 23.0248 -1.43258L 23.9752 7.51711ZM 44.9633 28.9277C 45.377 31.4886 44.9419 34.3194 44.7722 37.8236L 53.7623 38.2468C 53.9032 35.1536 54.3769 31.4688 53.8715 27.6453L 44.9633 28.9277ZM 54.204 12.9989C 52.6913 2.05849 41.7747 -6.35382 30.5015 -2.91695L 33.126 5.69186C 38.4059 4.08217 44.4313 8.02976 45.2888 14.2316L 54.204 12.9989ZM 45.2888 14.2316C 45.5445 15.9928 45.5277 17.5008 45.2709 19.3059L 54.1874 20.5292C 54.5039 18.1551 54.5261 15.4162 54.204 12.9989L 45.2888 14.2316ZM 44.7279 23.8016C 44.5601 25.6524 44.7658 27.5539 44.9633 28.9277L 53.8715 27.6453C 53.6863 26.3602 53.5598 25.5769 53.6771 24.7564L 44.7279 23.8016ZM 53.0304 43.0105C 53.5009 41.3922 53.6972 39.5979 53.7623 38.2468L 44.7722 37.8236C 44.7207 38.948 44.6746 39.6325 44.422 40.3846L 53.0304 43.0105ZM 43.2929 43.6639C 42.7494 45.113 42.2858 46.5163 41.811 47.8225L 50.2706 50.8942C 50.7898 49.4628 51.2369 48.1068 51.7178 46.8295L 43.2929 43.6639ZM 5.93554 31.1285C 5.93167 30.8313 5.89159 30.3491 5.84634 30.0554L -3.03015 31.5413C -3.05298 31.4049 -3.06446 31.2668 -3.06446 31.1285L 5.93554 31.1285Z"/>
<path id="path13_stroke" d="M 17.662 0.351851L 14.3604 -2.70582L 17.662 0.351851ZM 18.4712 0.120997L 20.1007 -4.07359L 18.4712 0.120997ZM -2.01246 13.5249C 0.0547819 14.5585 2.27581 14.6317 4.05733 14.4625C 5.76981 14.2871 7.74117 13.805 9.3711 13.286L 6.6289 4.71397C 5.27738 5.14878 4.24874 5.41662 3.20658 5.50281C 2.23347 5.59521 1.94522 5.44146 2.01246 5.47508L -2.01246 13.5249ZM 9.3711 13.286C 12.5565 12.1794 15.3093 9.97889 17.0349 8.1211C 18.7642 6.22793 19.9817 4.4522 20.9636 3.40953L 14.3604 -2.70582C 12.9504 -1.16576 11.7263 0.618219 10.4173 2.02126C 9.10451 3.45967 8.22227 4.29183 6.6289 4.71397L 9.3711 13.286ZM 16.8416 4.31559C 16.2169 4.07289 16.398 3.83784 17.3746 5.3924C 18.1859 6.67677 19.0902 8.42501 20.2207 10.3721C 22.3421 14.021 25.7706 19.3604 31.5947 21.2749L 34.4053 12.7251C 32.153 11.9847 30.1892 9.61181 28.0013 5.84858C 26.9771 4.0896 25.9974 2.2068 24.9956 0.604829C 24.1589 -0.726955 22.5975 -3.10364 20.1007 -4.07359L 16.8416 4.31559ZM 31.5947 21.2749C 34.4048 22.1929 37.4448 22.8357 40.2513 22.7617C 43.0553 22.6127 46.3322 21.6101 49.3152 19.8587L 44.6848 12.1413C 42.6678 13.3899 41.5416 13.7409 39.8941 13.7688C 38.2491 13.8717 36.7892 13.5145 34.4053 12.7251L 31.5947 21.2749ZM 20.9636 3.40953C 20.3009 4.12508 18.7459 5.05538 16.8416 4.31559L 20.1007 -4.07359C 17.6211 -5.03688 15.4425 -3.8742 14.3604 -2.70582L 20.9636 3.40953Z"/>
<path id="path14_stroke" d="M 0.839156 38L 5.27793 37.2602C 5.27005 37.2129 5.26141 37.1658 5.25203 37.1188L 0.839156 38ZM 0.839156 23L -3.42068 21.5496L -3.42068 21.5496L 0.839156 23ZM 19.3392 7.5L 21.1007 11.6409C 23.063 10.8061 24.17 8.70857 23.7518 6.61748L 19.3392 7.5ZM 17.8392 0L 20.7052 -3.46929C 19.237 -4.68214 17.1644 -4.83954 15.5299 -3.86231C 13.8955 -2.88508 13.0531 -0.984822 13.4265 0.882523L 17.8392 0ZM 31.8392 7.5L 29.1433 3.89692C 29.1043 3.92607 29.0658 3.95586 29.0278 3.98626L 31.8392 7.5ZM 34.5323 2.32686L 30.176 1.1989L 34.5323 2.32686ZM 59.5961 15.0781L 56.1878 18.0163L 59.5961 15.0781ZM 65.2252 36.6321L 60.7407 37.0058L 65.2252 36.6321ZM 64.4072 43.5921L 68.846 44.3318L 64.4072 43.5921ZM 60.9878 62.575L 65.0547 64.5014L 60.9878 62.575ZM 38.8392 87.5L 38.8392 92C 39.2071 92 39.5736 91.9549 39.9306 91.8656L 38.8392 87.5ZM 26.8392 87.5L 26.1226 91.9426C 26.3595 91.9808 26.5992 92 26.8392 92L 26.8392 87.5ZM 4.33916 65L 0.0302171 66.2973C 0.049345 66.3609 0.0698756 66.424 0.0917939 66.4866L 4.33916 65ZM 1.83916 55.5L -2.5602 56.4464L 1.83916 55.5ZM 1.83916 48L 6.29996 48.5926C 6.32606 48.3962 6.33916 48.1982 6.33916 48L 1.83916 48ZM 37.6989 0.740016L 36.2777 5.00971L 37.6989 0.740016ZM 57.3736 12.5L 60.782 9.56175L 57.3736 12.5ZM 64.3788 26.4759L 68.8633 26.1022L 64.3788 26.4759ZM 65.1135 39.3539L 69.5523 40.0937L 65.1135 39.3539ZM 62.799 58.7515L 66.8658 60.6779L 62.799 58.7515ZM 58.9742 67.5304L 54.7773 65.9069L 58.9742 67.5304ZM 1.81194 43.8367L 6.25072 43.0969L 1.81194 43.8367ZM 0.839156 38C 5.25203 37.1188 5.25215 37.1194 5.25227 37.12C 5.2523 37.1201 5.25241 37.1207 5.25246 37.121C 5.25243 37.1208 5.2528 37.1226 5.25273 37.1223C 5.25279 37.1226 5.25287 37.123 5.25277 37.1225C 5.25223 37.1197 5.25195 37.1184 5.25091 37.113C 5.24811 37.0986 5.2451 37.083 5.23986 37.0553C 5.22797 36.9925 5.2131 36.9126 5.19209 36.7944C 5.14726 36.5427 5.09041 36.2087 5.02281 35.7616C 4.882 34.8343 4.72506 33.6431 4.61777 32.2331C 4.38852 29.2639 4.4693 26.2998 5.099 24.4504L -3.42068 21.5496C -4.67909 25.2454 -4.59831 29.7813 -4.35553 32.9259C -4.22681 34.5727 -4.02973 36.0917 -3.87552 37.1105C -3.79562 37.6364 -3.71971 38.0844 -3.66866 38.3714C -3.64173 38.5226 -3.61788 38.6512 -3.60303 38.7296C -3.5949 38.7725 -3.58755 38.8107 -3.58331 38.8324C -3.58084 38.8451 -3.57844 38.8574 -3.57718 38.8637C -3.57638 38.8678 -3.57551 38.8722 -3.57511 38.8742C -3.57482 38.8757 -3.57447 38.8775 -3.57432 38.8782C -3.57421 38.8788 -3.57405 38.8795 -3.574 38.8798C -3.57385 38.8806 -3.57371 38.8812 0.839156 38ZM 5.099 24.4504C 6.08315 21.56 9.49363 18.3991 13.681 15.677C 15.6528 14.391 17.4669 13.4094 18.9044 12.684C 19.6021 12.3312 20.1441 12.0747 20.55 11.888C 20.7431 11.7991 20.8793 11.7382 20.9831 11.6923C 21.0304 11.6714 21.0594 11.6588 21.084 11.6481C 21.094 11.6438 21.0981 11.642 21.1032 11.6398C 21.1046 11.6392 21.1054 11.6389 21.1047 11.6392C 21.1049 11.6391 21.1033 11.6398 21.1034 11.6397C 21.1031 11.6399 21.1024 11.6402 21.1022 11.6402C 21.1015 11.6405 21.1007 11.6409 19.3392 7.5C 17.5776 3.35912 17.5767 3.35951 17.5757 3.35992C 17.5753 3.36009 17.5743 3.36052 17.5735 3.36087C 17.5725 3.36131 17.57 3.36234 17.568 3.36322C 17.565 3.36451 17.5587 3.36719 17.5527 3.36977C 17.5429 3.37396 17.5248 3.38177 17.5054 3.39016C 17.4713 3.40494 17.4132 3.43031 17.3464 3.45979C 17.2223 3.51463 17.0233 3.60376 16.7877 3.71212C 16.3361 3.92 15.6464 4.24711 14.8471 4.65039C 13.2905 5.43711 11.0492 6.65753 8.77576 8.13126C 4.47265 10.9286 -1.36688 15.5177 -3.42068 21.5496L 5.099 24.4504ZM 23.7518 6.61748L 22.2518 -0.882523L 13.4265 0.882523L 14.9265 8.38252L 23.7518 6.61748ZM 17.8392 0C 14.9731 3.46929 14.9735 3.46962 14.974 3.46999C 14.9742 3.47016 14.9747 3.47056 14.9751 3.47091C 14.9757 3.47139 14.9769 3.47242 14.9781 3.47339C 14.98 3.47494 14.9835 3.47786 14.9873 3.48094C 14.9938 3.48631 15.0051 3.49557 15.018 3.50617C 15.0419 3.52576 15.0806 3.55745 15.1272 3.59545C 15.2165 3.66815 15.3552 3.7805 15.5244 3.91609C 15.8542 4.18032 16.3482 4.57118 16.9314 5.01994C 18.0793 5.90274 19.7179 7.11753 21.4055 8.2443C 23.0916 9.3668 25.1254 10.5727 26.8326 11.3116C 27.749 11.6966 29.0077 12.0804 29.9686 12.2181C 31.0349 12.3498 32.9591 12.367 34.6505 11.0137L 29.0278 3.98626C 29.5603 3.56025 30.0986 3.38462 30.4647 3.31803C 30.8098 3.25527 31.0346 3.28142 31.0711 3.28591C 31.2176 3.2849 30.8746 3.25673 30.3614 3.03231C 29.2092 2.55255 27.8992 1.75842 26.3978 0.755882C 24.8979 -0.242373 23.5053 -1.27764 22.4188 -2.11362C 21.8848 -2.52425 21.4608 -2.85997 21.152 -3.10747C 21.0018 -3.22775 20.891 -3.31756 20.8106 -3.38305C 20.7724 -3.41414 20.7463 -3.43555 20.7265 -3.45179C 20.7176 -3.4591 20.7123 -3.46344 20.7077 -3.46719C 20.7059 -3.46866 20.7053 -3.46918 20.7044 -3.46993C 20.7042 -3.47011 20.7042 -3.47013 20.7043 -3.47004C 20.7043 -3.46999 20.7046 -3.4698 20.7046 -3.46977C 20.7049 -3.46955 20.7052 -3.46929 17.8392 0ZM 34.535 11.1031C 37.6117 8.8011 38.5114 4.91202 38.8887 3.45481L 30.176 1.1989C 29.9503 2.07054 29.7587 2.73074 29.5154 3.27201C 29.2743 3.80826 29.1144 3.91854 29.1433 3.89692L 34.535 11.1031ZM 36.2777 5.00971C 37.6211 5.4568 39.3523 6.05223 41.144 6.67584L 44.1024 -1.82406C 42.2949 -2.45311 40.5058 -3.06837 39.1201 -3.52967L 36.2777 5.00971ZM 53.9653 15.4382L 56.1878 18.0163L 63.0044 12.1398L 60.782 9.56175L 53.9653 15.4382ZM 59.8944 26.8496L 60.7407 37.0058L 69.7096 36.2584L 68.8633 26.1022L 59.8944 26.8496ZM 60.6747 38.6142L 59.9684 42.8523L 68.846 44.3318L 69.5523 40.0937L 60.6747 38.6142ZM 59.8392 44.414L 59.8392 48L 68.8392 48L 68.8392 44.414L 59.8392 44.414ZM 59.8392 48L 59.8392 51.9021L 68.8392 51.9021L 68.8392 48L 59.8392 48ZM 58.7321 56.8251L 56.921 60.6486L 65.0547 64.5014L 66.8658 60.6779L 58.7321 56.8251ZM 54.7773 65.9069C 52.8393 70.9169 47.7638 80.6304 37.7477 83.1344L 39.9306 91.8656C 54.561 88.208 61.0812 74.5568 63.1712 69.1538L 54.7773 65.9069ZM 38.8392 83C 33.3392 83 31.8392 83 26.8392 83L 26.8392 92C 31.8392 92 33.3392 92 38.8392 92L 38.8392 83ZM 27.5557 83.0574C 21.5974 82.0964 16.8952 77.6763 13.4734 72.7465C 11.7787 70.3195 10.6017 68.0721 9.74866 66.252C 9.33627 65.3755 9.05266 64.702 8.8458 64.1866C 8.74843 63.9447 8.68501 63.7788 8.63604 63.6479C 8.61433 63.5899 8.60226 63.5569 8.59131 63.5266C 8.58716 63.5151 8.58603 63.512 8.58393 63.5061C 8.58353 63.5049 8.58377 63.5056 8.58398 63.5062C 8.58377 63.5056 8.58504 63.5092 8.58494 63.5089C 8.58515 63.5095 8.58555 63.5107 8.58565 63.511C 8.58607 63.5122 8.58652 63.5134 4.33916 65C 0.0917939 66.4866 0.0922945 66.488 0.0928222 66.4895C 0.0930341 66.4901 0.0935906 66.4917 0.0940155 66.4929C 0.0945481 66.4944 0.0958285 66.4981 0.0968977 66.5011C 0.098398 66.5054 0.10163 66.5145 0.104647 66.523C 0.109392 66.5363 0.118546 66.5619 0.12811 66.5883C 0.144594 66.6339 0.173728 66.7134 0.207067 66.8026C 0.268206 66.9659 0.370311 67.2321 0.494619 67.5419C 0.731124 68.1301 1.11549 69.0386 1.60153 70.0762C 2.54539 72.0841 4.08716 74.993 6.07993 77.8785C 10.0331 83.5738 16.5809 90.4036 26.1226 91.9426L 27.5557 83.0574ZM 4.33916 65C 8.6481 63.7027 8.64813 63.7028 8.64816 63.7029C 8.64816 63.7029 8.64818 63.703 8.64818 63.703C 8.6482 63.703 8.64817 63.7029 8.64812 63.7028C 8.64798 63.7023 8.64785 63.7019 8.64757 63.7009C 8.64691 63.6987 8.64608 63.696 8.64477 63.6916C 8.64193 63.6822 8.63806 63.6692 8.63254 63.6508C 8.62107 63.6124 8.60487 63.558 8.58308 63.4845C 8.53861 63.3346 8.47581 63.1215 8.39599 62.8473C 8.23447 62.2924 8.01468 61.5265 7.76423 60.6214C 7.25944 58.7977 6.66667 56.5494 6.23851 54.5536L -2.5602 56.4464C -2.08678 58.6416 -1.42954 61.1433 -0.909726 63.0219C -0.647879 63.9679 -0.411713 64.7911 -0.245361 65.3627C -0.161239 65.6516 -0.0921183 65.8861 -0.0456516 66.0429C -0.0219702 66.1227 -0.00295273 66.1865 0.00943192 66.228C 0.0158414 66.2494 0.0210496 66.2668 0.0243206 66.2777C 0.026063 66.2835 0.02754 66.2884 0.028419 66.2913C 0.0289115 66.293 0.0293618 66.2945 0.0296089 66.2953C 0.0297588 66.2958 0.0299111 66.2963 0.0299861 66.2966C 0.0300368 66.2967 0.0300946 66.2969 0.03012 66.297C 0.0301716 66.2972 0.0302171 66.2973 4.33916 65ZM 6.23851 54.5536C 6.00593 53.5924 6.02971 52.3074 6.10237 50.9043C 6.13613 50.2253 6.18493 49.6669 6.23003 49.2187C 6.25129 49.006 6.26859 48.853 6.28281 48.7328C 6.28926 48.6781 6.2935 48.6438 6.29718 48.6146C 6.29869 48.6026 6.29937 48.5973 6.30019 48.591C 6.30043 48.5891 6.30063 48.5876 6.3005 48.5886C 6.30052 48.5884 6.30033 48.5898 6.30034 48.5898C 6.30038 48.5895 6.30016 48.5912 6.30018 48.591C 6.30015 48.5912 6.30009 48.5917 6.30008 48.5918C 6.30002 48.5922 6.29996 48.5926 1.83916 48C -2.62165 47.4074 -2.62171 47.4078 -2.62178 47.4083C -2.6218 47.4085 -2.62187 47.409 -2.62192 47.4094C -2.62198 47.4099 -2.62213 47.411 -2.62225 47.4119C -2.62241 47.4131 -2.62276 47.4158 -2.62307 47.4182C -2.62353 47.4217 -2.62447 47.4288 -2.62537 47.4358C -2.62685 47.4473 -2.62955 47.4683 -2.6324 47.4909C -2.63745 47.5311 -2.64584 47.5992 -2.65502 47.6768C -2.67209 47.8214 -2.6981 48.053 -2.72497 48.3198C -2.77611 48.8304 -2.84282 49.6101 -2.88606 50.4481C -2.96739 52.0792 -2.94361 54.5442 -2.5602 56.4464L 6.23851 54.5536ZM 6.33916 48L 6.33916 44.1655L -2.66084 44.1655L -2.66084 48L 6.33916 48ZM 6.25072 43.0969L 5.27793 37.2602L -3.59962 38.7398L -2.62683 44.5765L 6.25072 43.0969ZM 38.8887 3.45481C 38.7757 3.89107 38.3999 4.50412 37.6783 4.85328C 37.0166 5.17352 36.4767 5.07596 36.2777 5.00971L 39.1201 -3.52967C 37.4808 -4.07531 35.5479 -4.11417 33.758 -3.24802C 31.9084 -2.35295 30.6694 -0.706789 30.176 1.1989L 38.8887 3.45481ZM 41.144 6.67584C 46.31 8.43105 50.4134 11.2615 53.9653 15.4382L 60.782 9.56175C 56.4235 4.56238 50.3782 0.402999 44.1024 -1.82406L 41.144 6.67584ZM 56.1878 18.0163C 58.5278 20.6459 59.6573 23.3376 59.8944 26.8496L 68.8633 26.1022C 68.3989 21.1963 66.1799 15.9082 63.0044 12.1398L 56.1878 18.0163ZM 60.7407 37.0058C 60.8019 37.6353 60.7872 37.9918 60.6747 38.6142L 69.5523 40.0937C 69.7395 38.9178 69.7999 37.4457 69.7096 36.2584L 60.7407 37.0058ZM 59.9684 42.8523C 59.8964 43.3078 59.843 43.9529 59.8392 44.414L 68.8392 44.414C 68.8353 44.3244 68.8274 44.4197 68.846 44.3318L 59.9684 42.8523ZM 59.8392 51.9021C 59.8666 53.7745 59.5585 55.1448 58.7321 56.8251L 66.8658 60.6779C 68.0677 58.0763 68.8117 54.7678 68.8392 51.9021L 59.8392 51.9021ZM 56.921 60.6486C 56.069 62.4594 55.4032 64.2896 54.7773 65.9069L 63.1712 69.1538C 63.8334 67.441 64.3781 65.9176 65.0547 64.5014L 56.921 60.6486ZM 6.33916 44.1655C 6.33532 43.8696 6.29558 43.3894 6.25072 43.0969L -2.62683 44.5765C -2.64947 44.4407 -2.66084 44.3032 -2.66084 44.1655L 6.33916 44.1655Z"/>
<path id="path15_fill" d="M 0 4.5C 0 2.01472 2.01472 0 4.5 0L 9.5 0C 11.9853 0 14 2.01472 14 4.5L 14 4.5C 14 6.98528 11.9853 9 9.5 9L 4.5 9C 2.01472 9 0 6.98528 0 4.5L 0 4.5Z"/>
<path id="path16_stroke" d="M 8.58338 8.87969L 4.99364 6.16606L 8.58338 8.87969ZM 41.0552 6.33361L 38.3552 2.73361L 41.0552 6.33361ZM 51.2573 1.62417L 54.3917 -1.60474L 51.2573 1.62417ZM 3.51391 22.8111C 6.34222 19.2752 10.15 14.2697 12.1731 11.5933L 4.99364 6.16606C 2.97856 8.83173 -0.753881 13.7394 -3.51391 17.1889L 3.51391 22.8111ZM 25.0667 15.6035L 28.8241 15.3888L 28.3106 6.40348L 24.5532 6.61819L 25.0667 15.6035ZM 43.7552 9.93361L 50.2808 5.03939L 44.8808 -2.16061L 38.3552 2.73361L 43.7552 9.93361ZM 48.123 4.85309C 49.8952 6.57212 52.5494 9.34265 54.8801 12.8259C 57.2467 16.3344 58.8635 19.9576 59.0042 23.1955L 67.9958 22.8045C 67.7493 17.1371 65.0812 11.8549 62.3414 7.79312C 59.5658 3.70612 56.2922 0.241395 54.3917 -1.60474L 48.123 4.85309ZM 12.1731 11.5933C 11.629 12.3131 10.635 12.5202 9.84875 12.078L 14.2611 4.2338C 11.123 2.4686 7.16496 3.29373 4.99364 6.16606L 12.1731 11.5933ZM 9.84875 12.078C 14.3095 14.5349 19.9799 15.8486 25.0667 15.6035L 24.5532 6.61819C 20.7466 6.88131 17.5642 6.14406 14.2611 4.2338L 9.84875 12.078ZM 28.8241 15.3888C 33.9986 15.0448 39.5776 13.0064 43.7552 9.93361L 38.3552 2.73361C 35.2873 5.09484 32.1781 6.23084 28.3106 6.40348L 28.8241 15.3888ZM 50.2808 5.03939C 49.7512 5.43661 48.8101 5.52004 48.123 4.85309L 54.3917 -1.60474C 51.6917 -4.22566 47.6547 -4.24102 44.8808 -2.16061L 50.2808 5.03939Z"/>
<path id="path17_stroke" d="M 25 6L 27.1224 2.03197L 25.0242 0.909646L 22.9154 2.01199L 25 6ZM 45.4073 16.9155L 43.2848 20.8835L 45.4073 16.9155ZM 4.21687 16.8639L 6.30152 20.8519L 4.21687 16.8639ZM 46.8404 16.3085L 51.1673 17.5447L 46.8404 16.3085ZM -4.4353 0.760337L -1.6673 16.907L 7.2033 15.3863L 4.4353 -0.760337L -4.4353 0.760337ZM 6.30152 20.8519L 27.0846 9.98801L 22.9154 2.01199L 2.13223 12.8759L 6.30152 20.8519ZM 22.8776 9.96803L 43.2848 20.8835L 47.5297 12.9475L 27.1224 2.03197L 22.8776 9.96803ZM 51.1673 17.5447L 55.8269 1.23625L 47.1731 -1.23625L 42.5136 15.0722L 51.1673 17.5447ZM -1.6673 16.907C -1.03685 20.5846 2.99477 22.5804 6.30152 20.8519L 2.13223 12.8759C 4.23652 11.7759 6.8021 13.046 7.2033 15.3863L -1.6673 16.907ZM 43.2848 20.8835C 46.376 22.5369 50.2043 20.9153 51.1673 17.5447L 42.5136 15.0722C 43.1264 12.9272 45.5626 11.8953 47.5297 12.9475L 43.2848 20.8835Z"/>
<path id="path18_stroke" d="M 0.68932 13.1969L -0.272204 16.5623L 0.68932 13.1969ZM 6.67413 -2.06506L -2.40288 10.3561L 3.24885 14.4862L 12.3259 2.06506L 6.67413 -2.06506ZM -0.272204 16.5623L 2.67987 17.4057L 4.60292 10.6751L 1.65084 9.83161L -0.272204 16.5623ZM 18.3997 16.8516L 22.6961 15.2893L 20.3039 8.71072L 16.0075 10.273L 18.3997 16.8516ZM -2.40288 10.3561C -4.0447 12.6028 -2.94779 15.7978 -0.272204 16.5623L 1.65084 9.83161C 3.65754 10.405 4.48021 12.8012 3.24885 14.4862L -2.40288 10.3561ZM 2.67987 17.4057C 7.67524 18.7883 13.5141 18.5825 18.3997 16.8516L 16.0075 10.273C 12.1783 11.7112 8.52387 11.84 4.60292 10.6751L 2.67987 17.4057Z"/>
</defs>
</svg>
