<svg width="238" height="238" viewBox="0 0 238 238" version="1.1" xmlns="http://www.w3.org/2000/svg" xmlns:xlink="http://www.w3.org/1999/xlink">
<title>present</title>
<desc>Created using Figma</desc>
<g id="Canvas" transform="translate(325 -610)">
<g id="present">
<g id="Rectangle 21">
<mask id="mask0_outline_ins">
<use xlink:href="#path0_fill" fill="white" transform="translate(-321 614)"/>
</mask>
<g mask="url(#mask0_outline_ins)">
<use xlink:href="#path1_stroke_2x" transform="translate(-321 614)" fill="#1B87E5"/>
</g>
</g>
<g id="Union">
<use xlink:href="#path2_fill" transform="translate(-325 610)" fill="#FFFFFF"/>
<mask id="mask1_outline_ins">
<use xlink:href="#path2_fill" fill="white" transform="translate(-325 610)"/>
</mask>
<g mask="url(#mask1_outline_ins)">
<use xlink:href="#path3_stroke_2x" transform="translate(-325 610)" fill="#2B87D7"/>
</g>
</g>
<g id="Rectangle 23">
<use xlink:href="#path4_fill" transform="matrix(-0.866025 0.5 0.5 0.866025 -186.051 742)" fill="#FFFFFF"/>
<mask id="mask2_outline_ins">
<use xlink:href="#path4_fill" fill="white" transform="matrix(-0.866025 0.5 0.5 0.866025 -186.051 742)"/>
</mask>
<g mask="url(#mask2_outline_ins)">
<use xlink:href="#path5_stroke_2x" transform="matrix(-0.866025 0.5 0.5 0.866025 -186.051 742)" fill="#1B87E5"/>
</g>
</g>
<g id="Rectangle 23">
<use xlink:href="#path4_fill" transform="matrix(0.866025 0.5 -0.5 0.866025 -229 742)" fill="#FFFFFF"/>
<mask id="mask3_outline_ins">
<use xlink:href="#path4_fill" fill="white" transform="matrix(0.866025 0.5 -0.5 0.866025 -229 742)"/>
</mask>
<g mask="url(#mask3_outline_ins)">
<use xlink:href="#path5_stroke_2x" transform="matrix(0.866025 0.5 -0.5 0.866025 -229 742)" fill="#1B87E5"/>
</g>
</g>
<g id="Vector 12">
<use xlink:href="#path6_fill" transform="matrix(-1 0 0 1 -141 689)" fill="#FFFFFF"/>
<use xlink:href="#path7_stroke" transform="matrix(-1 0 0 1 -141 689)" fill="#1B87E5"/>
</g>
<g id="Vector 12">
<use xlink:href="#path6_fill" transform="translate(-271 689)" fill="#FFFFFF"/>
<use xlink:href="#path7_stroke" transform="translate(-271 689)" fill="#1B87E5"/>
</g>
<g id="Ellipse 9">
<use xlink:href="#path8_fill" transform="translate(-236 699)" fill="#FFFFFF"/>
<mask id="mask4_outline_ins">
<use xlink:href="#path8_fill" fill="white" transform="translate(-236 699)"/>
</mask>
<g mask="url(#mask4_outline_ins)">
<use xlink:href="#path9_stroke_2x" transform="translate(-236 699)" fill="#1B87E5"/>
</g>
</g>
</g>
</g>
<defs>
<path id="path0_fill" d="M 0 25C 0 11.1929 11.1929 0 25 0L 205 0C 218.807 0 230 11.1929 230 25L 230 205C 230 218.807 218.807 230 205 230L 25 230C 11.1929 230 0 218.807 0 205L 0 25Z"/>
<path id="path1_stroke_2x" d="M 25 9L 205 9L 205 -9L 25 -9L 25 9ZM 221 25L 221 205L 239 205L 239 25L 221 25ZM 205 221L 25 221L 25 239L 205 239L 205 221ZM 9 205L 9 25L -9 25L -9 205L 9 205ZM 25 -9C 6.22232 -9 -9 6.22232 -9 25L 9 25C 9 16.1634 16.1634 9 25 9L 25 -9ZM 205 9C 213.837 9 221 16.1634 221 25L 239 25C 239 6.22232 223.778 -9 205 -9L 205 9ZM 221 205C 221 213.837 213.837 221 205 221L 205 239C 223.778 239 239 223.778 239 205L 221 205ZM 25 221C 16.1634 221 9 213.837 9 205L -9 205C -9 223.778 6.22232 239 25 239L 25 221Z"/>
<path id="path2_fill" fill-rule="evenodd" d="M 139 3C 139 1.34314 137.657 0 136 0L 102 0C 100.343 0 99 1.34314 99 3L 99 99L 3 99C 1.34314 99 0 100.343 0 102L 0 136C 0 137.657 1.34314 139 3 139L 99 139L 99 235C 99 236.657 100.343 238 102 238L 136 238C 137.657 238 139 236.657 139 235L 139 139L 235 139C 236.657 139 238 137.657 238 136L 238 102C 238 100.343 236.657 99 235 99L 139 99L 139 3Z"/>
<path id="path3_stroke_2x" d="M 99 99L 99 108L 108 108L 108 99L 99 99ZM 99 139L 108 139L 108 130L 99 130L 99 139ZM 139 139L 139 130L 130 130L 130 139L 139 139ZM 139 99L 130 99L 130 108L 139 108L 139 99ZM 136 9C 132.686 9 130 6.3137 130 3L 148 3C 148 -3.62742 142.627 -9 136 -9L 136 9ZM 102 9L 136 9L 136 -9L 102 -9L 102 9ZM 108 3C 108 6.3137 105.314 9 102 9L 102 -9C 95.3726 -9 90 -3.62742 90 3L 108 3ZM 108 99L 108 3L 90 3L 90 99L 108 99ZM 3 108L 99 108L 99 90L 3 90L 3 108ZM 9 102C 9 105.314 6.3137 108 3 108L 3 90C -3.62742 90 -9 95.3726 -9 102L 9 102ZM 9 136L 9 102L -9 102L -9 136L 9 136ZM 3 130C 6.3137 130 9 132.686 9 136L -9 136C -9 142.627 -3.62742 148 3 148L 3 130ZM 99 130L 3 130L 3 148L 99 148L 99 130ZM 108 235L 108 139L 90 139L 90 235L 108 235ZM 102 229C 105.314 229 108 231.686 108 235L 90 235C 90 241.627 95.3726 247 102 247L 102 229ZM 136 229L 102 229L 102 247L 136 247L 136 229ZM 130 235C 130 231.686 132.686 229 136 229L 136 247C 142.627 247 148 241.627 148 235L 130 235ZM 130 139L 130 235L 148 235L 148 139L 130 139ZM 235 130L 139 130L 139 148L 235 148L 235 130ZM 229 136C 229 132.686 231.686 130 235 130L 235 148C 241.627 148 247 142.627 247 136L 229 136ZM 229 102L 229 136L 247 136L 247 102L 229 102ZM 235 108C 231.686 108 229 105.314 229 102L 247 102C 247 95.3726 241.627 90 235 90L 235 108ZM 139 108L 235 108L 235 90L 139 90L 139 108ZM 130 3L 130 99L 148 99L 148 3L 130 3Z"/>
<path id="path4_fill" d="M 0 0L 29.9633 0L 29.9633 63.2558L 14.9816 49.9388L 0 63.2558L 0 0Z"/>
<path id="path5_stroke_2x" d="M 0 0L 0 -9L -9 -9L -9 0L 0 0ZM 29.9633 0L 38.9633 0L 38.9633 -9L 29.9633 -9L 29.9633 0ZM 29.9633 63.2558L 23.984 69.9824L 38.9633 83.2973L 38.9633 63.2558L 29.9633 63.2558ZM 0 63.2558L -9 63.2558L -9 83.2973L 5.97927 69.9824L 0 63.2558ZM 14.9816 49.9388L 20.9609 43.2121L 14.9816 37.8972L 9.00235 43.2121L 14.9816 49.9388ZM 0 9L 29.9633 9L 29.9633 -9L 0 -9L 0 9ZM 20.9633 0L 20.9633 63.2558L 38.9633 63.2558L 38.9633 0L 20.9633 0ZM 9 63.2558L 9 0L -9 0L -9 63.2558L 9 63.2558ZM 35.9425 56.5291L 20.9609 43.2121L 9.00235 56.6654L 23.984 69.9824L 35.9425 56.5291ZM 9.00235 43.2121L -5.97927 56.5291L 5.97927 69.9824L 20.9609 56.6654L 9.00235 43.2121Z"/>
<path id="path6_fill" d="M 16.1641 0C 33.4656 0 45 20.7273 45 20.7273L 45 62.1818C 45 62.1818 32.3122 76 16.1641 76C 0.01595 76 0.0159651 62.1818 0.0159651 62.1818L 0.0159651 11.5152C 0.0159651 11.5152 -1.13749 0 16.1641 0Z"/>
<path id="path7_stroke" d="M 45 20.7273L 49.5 20.7273L 49.5 19.5595L 48.9322 18.5391L 45 20.7273ZM 0.0159651 11.5152L 4.51597 11.5152L 4.51597 11.2903L 4.49356 11.0666L 0.0159651 11.5152ZM 0.0159651 62.1818L 4.51597 62.1818L 4.51597 62.1818L 0.0159651 62.1818ZM 45 62.1818L 48.3147 65.2253L 49.5 63.9344L 49.5 62.1818L 45 62.1818ZM 45 20.7273C 48.9322 18.5391 48.9314 18.5378 48.9307 18.5364C 48.9303 18.5358 48.9295 18.5344 48.9289 18.5332C 48.9281 18.5318 48.9262 18.5284 48.9246 18.5255C 48.9222 18.5213 48.9173 18.5126 48.9126 18.5043C 48.9051 18.491 48.891 18.466 48.876 18.4396C 48.8497 18.3935 48.8041 18.3143 48.7516 18.2243C 48.6543 18.0579 48.495 17.7901 48.3018 17.4762C 47.9323 16.8768 47.3462 15.9621 46.6216 14.919C 45.2107 12.8927 42.9981 10.0123 40.294 7.2241C 34.9404 1.72673 26.6303 -4.5 16.1641 -4.5L 16.1641 4.5C 22.9995 4.5 29.1073 8.63691 33.8463 13.5032C 36.1884 15.8968 37.9408 18.1983 39.2333 20.0583C 39.8603 20.9583 40.3105 21.663 40.6394 22.1971C 40.7953 22.45 40.9007 22.6275 40.9809 22.7647C 41.017 22.8266 41.0384 22.8637 41.0568 22.8961C 41.0641 22.9089 41.0668 22.9136 41.0705 22.9202C 41.0714 22.9219 41.0717 22.9224 41.0712 22.9215C 41.0714 22.9219 41.0699 22.9192 41.07 22.9194C 41.0698 22.9189 41.0692 22.9179 41.0691 22.9177C 41.0685 22.9166 41.0678 22.9155 45 20.7273ZM 16.1641 -4.5C 6.43931 -4.5 0.753462 -1.18665 -2.16919 3.30226C -3.43867 5.34988 -4.13383 7.70286 -4.34398 9.04729C -4.45273 9.80828 -4.49571 10.5768 -4.49969 10.9882C -4.50059 11.2334 -4.49322 11.4857 -4.48713 11.6109C -4.4829 11.6921 -4.47694 11.7822 -4.4739 11.8228C -4.47164 11.8521 -4.46866 11.8878 -4.46739 11.9024C -4.46634 11.9141 -4.46493 11.9295 -4.46438 11.9353C -4.4639 11.9404 -4.46322 11.9475 -4.46297 11.9501C -4.46274 11.9524 -4.4624 11.9558 -4.46229 11.957C -4.46196 11.9604 -4.46163 11.9637 0.0159651 11.5152C 4.49356 11.0666 4.49388 11.0699 4.49419 11.073C 4.49429 11.074 4.4946 11.0772 4.4948 11.0792C 4.49462 11.0773 4.49626 11.0945 4.49591 11.0908C 4.49562 11.0878 4.49833 11.1174 4.49778 11.1112C 4.49748 11.1077 4.50087 11.1489 4.50027 11.1414C 4.50053 11.1444 4.50159 11.1639 4.5016 11.1607C 4.49924 11.1173 4.49873 11.1222 4.50008 11.0526C 4.50061 10.8342 4.50268 10.7031 4.55613 10.3845C 4.67039 9.56987 4.76821 9.04406 5.37306 8.2129C 6.19907 6.94422 8.58728 4.5 16.1641 4.5L 16.1641 -4.5ZM -4.48403 11.5152L -4.48403 62.1818L 4.51597 62.1818L 4.51597 11.5152L -4.48403 11.5152ZM 0.0159651 62.1818C -4.48403 62.1818 -4.48403 62.1845 -4.48403 62.1871C -4.48403 62.1881 -4.48403 62.1908 -4.48402 62.1928C -4.48402 62.1949 -4.484 62.2007 -4.48398 62.205C -4.48395 62.2102 -4.48387 62.2232 -4.48378 62.2336C -4.48365 62.2473 -4.48324 62.2788 -4.48274 62.3063C -4.48195 62.3472 -4.47974 62.4311 -4.47668 62.5122C -4.47139 62.6452 -4.45781 62.8932 -4.4369 63.1499C -4.39856 63.6018 -4.30438 64.385 -4.14872 65.2012C -3.85224 66.6986 -3.10804 69.143 -1.85088 71.3612C 0.983441 76.2119 6.5085 80.5 16.1641 80.5L 16.1641 71.5C 9.67153 71.5 7.12253 68.879 5.91983 66.8207C 5.15848 65.5843 4.89342 64.5741 4.68528 63.4806C 4.58863 63.0014 4.55665 62.705 4.53191 62.4013C 4.52128 62.2801 4.51909 62.2313 4.5165 62.1619C 4.51561 62.1417 4.51547 62.1253 4.51566 62.1367C 4.51566 62.1353 4.51584 62.1506 4.51583 62.1501C 4.5158 62.1464 4.51593 62.1655 4.51593 62.1636C 4.51591 62.161 4.51596 62.1735 4.51595 62.1722C 4.51596 62.1737 4.51596 62.1761 4.51596 62.1768C 4.51596 62.1793 4.51597 62.1818 0.0159651 62.1818ZM 16.1641 80.5C 25.2353 80.3881 33.6716 76.4572 39.1309 72.8371C 41.9161 70.9761 44.2609 69.0453 45.7728 67.6882C 46.5538 66.9855 47.1979 66.364 47.6026 65.9602C 47.8162 65.7467 47.9961 65.5617 48.1044 65.4486C 48.1639 65.3864 48.2169 65.3303 48.2468 65.2984C 48.2643 65.2797 48.2814 65.2614 48.2901 65.2519C 48.2958 65.2458 48.3019 65.2392 48.3048 65.2361C 48.3068 65.2339 48.3093 65.2312 48.3103 65.2301C 48.3111 65.2292 48.3122 65.228 48.3126 65.2276C 48.3137 65.2264 48.3147 65.2253 45 62.1818C 41.6853 59.1383 41.6862 59.1373 41.6871 59.1364C 41.6873 59.1362 41.6881 59.1353 41.6885 59.1348C 41.6883 59.1351 41.6911 59.132 41.6906 59.1326C 41.6909 59.1323 41.6919 59.1312 41.6914 59.1318C 41.6878 59.1356 41.6864 59.1371 41.6794 59.1445C 41.6603 59.165 41.6401 59.1864 41.6027 59.2254C 41.5173 59.3147 41.4088 59.4266 41.244 59.5909C 40.8917 59.9428 40.4185 60.4008 39.7577 60.9936C 38.3859 62.2274 36.5495 63.7512 34.1443 65.3448C 29.2227 68.6337 23.241 71.6119 16.1641 71.5L 16.1641 80.5ZM 49.5 62.1818L 49.5 20.7273L 40.5 20.7273L 40.5 62.1818L 49.5 62.1818Z"/>
<path id="path8_fill" d="M 60 30C 60 46.5685 46.5685 60 30 60C 13.4315 60 0 46.5685 0 30C 0 13.4315 13.4315 0 30 0C 46.5685 0 60 13.4315 60 30Z"/>
<path id="path9_stroke_2x" d="M 51 30C 51 41.598 41.598 51 30 51L 30 69C 51.5391 69 69 51.5391 69 30L 51 30ZM 30 51C 18.402 51 9 41.598 9 30L -9 30C -9 51.5391 8.46089 69 30 69L 30 51ZM 9 30C 9 18.402 18.402 9 30 9L 30 -9C 8.46089 -9 -9 8.46089 -9 30L 9 30ZM 30 9C 41.598 9 51 18.402 51 30L 69 30C 69 8.46089 51.5391 -9 30 -9L 30 9Z"/>
</defs>
</svg>
