<svg width="208" height="233" viewBox="0 0 208 233" version="1.1" xmlns="http://www.w3.org/2000/svg" xmlns:xlink="http://www.w3.org/1999/xlink">
<title>Roket</title>
<desc>Created using Figma</desc>
<g id="Canvas" transform="translate(79 -1640)">
<g id="Roket">
<g id="Subtract">
<use xlink:href="#path0_fill" transform="translate(-75.9237 1837)" fill="#1D84DE"/>
</g>
<g id="Subtract">
<use xlink:href="#path1_fill" transform="translate(-29.984 1819)" fill="#1D84DE"/>
</g>
<g id="Ellipse 17">
<use xlink:href="#path2_fill" transform="translate(53.5 1862)" fill="#1D84DE"/>
</g>
<g id="Ellipse 18">
<use xlink:href="#path3_fill" transform="translate(118.5 1860)" fill="#1D84DE"/>
</g>
<g id="Ellipse 18">
<use xlink:href="#path4_fill" transform="matrix(0.445235 0.895414 0.895414 -0.445235 -78.6304 1863.71)" fill="#1D84DE"/>
</g>
<g id="Ellipse 17">
<use xlink:href="#path5_fill" transform="translate(26.2395 1857.92)" fill="#1D84DE"/>
</g>
<g id="Ellipse 17">
<use xlink:href="#path6_fill" transform="matrix(0.707107 -0.707107 0.707107 0.707107 -48 1856.15)" fill="#1D84DE"/>
</g>
<g id="Ellipse 17">
<use xlink:href="#path7_fill" transform="matrix(0.97833 -0.207054 0.207054 0.97833 -11.2865 1849.65)" fill="#1D84DE"/>
</g>
<g id="Ellipse 17">
<use xlink:href="#path8_fill" transform="translate(82.946 1855.4)" fill="#1D84DE"/>
</g>
<g id="Group">
<g id="Rectangle 30">
<mask id="mask0_outline_ins">
<use xlink:href="#path9_fill" fill="white" transform="translate(-27.7076 1727)"/>
</mask>
<g mask="url(#mask0_outline_ins)">
<use xlink:href="#path10_stroke_2x" transform="translate(-27.7076 1727)" fill="#1D84DE"/>
</g>
</g>
<g id="Ellipse 14">
<use xlink:href="#path11_fill" transform="translate(-13 1640)" fill="#FFFFFF"/>
<mask id="mask1_outline_ins">
<use xlink:href="#path11_fill" fill="white" transform="translate(-13 1640)"/>
</mask>
<g mask="url(#mask1_outline_ins)">
<use xlink:href="#path12_stroke_2x" transform="translate(-13 1640)" fill="#1D84DE"/>
</g>
</g>
<g id="Ellipse 15">
<mask id="mask2_outline_ins">
<use xlink:href="#path13_fill" fill="white" transform="translate(9 1678)"/>
</mask>
<g mask="url(#mask2_outline_ins)">
<use xlink:href="#path14_stroke_2x" transform="translate(9 1678)" fill="#1D84DE"/>
</g>
</g>
<g id="Rectangle 31">
<use xlink:href="#path15_fill" transform="translate(3 1662)" fill="#1D84DE"/>
</g>
</g>
<g id="Rectangle 32">
<use xlink:href="#path16_fill" transform="translate(19 1727)" fill="#1D84DE"/>
</g>
<g id="Rectangle 32">
<use xlink:href="#path17_fill" transform="translate(33 1791)" fill="#1D84DE"/>
</g>
<g id="Rectangle 32">
<use xlink:href="#path18_fill" transform="translate(3 1797)" fill="#1D84DE"/>
</g>
<g id="Rectangle 32">
<use xlink:href="#path19_fill" transform="translate(18 1808)" fill="#1D84DE"/>
</g>
</g>
</g>
<defs>
<path id="path0_fill" fill-rule="evenodd" d="M 130.098 30L 141.776 30L 143.939 25.5991C 145.579 22.264 148.995 20 152.924 20C 155.37 19.894 156.453 20.2625 158.371 21.6113L 166.638 27L 166.826 27L 171.315 18.1388C 173.47 13.8844 177.868 11 182.924 11C 190.103 11 195.924 16.8203 195.924 24C 195.924 26.1643 195.395 28.205 194.459 30L 204.096 30C 204.635 28.0927 204.924 26.0801 204.924 24C 204.924 11.8497 195.074 2 182.924 2C 176.059 2 169.929 5.14404 165.894 10.0706C 164.887 11.3003 164.011 12.6411 163.286 14.0718C 162.141 13.3252 160.91 12.6989 159.612 12.2104C 157.531 11.428 155.278 11 152.924 11C 148.857 11 145.09 12.2773 141.999 14.4528C 139.931 15.9091 138.166 17.7677 136.818 19.9152C 136.471 20.4678 136.152 21.0396 135.863 21.6285C 135.642 21.2084 135.404 20.798 135.152 20.3982C 133.704 18.1066 131.753 16.1646 129.454 14.7271C 126.69 12.9989 123.424 12 119.924 12C 119.146 12 118.379 12.0493 117.627 12.1451C 114.535 12.5388 111.688 13.717 109.292 15.474C 108.159 12.6388 106.479 10.0817 104.382 7.93347C 100.205 3.65576 94.3746 1 87.9237 1C 81.9172 1 76.4484 3.30249 72.3519 7.073C 72.0255 7.37341 71.7078 7.68323 71.3992 8.00183C 71.0425 7.63586 70.6752 7.28027 70.2979 6.93542C 65.5855 2.62769 59.3115 0 52.4237 0C 43.3561 0 35.3521 4.55432 30.5745 11.5002C 28.9084 11.172 27.1861 11 25.4237 11C 13.3931 11 3.23487 19.017 0 30L 9.60784 30C 12.4165 24.0876 18.4428 20 25.4237 20C 26.7384 19.9889 27.5899 20.075 28.8349 20.3306L 34.6379 21.4738L 37.9898 16.6007C 41.1601 11.9915 46.4437 9 52.4237 9C 57.3382 9 61.7661 11.0139 64.9552 14.2847L 71.4214 20.9167L 77.8647 14.2626C 80.4205 11.6232 83.9747 10 87.9237 10C 93.808 10 98.8654 13.6332 100.934 18.8119L 104.204 27L 108.792 27L 114.613 22.7322C 116.467 21.2516 117.458 20.8722 119.924 21C 123.371 21 126.38 22.9349 127.898 25.8202L 130.098 30Z"/>
<path id="path1_fill" fill-rule="evenodd" d="M 0 25.573C 0.488417 11.3668 12.1588 0 26.4841 0C 33.3718 0 39.6458 2.62769 44.3582 6.93542C 44.7355 7.28027 45.1028 7.63586 45.4596 8.00183C 45.7681 7.68323 46.0858 7.37341 46.4122 7.073C 50.5088 3.30249 55.9775 1 61.9841 1C 68.435 1 74.2656 3.65576 78.4422 7.93347C 80.5395 10.0817 82.2197 12.6388 83.352 15.474C 85.7483 13.717 88.5954 12.5388 91.6875 12.1451C 92.4395 12.0493 93.206 12 93.9841 12C 103.925 12 111.984 20.0588 111.984 30L 102.984 30C 102.984 25.0294 98.9547 21 93.9841 21C 91.5184 20.8722 90.5274 21.2516 88.6736 22.7322L 82.8526 27L 78.2639 27L 74.9939 18.8119C 72.9257 13.6332 67.8683 10 61.9841 10C 58.035 10 54.4809 11.6232 51.9251 14.2626L 45.4817 20.9167L 39.0156 14.2847C 35.8265 11.0139 31.3985 9 26.4841 9C 16.8429 9 9.02271 16.7965 8.98423 26.4286L 0 25.573Z"/>
<path id="path2_fill" d="M 12.5 4.5C 12.0833 7 9.81371 9 6.5 9C 2.21429 9 0.5 5.5 0 3C 0 0.514719 3.18629 0 6.5 0C 9.81371 0 13 1.5 12.5 4.5Z"/>
<path id="path3_fill" d="M 10 5.5C 10 7.70914 7.76142 11 5 11C 2.23858 11 0 9.20914 0 7C 1 4 3.23858 0 6 0C 8.76142 0 10 3.29086 10 5.5Z"/>
<path id="path4_fill" d="M 10 6.03528C 10 8.24442 7.76142 11.5353 5 11.5353C 2.23858 11.5353 0 9.74442 0 7.53528C 1 4.53528 3.14638 0 5.9078 0C 8.66923 0 10 3.82614 10 6.03528Z"/>
<path id="path5_fill" d="M 11.7605 2.07634C 8.7605 5.57634 6.51219 7.7688 4.57919 7.7688C 2.07919 7.7688 1.57919 4.7688 0.579192 2.7688C -1.76704 -1.92358 3.64619 0.768799 5.57919 0.768799C 7.51219 0.768799 11.7605 0.143341 11.7605 2.07634Z"/>
<path id="path6_fill" d="M 13.8946 5.1973C 13.8771 5.01548 11.7733 5.1973 5.81869 7.69246C 3.31869 7.69246 1.81869 4.69246 0.818689 2.69246C -2.18128 -1.80739 3.88569 0.692462 5.81869 0.692462C 7.75168 0.692462 13.8946 3.26431 13.8946 5.1973Z"/>
<path id="path7_fill" d="M 16.0674 2.73984C 12.1256 4.46097 12.5701 7.64588 6.61548 10.141C 4.11548 10.141 2.61548 7.14104 1.61548 5.14104C -1.33556 -1.96524 -0.564185 -0.780193 6.61548 3.14104C 8.54848 3.14104 16.0674 0.806841 16.0674 2.73984Z"/>
<path id="path8_fill" d="M 12.0539 0.601214C 11.0539 3.10132 11.0539 8.60132 8.05394 8.60132C 2.55394 8.60132 -0.446045 2.60132 0.0539415 2.10132C 0.0539415 0.168322 6.12095 1.60132 8.05394 1.60132C 9.98694 1.60132 12.7717 -1.19334 12.0539 0.601214Z"/>
<path id="path9_fill" d="M 16.7076 0C 41.2076 0.00191975 63.2076 0.00139093 85.7076 0C 103.195 13.379 103.635 50.2212 103.07 64.8736C 102.958 67.7679 99.8518 69.4434 97.2628 68.1447C 87.6091 63.3025 67.0648 54 51.7076 54C 36.3046 54 15.6834 63.3582 6.06629 68.188C 3.50059 69.4766 0.415052 67.8456 0.260991 64.9786C -0.521517 50.4168 -0.652155 13.5027 16.7076 0Z"/>
<path id="path10_stroke_2x" d="M 16.7076 0L 16.7084 -9C 14.7067 -9.00016 12.762 -8.333 11.182 -7.10405L 16.7076 0ZM 85.7076 0L 91.1763 -7.14798C 89.6061 -8.34927 87.6841 -9.00012 85.7071 -9L 85.7076 0ZM 103.07 64.8736L 94.0766 64.5269L 103.07 64.8736ZM 97.2628 68.1447L 93.2276 76.1894L 97.2628 68.1447ZM 16.7069 9C 41.2074 9.00192 63.208 9.00139 85.7082 9L 85.7071 -9C 63.2073 -8.99861 41.2079 -8.99808 16.7084 -9L 16.7069 9ZM 80.239 7.14798C 86.1205 11.6477 90.1376 21.1949 92.2931 33.5108C 94.4164 45.4415 94.3542 57.3631 94.0766 64.5269L 112.063 65.2202C 112.35 57.7317 112.351 43.9059 110.024 30.4077C 107.729 17.2947 102.782 1.73127 91.1763 -7.14798L 80.239 7.14798ZM 9.24802 64.4957C 8.864 57.3764 8.61908 45.4629 10.5677 33.5152C 12.5441 21.173 16.4275 11.6199 22.2333 7.10405L 11.182 -7.10405C -0.372003 1.88284 -5.10318 17.5381 -7.20583 30.6691C -9.33618 44.1946 -9.12452 58.0191 -8.72604 65.4616L 9.24802 64.4957ZM 101.298 60.1C 96.3627 57.6254 88.3037 53.8614 79.6329 50.7744C 70.9972 47.7202 60.5241 45.0722 51.7076 45L 51.7076 63C 58.2484 62.9278 65.7259 64.931 73.6152 67.7387C 81.4692 70.5134 88.5092 73.8218 93.2276 76.1894L 101.298 60.1ZM 51.7076 45C 42.8655 45.0725 32.3594 47.7356 23.7037 50.8023C 15.0121 53.9021 6.94342 57.6772 2.02712 60.1453L 10.1055 76.2307C 14.8063 73.869 21.8567 70.55 29.7308 67.7633C 37.6408 64.9434 45.1468 62.9274 51.7076 63L 51.7076 45ZM 94.0766 64.5269C 94.24 60.288 98.5772 58.7353 101.298 60.1L 93.2276 76.1894C 101.126 80.1515 111.677 75.2479 112.063 65.2202L 94.0766 64.5269ZM -8.72604 65.4616C -8.19205 75.3987 2.28128 80.1602 10.1055 76.2307L 2.02712 60.1453C 4.71989 58.793 9.02215 60.2924 9.24802 64.4957L -8.72604 65.4616Z"/>
<path id="path11_fill" d="M 73 70.5C 73 109.436 45.5 141 36.5 141C 27.5 141 0 109.436 0 70.5C 0 31.5639 26.5 1.91575e-10 36.5 8.72065e-22C 46.5 -1.91575e-10 73 31.5639 73 70.5Z"/>
<path id="path12_stroke_2x" d="M 64 70.5C 64.1552 88.304 58.0846 103.549 50.5001 115.57C 46.8328 121.455 43.3048 125.708 39.8775 128.863C 38.2779 130.362 37.2596 131.149 36.1245 131.79C 35.0447 132.418 35.2828 132 36.5 132L 36.5 150C 39.9672 150 43.0334 148.595 45.1801 147.346C 47.2717 146.108 49.8783 144.125 52.1225 142.056C 56.3827 138.076 61.4172 132.005 65.7499 125.132C 74.1654 111.637 81.8448 91.632 82 70.5L 64 70.5ZM 36.5 132C 37.7172 132 37.9553 132.418 36.8755 131.79C 35.7404 131.149 34.7221 130.362 33.1225 128.863C 29.6952 125.708 26.1672 121.455 22.4999 115.57C 14.9154 103.549 8.84483 88.304 9 70.5L -9 70.5C -8.84483 91.632 -1.16536 111.637 7.25008 125.132C 11.5828 132.005 16.6173 138.076 20.8775 142.056C 23.1217 144.125 25.7283 146.108 27.8199 147.346C 29.9666 148.595 33.0328 150 36.5 150L 36.5 132ZM 9 70.5C 8.85496 52.6412 14.7043 37.3725 22.1585 25.3763C 25.7577 19.5059 29.2188 15.2998 32.6607 12.1737C 34.2639 10.6881 35.2755 9.92281 36.4487 9.29003C 37.4926 8.70706 37.4293 9 36.5 9L 36.5 -9C 33.0707 -9 29.9917 -7.72069 27.6724 -6.42541C 25.4823 -5.17994 22.783 -3.17514 20.4956 -1.09322C 16.1562 2.91568 11.1173 9.03409 6.84149 15.9217C -1.45428 29.4415 -8.85496 49.4227 -9 70.5L 9 70.5ZM 36.5 9C 35.5707 9 35.5074 8.70706 36.5513 9.29003C 37.7245 9.92281 38.7361 10.6881 40.3393 12.1737C 43.7812 15.2998 47.2423 19.5059 50.8415 25.3763C 58.2957 37.3725 64.145 52.6412 64 70.5L 82 70.5C 81.855 49.4227 74.4543 29.4415 66.1585 15.9217C 61.8827 9.03409 56.8438 2.91568 52.5044 -1.09322C 50.217 -3.17514 47.5177 -5.17994 45.3276 -6.42541C 43.0083 -7.72069 39.9293 -9 36.5 -9L 36.5 9Z"/>
<path id="path13_fill" d="M 30 15C 30 23.2843 23.2843 30 15 30C 6.71573 30 0 23.2843 0 15C 0 6.71573 6.71573 0 15 0C 23.2843 0 30 6.71573 30 15Z"/>
<path id="path14_stroke_2x" d="M 21 15C 21 18.3137 18.3137 21 15 21L 15 39C 28.2548 39 39 28.2548 39 15L 21 15ZM 15 21C 11.6863 21 9 18.3137 9 15L -9 15C -9 28.2548 1.74517 39 15 39L 15 21ZM 9 15C 9 11.6863 11.6863 9 15 9L 15 -9C 1.74517 -9 -9 1.74517 -9 15L 9 15ZM 15 9C 18.3137 9 21 11.6863 21 15L 39 15C 39 1.74517 28.2548 -9 15 -9L 15 9Z"/>
<path id="path15_fill" d="M 0 0L 40 0L 40 9L 0 9L 0 0Z"/>
<path id="path16_fill" d="M 0 4.5C 0 2.01472 2.01472 0 4.5 0L 4.5 0C 6.98528 0 9 2.01472 9 4.5L 9 64.5C 9 66.9853 6.98528 69 4.5 69L 4.5 69C 2.01472 69 0 66.9853 0 64.5L 0 4.5Z"/>
<path id="path17_fill" d="M 0 4.5C 0 2.01472 2.01472 0 4.5 0L 4.5 0C 6.98528 0 9 2.01472 9 4.5L 9 31.5C 9 33.9853 6.98528 36 4.5 36L 4.5 36C 2.01472 36 0 33.9853 0 31.5L 0 4.5Z"/>
<path id="path18_fill" d="M 0 4.5C 0 2.01472 2.01472 0 4.5 0L 4.5 0C 6.98528 0 9 2.01472 9 4.5L 9 25.5C 9 27.9853 6.98528 30 4.5 30L 4.5 30C 2.01472 30 0 27.9853 0 25.5L 0 4.5Z"/>
<path id="path19_fill" d="M 0 4.5C 0 2.01472 2.01472 0 4.5 0L 4.5 0C 6.98528 0 9 2.01472 9 4.5L 9 14.5C 9 16.9853 6.98528 19 4.5 19L 4.5 19C 2.01472 19 0 16.9853 0 14.5L 0 4.5Z"/>
</defs>
</svg>
