<svg width="174" height="218" viewBox="0 0 174 218" version="1.1" xmlns="http://www.w3.org/2000/svg" xmlns:xlink="http://www.w3.org/1999/xlink">
<title>Shield</title>
<desc>Created using Figma</desc>
<g id="Canvas" transform="translate(-683 62)">
<g id="Shield">
<g id="Rectangle 18">
<mask id="mask0_outline_ins">
<use xlink:href="#path0_fill" fill="white" transform="translate(683 -63)"/>
</mask>
<g mask="url(#mask0_outline_ins)">
<use xlink:href="#path1_stroke_2x" transform="translate(683 -63)" fill="#1B87E5"/>
</g>
</g>
<g id="Vector">
<use xlink:href="#path2_fill" transform="translate(722 9)" fill="#1B87E5"/>
</g>
</g>
</g>
<defs>
<path id="path0_fill" d="M 81.8377 2.46806C 85.0739 0.780137 88.9106 0.819824 92.1373 2.52565C 114.762 14.4863 139.269 37.4995 169.999 39.3775C 172.204 39.5123 174 41.2711 174 43.4802C 174 141.58 174 47.002 174 123.421C 174 130.047 172.397 136.585 169.078 142.32C 150.1 175.109 128.062 198.874 89.8798 217.027C 86.4877 218.64 82.5247 218.608 79.1663 216.926C 42.9527 198.79 23.4354 175.06 4.88347 142.343C 1.6149 136.579 4.84452e-05 130.039 3.82268e-05 123.413C 1.05386e-05 105.457 -3.33961e-05 67.5819 4.15284e-05 43.4835C 4.83968e-05 41.2744 1.79605 39.5121 4.00124 39.3802C 35.5058 37.4955 60.006 13.855 81.8377 2.46806Z"/>
<path id="path1_stroke_2x" d="M 89.8798 217.027L 93.7442 225.155L 89.8798 217.027ZM 79.1663 216.926L 83.1964 208.879L 79.1663 216.926ZM 4.88347 142.343L -2.94542 146.783L 4.88347 142.343ZM 169.078 142.32L 161.288 137.812L 169.078 142.32ZM 169.999 39.3775L 170.548 30.3943L 169.999 39.3775ZM 92.1373 2.52565L 87.9311 10.4823L 92.1373 2.52565ZM 9.00004 123.412C 9.00001 105.457 8.99997 67.5819 9.00004 43.4835L -8.99996 43.4835C -9.00003 67.5819 -8.99999 105.458 -8.99996 123.413L 9.00004 123.412ZM 165 43.4802C 165 68.0052 165 80.4877 165 86.6104C 165 89.6717 165 91.143 165 91.7347C 165 91.8826 165 91.9755 165 92.0246C 165 92.0491 165 92.0626 165 92.0666C 165 92.0671 165 92.0674 165 92.0676C 165 92.0678 174 92.0679 183 92.0678C 183 92.0676 183 92.0669 183 92.0655C 183 92.0629 183 92.0581 183 92.0512C 183 91.9959 183 91.8096 183 91.5808C 183 91.1234 183 90.4966 183 90.4107C 183 90.4054 183 90.4021 183 90.4012C 183 90.4009 174 90.4008 165 90.4009C 165 90.4009 165 90.4011 165 90.4014C 165 90.4021 165 90.4034 165 90.4053C 165 90.4128 165 90.4302 165 90.4589C 165 90.5161 165 90.6182 165 90.7764C 165 91.0927 165 91.633 165 92.4862C 165 95.8987 165 104.316 165 123.421L 183 123.421C 183 104.316 183 95.8987 183 92.4862C 183 91.633 183 91.0927 183 90.7764C 183 90.6182 183 90.5161 183 90.4589C 183 90.4302 183 90.4128 183 90.4053C 183 90.4034 183 90.4021 183 90.4014C 183 90.4011 183 90.4009 183 90.4009C 174 90.4008 165 90.4009 165 90.4012C 165 90.4021 165 90.4054 165 90.4107C 165 90.4966 165 91.1234 165 91.5808C 165 91.8096 165 91.9959 165 92.0512C 165 92.0581 165 92.0629 165 92.0655C 165 92.0669 165 92.0676 165 92.0678C 174 92.0679 183 92.0678 183 92.0676C 183 92.0674 183 92.0671 183 92.0666C 183 92.0626 183 92.0491 183 92.0246C 183 91.9755 183 91.8826 183 91.7347C 183 91.143 183 89.6717 183 86.6104C 183 80.4877 183 68.0052 183 43.4802L 165 43.4802ZM 4.53869 48.3641C 21.9251 47.1719 37.9184 40.0355 51.1299 32.2331C 64.3522 24.3927 75.7334 15.7674 85.9998 10.4478L 77.6756 -5.51173C 66.1103 0.555636 54.3255 9.44399 41.9637 16.7418C 29.591 24.0776 17.5819 29.7038 3.4638 30.3962L 4.53869 48.3641ZM 87.9311 10.4823C 98.6514 16.1201 110.272 24.7589 123.486 32.5016C 136.699 40.2141 152.475 47.1758 169.45 48.3608L 170.548 30.3943C 156.793 29.7012 144.951 24.2173 132.572 16.9635C 120.193 9.73997 108.248 0.891927 96.3436 -5.43096L 87.9311 10.4823ZM 161.288 137.812C 142.86 169.762 122.734 191.62 86.0155 208.899L 93.7442 225.155C 133.389 206.128 157.339 180.457 176.867 146.829L 161.288 137.812ZM 83.1964 208.879C 48.5656 191.755 30.853 169.962 12.7124 137.904L -2.94542 146.783C 16.0179 180.157 37.3399 205.826 75.1363 224.973L 83.1964 208.879ZM 86.0155 208.899C 85.1125 209.328 84.0621 209.312 83.1964 208.879L 75.1363 224.973C 80.9874 227.904 87.8628 227.951 93.7442 225.155L 86.0155 208.899ZM -8.99996 123.413C -8.93411 131.125 -6.74657 139.909 -2.94542 146.783L 12.7124 137.904C 9.97637 133.25 8.93421 128.952 9.00004 123.412L -8.99996 123.413ZM 165 123.421C 165.065 128.968 164.048 133.226 161.288 137.812L 176.867 146.829C 180.747 139.945 182.935 131.126 183 123.421L 165 123.421ZM 9.00004 43.4835C 9.00003 46.4269 6.68673 48.2356 4.53869 48.3641L 3.4638 30.3962C -3.09463 30.7886 -8.99994 36.1218 -8.99996 43.4835L 9.00004 43.4835ZM 183 43.4802C 183 36.1076 177.085 30.7938 170.548 30.3943L 169.45 48.3608C 167.323 48.2308 165 46.4345 165 43.4802L 183 43.4802ZM 85.9998 10.4478C 86.5631 10.154 87.2709 10.1332 87.9311 10.4823L 96.3436 -5.43096C 90.5502 -8.49359 83.5846 -8.59375 77.6756 -5.51173L 85.9998 10.4478Z"/>
<path id="path2_fill" d="M 84.3875 5.65108C 79.9686 2.01828 74.2934 0.0218445 68.4109 0.0218445C 61.6164 0.0218445 55.0393 2.70643 50.3688 7.39546C 49.5293 8.23964 48.7421 9.14584 48.0033 10.1301C 42.2838 2.5664 32.7273 -1.31445 23.2754 0.401929C 15.432 1.81624 9.26564 6.09918 4.95945 13.1227C -1.11633 23.0389 -1.61359 32.603 3.48983 41.5509C 6.21769 46.338 9.75686 51.003 14.3107 55.8121C 22.6513 64.622 32.5239 72.9838 45.3821 82.1178C 46.2035 82.7039 47.0832 83 48.0013 83C 49.4145 83 50.3687 82.2898 50.8418 81.9418C 62.4438 73.71 71.5575 66.1223 79.5256 58.0505C 83.9748 53.5456 89.0238 48.0083 92.716 41.0928C 94.2984 38.1382 96.1022 34.1613 95.9955 29.6183C 95.7579 19.8422 91.8544 11.7784 84.3875 5.65108ZM 86.6724 37.9041C 83.3849 44.0535 78.7465 49.1286 74.6397 53.2855C 67.2714 60.7511 58.8463 67.8167 47.9892 75.6064C 36.1738 67.1125 27.0279 59.3128 19.2973 51.143C 15.124 46.7361 11.9009 42.5011 9.4428 38.1902C 5.55132 31.3687 5.98416 24.5232 10.8077 16.6575C 14.053 11.3603 18.6591 8.13962 24.5014 7.08539C 25.6207 6.88135 26.7541 6.78133 27.8715 6.78133C 34.7968 6.78133 40.931 10.5822 44.3956 17.1816L 44.9835 18.2838C 45.5874 19.4101 46.8316 20.0502 48.0596 20.0802C 49.3461 20.0562 50.5077 19.3261 51.0734 18.1778C 52.2893 15.7133 53.616 13.8009 55.2346 12.1725C 58.6288 8.76976 63.4303 6.81533 68.4109 6.81533C 72.705 6.81533 76.83 8.26165 80.0289 10.8902C 85.9799 15.7733 88.9634 21.9546 89.1547 29.7724C 89.2211 32.723 87.9387 35.5356 86.6724 37.9041Z"/>
</defs>
</svg>
